<svg width="40" height="40" viewBox="0 0 40 40" fill="none" xmlns="http://www.w3.org/2000/svg">
<path fill-rule="evenodd" clip-rule="evenodd" d="M10.444 0H29.556C32.3259 0 34.9824 1.10059 36.941 3.05908C38.8997 5.01758 40 7.67432 40 10.4438V29.5562C40.0001 30.9277 39.7301 32.2856 39.2053 33.5527C38.6804 34.8203 37.9111 35.9717 36.9413 36.9414C35.9714 37.9111 34.8201 38.6807 33.5529 39.2051C32.2858 39.73 30.9276 40 29.556 40H10.444C9.07239 40 7.71423 39.73 6.44714 39.2051C5.17993 38.6807 4.02856 37.9111 3.05872 36.9414C2.08887 35.9717 1.31958 34.8203 0.794678 33.5527C0.269898 32.2856 -0.000122029 30.9277 4.13704e-08 29.5562V10.4438C4.13704e-08 7.67432 1.10034 5.01758 3.05896 3.05908C5.01758 1.10059 7.67407 0 10.444 0ZM19.0557 7.34473H21.8026C22 7.34473 22.1437 7.56055 22.0719 7.75781L21.3538 9.60693H22.5746L23.4363 7.34473H26.1831C26.3806 7.34473 26.5243 7.56055 26.4524 7.75781L25.7163 9.67871C30.0072 10.1099 36.201 12.6411 30.3124 22.3716C27.368 27.2192 22.3771 29.5171 17.7631 30.5586L16.9552 32.6587C16.8655 32.8564 16.668 33 16.4346 33H13.6519L14.37 31.1509C14.1338 31.1802 13.8976 31.2046 13.6644 31.2261C13.4722 31.2441 13.2819 31.2603 13.0952 31.2764L12.5566 32.6587C12.4669 32.8564 12.2694 33 12.036 33H9.21741L9.82776 31.4023C7.85291 31.4023 6.61414 31.2583 6.61414 31.2583L12.79 16.0703H17.9067C18.3376 16.0703 18.6249 16.501 18.4812 16.9141L14.6752 26.8423C22.054 26.7524 25.465 20.8457 25.9318 17.5063C26.201 15.5137 25.088 14.6338 24.1365 14.2388C23.6338 14.0415 23.1132 13.9336 22.5746 13.9336H6.47058L8.62488 10.1455C8.82239 9.82227 9.18152 9.60693 9.57642 9.60693H18.194L19.0557 7.34473Z" fill="#FFFFFF"/>
</svg>
