<svg width="40" height="40" viewBox="0 0 40 40" fill="none" xmlns="http://www.w3.org/2000/svg">
<path fill-rule="evenodd" clip-rule="evenodd" d="M10.444 0H29.556C32.3259 0 34.9824 1.10059 36.941 3.05908C38.8997 5.01758 40 7.67432 40 10.4438V29.5562C40.0001 30.9277 39.7301 32.2856 39.2053 33.5527C38.6804 34.8203 37.9111 35.9717 36.9413 36.9414C35.9714 37.9111 34.8201 38.6807 33.5529 39.2051C32.2858 39.73 30.9276 40 29.556 40H10.444C9.07239 40 7.71423 39.73 6.44714 39.2051C5.17993 38.6807 4.02856 37.9111 3.05872 36.9414C2.08887 35.9717 1.31958 34.8203 0.794678 33.5527C0.269898 32.2856 -0.000122029 30.9277 4.13706e-08 29.5562V10.4438C4.13706e-08 7.67432 1.10034 5.01758 3.05896 3.05908C5.01758 1.10059 7.67407 0 10.444 0ZM24.6188 15.269C25.1487 14.9868 25.7448 14.9868 26.2085 15.269L31.5736 18.5859C32.1035 18.939 32.3684 19.5034 32.3684 20.0684V26.7729C32.3684 27.4082 32.0372 27.9727 31.5736 28.2549L26.2085 31.5718C25.6786 31.854 25.0824 31.854 24.6188 31.5718L19.2537 28.2549C18.7238 27.9019 18.4589 27.3374 18.4589 26.7729V24.4438L20.9758 22.8911V25.1494C20.9758 25.7847 21.307 26.3496 21.7706 26.6318L24.6188 28.396C25.1487 28.6782 25.7448 28.6782 26.2085 28.396L28.9904 26.6318C29.5203 26.2788 29.7852 25.7144 29.7852 25.1494V21.6211C29.7852 20.9858 29.454 20.4209 28.9904 20.1387L26.1422 18.3745C25.6123 18.0923 25.0162 18.0923 24.5526 18.3745L20.9095 20.6328L18.3926 22.1855L14.7496 24.4438C14.2197 24.7261 13.6237 24.7261 13.1599 24.4438L7.7948 21.127C7.26489 20.7739 7 20.2095 7 19.645V13.0107C7 12.4463 7.26489 11.8818 7.7948 11.5991L13.2262 8.21191C13.7561 7.9292 14.3522 7.9292 14.8159 8.21191L20.1147 11.5288C20.6447 11.8818 20.9095 12.4463 20.9095 13.0107V15.4102L18.3926 16.9629V14.6338C18.3926 13.999 18.0614 13.4341 17.5978 13.1519L14.7496 11.3169C14.2197 11.0347 13.6237 11.0347 13.1599 11.3169L10.3118 13.0815C9.78186 13.4341 9.51697 13.999 9.51697 14.5635V18.0923C9.51697 18.7275 9.84814 19.292 10.3118 19.5742L13.1599 21.4092C13.6898 21.6914 14.286 21.6914 14.7496 21.4092L18.3926 19.0801L20.9095 17.5981L24.6188 15.269Z" fill="#FFFFFF"/>
</svg>
