<svg width="40" height="40" viewBox="0 0 40 40" fill="none" xmlns="http://www.w3.org/2000/svg">
<path fill-rule="evenodd" clip-rule="evenodd" d="M10.444 0H29.556C32.3259 0 34.9824 1.10059 36.941 3.05908C38.8997 5.01758 40 7.67432 40 10.4438V29.5562C40.0001 30.9277 39.7301 32.2856 39.2053 33.5527C38.6804 34.8203 37.9111 35.9717 36.9413 36.9414C35.9714 37.9111 34.8201 38.6807 33.5529 39.2051C32.2858 39.73 30.9276 40 29.556 40H10.444C9.07239 40 7.71423 39.73 6.44714 39.2051C5.17993 38.6807 4.02856 37.9111 3.05872 36.9414C2.08887 35.9717 1.31958 34.8203 0.794678 33.5527C0.269898 32.2856 -0.000122029 30.9277 4.13706e-08 29.5562V10.4438C4.13706e-08 7.67432 1.10034 5.01758 3.05896 3.05908C5.01758 1.10059 7.67407 0 10.444 0ZM11.4191 8.91992L20.0056 4.02246L28.592 8.91992L25.4352 10.729L20.0056 7.64062L14.5759 10.729L11.4191 8.91992ZM28.592 15.0957L25.4352 13.2866L20.0056 16.3745L14.5759 13.2866L11.4191 15.0957V18.7144L16.8488 21.8022V27.9785L20.0056 29.7876L23.1622 27.9785V21.8022L28.592 18.7144V15.0957ZM25.4352 26.6997L28.592 24.8901V21.272L25.4352 23.0811V26.6997ZM30.8334 26.1689L25.4037 29.2573V32.8755L33.9901 27.9785V18.1841L30.8334 19.9932V26.1689ZM27.6765 12.0078L30.8334 13.8169V17.4355L33.9901 15.626V12.0078L30.8334 10.1987L27.6765 12.0078ZM20.0056 32.3765L16.8488 30.5674V34.1855L20.0056 35.9946L23.1622 34.1855V30.5674L20.0056 32.3765ZM11.4191 24.8901L14.5759 26.6997V23.0811L11.4191 21.272V24.8901ZM16.8488 12.0078L20.0056 13.8169L23.1622 12.0078L20.0056 10.1987L16.8488 12.0078ZM9.17773 13.8169L12.3346 12.0078L9.17773 10.1987L6.021 12.0078V15.626L9.17773 17.4355V13.8169ZM9.17773 19.9932L6.021 18.1841V27.9785L14.6074 32.8755V29.2573L9.17773 26.1689V19.9932Z" fill="#F0B90B"/>
</svg>
