<svg width="40" height="40" viewBox="0 0 40 40" fill="none" xmlns="http://www.w3.org/2000/svg">
<g clip-path="url(#clip0_602_4)">
<path fill-rule="evenodd" clip-rule="evenodd" d="M10.444 0H29.556C32.3259 0 34.9824 1.10035 36.941 3.05898C38.8997 5.01761 40 7.67408 40 10.444V29.556C40.0001 30.9276 39.7301 32.2857 39.2053 33.5529C38.6805 34.8201 37.9112 35.9715 36.9413 36.9413C35.9715 37.9112 34.8201 38.6805 33.5529 39.2053C32.2857 39.7301 30.9276 40.0001 29.556 40H10.444C9.07244 40.0001 7.71428 39.7301 6.4471 39.2053C5.17991 38.6805 4.02852 37.9112 3.05868 36.9413C2.08884 35.9715 1.31955 34.8201 0.794735 33.5529C0.269921 32.2857 -0.000131296 30.9276 0 29.556V10.444C0 7.67408 1.10035 5.01761 3.05898 3.05898C5.01761 1.10035 7.67408 0 10.444 0ZM19.5967 18.7117C21.2623 19.1661 24.9009 20.1588 25.5479 17.6236C26.21 15.0277 22.6734 14.2231 20.9486 13.8307C20.7553 13.7867 20.5847 13.7479 20.4453 13.7123L19.1965 18.6046C19.3112 18.6339 19.4459 18.6706 19.5967 18.7117ZM17.6647 26.5905C19.6643 27.1314 24.0329 28.3129 24.7433 25.5221L24.7592 25.5307C25.4881 22.6779 21.2586 21.7016 19.1904 21.2241C18.9566 21.1702 18.7504 21.1226 18.5821 21.0794L17.1882 26.4638C17.3251 26.4987 17.4854 26.542 17.6647 26.5905ZM25.5258 12.0327C28.6167 13.1222 30.8741 14.7297 30.4097 17.7032L30.3939 17.6946C30.0651 19.8723 28.847 20.9163 27.2409 21.2751C29.4295 22.4333 30.5291 24.1913 29.4495 27.2357C28.1052 31.0105 24.9644 31.3142 20.7781 30.4967L19.7348 34.5594L17.2865 33.9337L18.3118 29.9229C17.6606 29.758 17.0076 29.587 16.361 29.404L15.352 33.4133L12.9037 32.7876L13.9391 28.7206L12.1838 28.2775L8.99411 27.4634L10.2287 24.6632C10.2287 24.6632 12.0435 25.1388 12.0078 25.1193C12.48 25.2728 12.9876 25.0165 13.1444 24.5455L14.7977 18.1292L15.0562 18.1931C14.9734 18.1604 14.8887 18.1331 14.8024 18.1112L15.955 13.5369C16.0303 12.8288 15.5242 12.1909 14.8175 12.103C14.8669 12.0785 13.0424 11.6491 13.0424 11.6491L13.7105 9.02863L17.0883 9.89394C17.5953 10.0213 18.1185 10.1473 18.654 10.2696L19.6796 6.24877L22.1236 6.88241L21.1391 10.8279C21.7968 10.9809 22.4584 11.1361 23.0995 11.3006L24.1013 7.38002L26.5536 8.0079L25.5258 12.0327Z" fill="#F7931A"/>
</g>
<defs>
<clipPath id="clip0_602_4">
<rect width="40" height="40" fill="white"/>
</clipPath>
</defs>
</svg>
