<svg width="40" height="40" viewBox="0 0 40 40" fill="none" xmlns="http://www.w3.org/2000/svg">
<path d="M29.556 0H10.444C7.67408 0 5.01761 1.10035 3.05898 3.05898C1.10035 5.01761 4.7888e-08 7.67408 4.7888e-08 10.444V29.556C-0.000131296 30.9276 0.269921 32.2857 0.794735 33.5529C1.31955 34.8201 2.08884 35.9715 3.05868 36.9413C4.02853 37.9112 5.17991 38.6805 6.4471 39.2053C7.71428 39.7301 9.07244 40.0001 10.444 40H29.556C30.9276 40.0001 32.2857 39.7301 33.5529 39.2053C34.8201 38.6805 35.9715 37.9112 36.9413 36.9413C37.9112 35.9715 38.6805 34.8201 39.2053 33.5529C39.7301 32.2857 40.0001 30.9276 40 29.556V10.444C40 7.67408 38.8997 5.01761 36.941 3.05898C34.9824 1.10035 32.3259 0 29.556 0Z" fill="#272C33"/>
<path d="M22.5939 8.28125C20.317 8.28214 18.1336 9.18741 16.524 10.7979C14.9145 12.4085 14.0105 14.5924 14.011 16.8694V16.8694C14.011 16.8754 14.011 16.8811 14.011 16.8873V16.9013C14.0171 17.0092 14.0643 17.1106 14.1429 17.1847C14.2215 17.2588 14.3255 17.3 14.4336 17.2998H30.7541C30.8621 17.3 30.9661 17.2588 31.0447 17.1847C31.1233 17.1106 31.1705 17.0091 31.1766 16.9013L31.1773 16.8873C31.1773 16.8811 31.1773 16.8754 31.1773 16.8694C31.1777 14.5923 30.2737 12.4084 28.6641 10.7978C27.0544 9.18725 24.8709 8.28203 22.5939 8.28125V8.28125Z" fill="#53CBC8"/>
<path d="M8.32834 26.4581C8.32825 26.5614 8.29755 26.6623 8.24011 26.7482C8.18267 26.834 8.10108 26.9009 8.00564 26.9403C7.9102 26.9798 7.8052 26.9901 7.70391 26.9699C7.60262 26.9497 7.50959 26.9 7.43658 26.8269C7.36357 26.7539 7.31385 26.6608 7.29371 26.5595C7.27358 26.4582 7.28393 26.3532 7.32346 26.2578C7.36298 26.1624 7.4299 26.0808 7.51577 26.0234C7.60164 25.966 7.70259 25.9354 7.80587 25.9354C7.8745 25.9354 7.94247 25.9489 8.00588 25.9752C8.06928 26.0014 8.12689 26.0399 8.17541 26.0885C8.22393 26.137 8.2624 26.1947 8.28864 26.2581C8.31488 26.3215 8.32837 26.3895 8.32834 26.4581V26.4581Z" fill="#E1147B"/>
<path d="M30.1863 23.5665H12.6744C12.5853 23.5666 12.4977 23.5899 12.4203 23.6339C12.3429 23.678 12.2782 23.7414 12.2326 23.818C12.187 23.8945 12.162 23.9815 12.1602 24.0706C12.1583 24.1597 12.1795 24.2477 12.2218 24.3261C12.2246 24.3316 12.2276 24.3371 12.2305 24.3424C12.2746 24.424 12.34 24.4921 12.4197 24.5396C12.4994 24.587 12.5904 24.612 12.6832 24.6119H30.1779C30.2707 24.612 30.3618 24.587 30.4415 24.5395C30.5212 24.4921 30.5865 24.424 30.6306 24.3424L30.6393 24.3261C30.6816 24.2477 30.7028 24.1596 30.7009 24.0705C30.699 23.9814 30.6739 23.8944 30.6283 23.8178C30.5827 23.7413 30.5179 23.6779 30.4405 23.6339C30.363 23.5898 30.2755 23.5666 30.1863 23.5665V23.5665Z" fill="#E1147B"/>
<path d="M32.5133 18.8286H12.6741C12.6041 18.8287 12.5348 18.8432 12.4705 18.871C12.4063 18.8988 12.3484 18.9394 12.3003 18.9904C12.2523 19.0413 12.2151 19.1015 12.1911 19.1673C12.167 19.2331 12.1567 19.3031 12.1606 19.373C12.1606 19.3785 12.1606 19.3839 12.1614 19.3894C12.1688 19.5205 12.2262 19.6438 12.3217 19.734C12.4173 19.8241 12.5437 19.8742 12.6751 19.8739H32.5133C32.6447 19.8741 32.7711 19.8241 32.8666 19.7339C32.9622 19.6438 33.0196 19.5205 33.027 19.3894C33.027 19.3839 33.027 19.3785 33.0278 19.373C33.0317 19.303 33.0213 19.2329 32.9973 19.1671C32.9732 19.1012 32.9359 19.041 32.8878 18.99C32.8396 18.9391 32.7816 18.8985 32.7172 18.8707C32.6528 18.8429 32.5834 18.8286 32.5133 18.8286V18.8286Z" fill="#E1147B"/>
<path d="M25.0434 30.6734H16.1023C15.9863 30.6734 15.8737 30.7127 15.7828 30.7847C15.6919 30.8568 15.628 30.9574 15.6014 31.0703C15.5749 31.1832 15.5872 31.3018 15.6365 31.4068C15.6858 31.5118 15.7691 31.5971 15.8729 31.6488L15.9056 31.6652C15.9769 31.7006 16.0554 31.719 16.1349 31.7187H25.0103C25.0899 31.719 25.1685 31.7006 25.2398 31.6652L25.2724 31.6488C25.3762 31.5971 25.4595 31.5119 25.5087 31.4069C25.558 31.3019 25.5704 31.1834 25.5439 31.0705C25.5174 30.9576 25.4535 30.857 25.3627 30.7849C25.2719 30.7128 25.1594 30.6735 25.0434 30.6734Z" fill="#E1147B"/>
<path d="M30.5059 28.3044H21.5651C21.4492 28.3046 21.3367 28.3439 21.2459 28.416C21.1552 28.488 21.0913 28.5886 21.0648 28.7015C21.0383 28.8143 21.0506 28.9328 21.0998 29.0377C21.149 29.1427 21.2321 29.228 21.3358 29.2798L21.3684 29.2962C21.4398 29.3315 21.5183 29.3498 21.5979 29.3496H30.4727C30.5523 29.3498 30.6308 29.3315 30.7021 29.2962L30.7348 29.2798C30.8384 29.228 30.9216 29.1428 30.9708 29.0378C31.0199 28.9329 31.0323 28.8145 31.0058 28.7017C30.9794 28.5889 30.9156 28.4883 30.8249 28.4162C30.7342 28.3441 30.6218 28.3047 30.5059 28.3044V28.3044Z" fill="#E1147B"/>
<path d="M18.3145 26.8161L18.2994 26.7999C18.2312 26.7265 18.186 26.6348 18.1693 26.536C18.1525 26.4373 18.1649 26.3358 18.2049 26.244C18.245 26.1522 18.311 26.0741 18.3948 26.0193C18.4786 25.9644 18.5766 25.9352 18.6767 25.9352H33.188C33.2881 25.9352 33.3861 25.9644 33.4699 26.0193C33.5537 26.0741 33.6197 26.1522 33.6597 26.244C33.6998 26.3358 33.7122 26.4373 33.6954 26.536C33.6787 26.6348 33.6334 26.7265 33.5653 26.7999L33.5502 26.8161C33.5019 26.8679 33.4435 26.9091 33.3786 26.9374C33.3137 26.9657 33.2438 26.9804 33.173 26.9806H18.6917C18.6209 26.9804 18.551 26.9657 18.4861 26.9374C18.4212 26.9091 18.3628 26.8679 18.3145 26.8161V26.8161Z" fill="#E1147B"/>
<path d="M9.67158 25.9354H16.6011C16.717 25.9356 16.8295 25.9749 16.9203 26.047C17.0111 26.119 17.0749 26.2196 17.1014 26.3324C17.1279 26.4453 17.1156 26.5638 17.0664 26.6687C17.0173 26.7737 16.9341 26.859 16.8304 26.9108L16.7978 26.9272C16.7265 26.9626 16.648 26.9809 16.5685 26.9807H9.70505C9.62546 26.9809 9.5469 26.9626 9.47562 26.9272L9.44298 26.9108C9.33936 26.859 9.25623 26.7738 9.20704 26.6689C9.15785 26.564 9.14547 26.4456 9.17191 26.3328C9.19834 26.22 9.26204 26.1194 9.35271 26.0473C9.44338 25.9752 9.55573 25.9357 9.67158 25.9354V25.9354Z" fill="#E1147B"/>
<path d="M11.3308 19.3512C11.3307 19.4544 11.3 19.5554 11.2426 19.6412C11.1852 19.7271 11.1036 19.794 11.0082 19.8335C10.9127 19.873 10.8077 19.8833 10.7064 19.8631C10.6051 19.843 10.5121 19.7932 10.4391 19.7202C10.366 19.6471 10.3163 19.5541 10.2962 19.4528C10.276 19.3515 10.2864 19.2464 10.3259 19.151C10.3654 19.0556 10.4323 18.974 10.5182 18.9166C10.6041 18.8592 10.705 18.8286 10.8083 18.8286C10.8769 18.8286 10.9449 18.8421 11.0083 18.8683C11.0717 18.8946 11.1293 18.9331 11.1778 18.9816C11.2263 19.0302 11.2648 19.0878 11.291 19.1512C11.3173 19.2146 11.3308 19.2825 11.3308 19.3512Z" fill="#E1147B"/>
<path d="M23.6445 21.8613C23.6459 21.856 23.6473 21.8504 23.6488 21.8451C23.6692 21.7689 23.6718 21.689 23.6564 21.6116C23.641 21.5342 23.608 21.4614 23.5599 21.3988C23.5119 21.3362 23.4501 21.2855 23.3793 21.2506C23.3085 21.2158 23.2306 21.1976 23.1517 21.1977H8.6382C8.55928 21.1976 8.4814 21.2157 8.41059 21.2506C8.33979 21.2854 8.27795 21.3361 8.22989 21.3987C8.18182 21.4613 8.14882 21.5341 8.13342 21.6116C8.11802 21.689 8.12064 21.7689 8.14109 21.8451C8.14249 21.8504 8.14403 21.856 8.14557 21.8613C8.175 21.9707 8.2396 22.0673 8.32939 22.1362C8.41919 22.2052 8.52918 22.2427 8.6424 22.2429H23.1475C23.2607 22.2426 23.3707 22.2052 23.4605 22.1362C23.5503 22.0673 23.615 21.9707 23.6445 21.8613" fill="#E1147B"/>
<path d="M7.29464 21.7201C7.29458 21.8234 7.26391 21.9244 7.20648 22.0102C7.14905 22.0961 7.06746 22.163 6.97201 22.2025C6.87656 22.242 6.77155 22.2523 6.67025 22.2321C6.56895 22.2119 6.4759 22.1621 6.40288 22.0891C6.32986 22.016 6.28015 21.9229 6.26002 21.8216C6.23989 21.7203 6.25024 21.6153 6.28978 21.5199C6.32933 21.4245 6.39627 21.3429 6.48216 21.2855C6.56805 21.2281 6.66903 21.1975 6.77232 21.1975C6.91087 21.1976 7.04372 21.2527 7.14167 21.3507C7.23962 21.4487 7.29464 21.5816 7.29464 21.7201V21.7201Z" fill="#E1147B"/>
<path d="M11.3308 24.0891C11.3307 24.1924 11.3 24.2934 11.2426 24.3792C11.1852 24.4651 11.1036 24.532 11.0082 24.5715C10.9127 24.611 10.8077 24.6213 10.7064 24.6011C10.6051 24.5809 10.5121 24.5312 10.4391 24.4581C10.366 24.3851 10.3163 24.292 10.2962 24.1907C10.276 24.0894 10.2864 23.9844 10.3259 23.889C10.3654 23.7936 10.4323 23.712 10.5182 23.6546C10.6041 23.5972 10.705 23.5666 10.8083 23.5665C10.9469 23.5666 11.0798 23.6216 11.1778 23.7196C11.2757 23.8176 11.3308 23.9506 11.3308 24.0891V24.0891Z" fill="#E1147B"/>
<path d="M20.2219 28.8271C20.2218 28.9304 20.1912 29.0313 20.1337 29.1172C20.0763 29.2031 19.9947 29.27 19.8993 29.3095C19.8039 29.3489 19.6988 29.3593 19.5975 29.3391C19.4962 29.3189 19.4032 29.2692 19.3302 29.1961C19.2572 29.1231 19.2074 29.03 19.1873 28.9287C19.1671 28.8274 19.1775 28.7224 19.217 28.627C19.2565 28.5315 19.3234 28.45 19.4093 28.3926C19.4952 28.3352 19.5961 28.3045 19.6994 28.3045C19.7681 28.3045 19.836 28.318 19.8994 28.3443C19.9628 28.3705 20.0204 28.409 20.0689 28.4576C20.1174 28.5061 20.1559 28.5637 20.1822 28.6271C20.2084 28.6905 20.2219 28.7585 20.2219 28.8271Z" fill="#E1147B"/>
<path d="M14.7589 31.1961C14.7588 31.2994 14.7281 31.4004 14.6707 31.4862C14.6133 31.5721 14.5317 31.639 14.4362 31.6785C14.3408 31.718 14.2358 31.7283 14.1345 31.7081C14.0332 31.6879 13.9401 31.6381 13.8671 31.5651C13.7941 31.492 13.7444 31.399 13.7242 31.2976C13.7041 31.1963 13.7145 31.0913 13.754 30.9959C13.7936 30.9005 13.8605 30.8189 13.9464 30.7615C14.0323 30.7042 14.1333 30.6735 14.2366 30.6735C14.3052 30.6735 14.3731 30.6871 14.4365 30.7134C14.4999 30.7396 14.5575 30.7781 14.606 30.8266C14.6545 30.8752 14.6929 30.9328 14.7192 30.9962C14.7454 31.0596 14.7589 31.1275 14.7589 31.1961Z" fill="#E1147B"/>
</svg>
