<svg width="40" height="40" viewBox="0 0 40 40" fill="none" xmlns="http://www.w3.org/2000/svg">
<path fill-rule="evenodd" clip-rule="evenodd" d="M29.556 0H10.444C7.67407 0 5.01758 1.10059 3.05896 3.05908C1.10034 5.01758 4.13704e-08 7.67432 4.13704e-08 10.4438V29.5562C-0.000122029 30.9277 0.269898 32.2856 0.794678 33.5527C1.31958 34.8203 2.08887 35.9717 3.05872 36.9414C4.02856 37.9111 5.17993 38.6807 6.44714 39.2051C7.71423 39.73 9.07239 40 10.444 40H29.556C30.9276 40 32.2858 39.73 33.5529 39.2051C34.8201 38.6807 35.9714 37.9111 36.9413 36.9414C37.9111 35.9717 38.6804 34.8203 39.2053 33.5527C39.7301 32.2856 40.0001 30.9277 40 29.5562V10.4438C40 7.67432 38.8997 5.01758 36.941 3.05908C34.9824 1.10059 32.3259 0 29.556 0ZM14.0785 26C12.8801 26 11.8983 25.689 11.1329 25.0664C10.3777 24.4331 10 23.5332 10 22.3667C10 22.1221 10.0251 21.8223 10.0756 21.4668C10.2065 20.6665 10.3928 19.7056 10.6344 18.5835C11.3192 15.5278 13.0867 14 15.9365 14C16.7119 14 17.4067 14.1445 18.0211 14.4331C18.6355 14.7109 19.1188 15.1333 19.4712 15.7002C19.8237 16.2554 20 16.9224 20 17.7002C20 17.9331 19.9749 18.2275 19.9244 18.5835C19.7734 19.5723 19.592 20.5332 19.3806 21.4668C19.0282 22.9888 18.4189 24.1279 17.5529 24.8833C16.6868 25.6279 15.5287 26 14.0785 26ZM14.29 23.6001C14.854 23.6001 15.3323 23.4165 15.7251 23.0498C16.1279 22.6831 16.4149 22.1221 16.5861 21.3667C16.8176 20.3223 16.994 19.4111 17.1147 18.6333C17.155 18.3999 17.1752 18.1611 17.1752 17.9165C17.1752 16.9053 16.6968 16.3999 15.7402 16.3999C15.1761 16.3999 14.6929 16.5835 14.29 16.9497C13.8973 17.3169 13.6152 17.8779 13.4441 18.6333C13.2628 19.3779 13.0815 20.2891 12.9003 21.3667C12.86 21.5889 12.8398 21.8223 12.8398 22.0664C12.8398 23.0889 13.3232 23.6001 14.29 23.6001ZM20.0577 25.8799C20.1223 25.96 20.214 26 20.3325 26H22.5306C22.6383 26 22.7407 25.96 22.8378 25.8799C22.9347 25.7998 22.9939 25.6973 23.0155 25.5713L23.759 21.8169H25.941C27.3525 21.8169 28.4624 21.5029 29.2706 20.8745C30.0895 20.2456 30.6337 19.2744 30.903 17.96C30.9677 17.6514 31 17.354 31 17.0684C31 16.0742 30.6337 15.3145 29.9009 14.7886C29.179 14.2627 28.22 14 27.0239 14H22.7246C22.6168 14 22.5145 14.04 22.4175 14.1201C22.3206 14.2002 22.2612 14.3027 22.2397 14.4287L20.0093 25.5713C19.9877 25.6855 20.0038 25.7886 20.0577 25.8799ZM27.234 19.0571C26.9 19.3198 26.5067 19.4517 26.0542 19.4517H24.1954L24.8096 16.3828H26.7491C27.1909 16.3828 27.5034 16.4741 27.6866 16.6572C27.8698 16.8286 27.9614 17.0801 27.9614 17.4116C27.9614 17.5601 27.9452 17.7314 27.9128 17.9258C27.8052 18.417 27.5789 18.7944 27.234 19.0571Z" fill="#FF0420"/>
</svg>
