<svg width="40" height="40" viewBox="0 0 40 40" fill="none" xmlns="http://www.w3.org/2000/svg">
<g clip-path="url(#clip0_655_53)">
<path fill-rule="evenodd" clip-rule="evenodd" d="M10.444 0H29.556C32.3259 0 34.9824 1.10035 36.941 3.05898C38.8997 5.01761 40 7.67408 40 10.444V29.556C40.0001 30.9276 39.7301 32.2857 39.2053 33.5529C38.6805 34.8201 37.9112 35.9715 36.9413 36.9413C35.9715 37.9112 34.8201 38.6805 33.5529 39.2053C32.2857 39.7301 30.9276 40.0001 29.556 40H10.444C9.07244 40.0001 7.71428 39.7301 6.4471 39.2053C5.17991 38.6805 4.02852 37.9112 3.05868 36.9413C2.08884 35.9715 1.31955 34.8201 0.794735 33.5529C0.269921 32.2857 -0.000131249 30.9276 4.78531e-08 29.556V10.444C4.78531e-08 7.67408 1.10035 5.01761 3.05898 3.05898C5.01761 1.10035 7.67408 0 10.444 0ZM13.1893 10.0551L11.0248 11.3252L10.7323 10.8111L7 13.0178V12.675L20 5L20.2912 5.17138L20.8775 5.52079L21.4612 5.86356L13.4805 10.5666L13.1893 10.0551ZM11.0248 16.1572L17.2791 12.4638L17.5716 12.9833L25.551 8.27753L24.9673 7.92945L24.3823 7.58669L24.0898 7.41796L7 17.5017V17.8444L10.7323 15.6377L11.0248 16.1572ZM19.324 13.6754L11.0248 18.5725L10.7323 18.0557L7 20.2584V19.9103L26.1347 8.6203L26.4285 8.79168L27.0122 9.14109L27.5946 9.47854L19.6178 14.1896L19.324 13.6754ZM11.0248 20.9838L21.4274 14.8472L21.7225 15.3614L29.6408 10.6902L29.0584 10.3408L28.4721 9.99801L28.1809 9.82662L7 22.3283V22.6711L10.7323 20.4643L11.0248 20.9838ZM23.4736 16.0509L11.0248 23.3938L10.7323 22.8783L7 25.0797V24.7369L30.2245 11.0329L30.5183 11.2043L31.102 11.5524L31.6857 11.8925L23.7661 16.5703L23.4736 16.0509ZM32.5632 12.4133L32.2707 12.2393L7 27.1549V27.4977L10.7323 25.2963L11.0248 25.8104L23.4736 18.4688L23.7661 18.983L33 13.5373V12.8464V12.675L32.5632 12.4133ZM10.6946 27.7275L8.6003 28.9617L8.3143 28.7904L33 14.2201V14.5629V15.2551V15.9459L23.705 21.4315L23.4138 20.9107L10.9858 28.243L10.6946 27.7275ZM23.4138 23.3287L23.705 23.8495L33 18.3639V17.673V16.9809V16.6381L10.3592 29.9967L10.653 30.1681L12.7772 28.9112L13.071 29.432L23.4138 23.3287ZM14.8234 30.1175L12.6966 31.377L12.4002 31.2003L33 19.0494V19.3962V20.0817V20.7739L23.705 26.2581L23.4138 25.7373L15.1146 30.637L14.8234 30.1175ZM14.7402 32.5834L16.867 31.3292L17.1608 31.8434L23.4138 28.1553L23.705 28.6695L33 23.1852V22.4997V21.8075V21.4647L14.449 32.412L14.7402 32.5834ZM16.7877 33.7883L16.4952 33.617L33 23.8734V24.2175V24.9083V25.6005L23.705 31.0847L23.4138 30.5653L19.2057 33.0523L18.9184 32.5329L16.7877 33.7883ZM18.8313 35L20.9568 33.7379L21.2493 34.2587L23.4138 32.9766L23.705 33.4961L33 28.0171V27.3263V26.6341V26.2913L18.5388 34.8286L18.8313 35ZM22.9211 6.72579L23.5074 7.06855L15.5332 11.7783L15.2329 11.2575L11.0248 13.7392L10.7323 13.2277L7 15.4265V15.0837L22.0462 6.20632L22.3387 6.38302L22.9211 6.72579Z" fill="#272C33"/>
</g>
<defs>
<clipPath id="clip0_655_53">
<rect width="40" height="40" fill="white"/>
</clipPath>
</defs>
</svg>
