<svg width="40" height="40" viewBox="0 0 40 40" fill="none" xmlns="http://www.w3.org/2000/svg">
<path fill-rule="evenodd" clip-rule="evenodd" d="M10.444 0H29.556C32.3259 0 34.9824 1.10059 36.941 3.05908C38.8997 5.01758 40 7.67432 40 10.4438V29.5562C40.0001 30.9277 39.7301 32.2856 39.2053 33.5527C38.6804 34.8203 37.9111 35.9717 36.9413 36.9414C35.9714 37.9111 34.8201 38.6807 33.5529 39.2051C32.2858 39.73 30.9276 40 29.556 40H10.444C9.07239 40 7.71423 39.73 6.44714 39.2051C5.17993 38.6807 4.02856 37.9111 3.05872 36.9414C2.08887 35.9717 1.31958 34.8203 0.794678 33.5527C0.269898 32.2856 -0.000122029 30.9277 4.13704e-08 29.5562V10.4438C4.13704e-08 7.67432 1.10034 5.01758 3.05896 3.05908C5.01758 1.10059 7.67407 0 10.444 0ZM33.7123 17.7329C33.7688 17.834 33.8151 17.9409 33.8667 18.0605C32.9222 11.2466 27.0698 5.99902 19.99 5.99902C19.2161 5.99902 18.4567 6.06201 17.7169 6.18213C17.4771 6.22168 17.2396 6.2666 17.0039 6.31738C12.1655 7.37256 13.406 9.70361 20.0908 12.1182C31.9862 16.415 33.2267 16.8633 33.7123 17.7329ZM33.8632 18.4307C33.4772 17.5386 33.3789 17.3398 27 15C28.3477 18.4077 30.7228 20.2314 33.823 22.5986C33.9386 21.8745 33.9988 21.1318 33.9988 20.3745C33.9988 19.7148 33.9518 19.0659 33.8632 18.4307ZM11.225 9.68213C11.4469 15.2461 15.2505 20.7744 21.3452 23.4985C25.1754 25.2104 29.2291 25.5098 32.78 24.6167C32.9995 24.5615 33.1873 24.7798 33.1064 24.9907C31.0637 30.3384 25.8348 34.1128 19.7394 33.9976C12.1902 33.8545 6.06177 27.6611 5.99939 20.1177C5.96436 15.8804 7.81372 12.0752 10.7596 9.48535C10.9363 9.33057 11.2155 9.44727 11.225 9.68213Z" fill="#F9D85E"/>
</svg>
