<svg width="40" height="40" viewBox="0 0 40 40" fill="none" xmlns="http://www.w3.org/2000/svg">
<path fill-rule="evenodd" clip-rule="evenodd" d="M10.444 0H29.556C32.3259 0 34.9824 1.10059 36.941 3.05908C38.8997 5.01758 40 7.67432 40 10.4438V29.5562C40.0001 30.9277 39.7301 32.2856 39.2053 33.5527C38.6805 34.8203 37.9111 35.9717 36.9413 36.9414C35.9715 37.9111 34.8201 38.6807 33.5529 39.2051C32.2857 39.73 30.9276 40 29.556 40H10.444C9.07245 40 7.71429 39.73 6.44708 39.2051C5.17993 38.6807 4.0285 37.9111 3.05865 36.9414C2.08887 35.9717 1.31952 34.8203 0.794739 33.5527C0.269898 32.2856 -0.000122029 30.9277 4.13706e-08 29.5562V10.4438C4.13706e-08 7.67432 1.10034 5.01758 3.05896 3.05908C5.01758 1.10059 7.67407 0 10.444 0ZM20.6177 5.2876C19.9685 4.9043 18.9807 4.9043 18.3315 5.2876L11.7073 9.19727C11.308 9.43311 11.1031 9.76807 11.0707 10.127V10.1777C11.0697 10.2046 11.0697 10.2319 11.0707 10.2593V29.6807C11.0696 29.7075 11.0697 29.7402 11.0707 29.7798C11.0807 30.1655 11.2839 30.5527 11.7073 30.8027L18.3315 34.7124C18.9807 35.0957 19.9685 35.0957 20.6177 34.7124L27.2419 30.8027C27.6671 30.5518 27.8839 30.167 27.8925 29.7798V10.127H27.8862C27.8477 9.77197 27.6329 9.42822 27.2419 9.19727L20.6177 5.2876ZM20.6157 24.7383L26.8387 21.0532V29.6875L20.5701 33.4106L20.5021 33.4478C20.1602 33.6357 19.822 33.8218 19.4742 33.8203L19.4528 33.8198C19.0813 33.8105 18.6998 33.5962 18.3328 33.3765L12.1237 29.7192V21.0615L18.3328 24.7383C18.9811 25.1226 19.9674 25.1226 20.6157 24.7383ZM10.2635 30.9512C10.1096 30.6025 10.0321 30.1074 10.0321 29.354H9L9.00012 29.4062C9.00745 31.127 9.37891 31.9536 10.375 32.7124C10.4681 32.7832 10.5681 32.8555 10.6886 32.9395L10.7587 32.9883L11.1755 33.2725L11.7097 32.2749L11.3372 32.021L11.2159 31.937C11.1131 31.8652 11.0286 31.8042 10.9519 31.7456L10.9319 31.7305C10.5825 31.4614 10.3911 31.2407 10.2635 30.9512ZM18.8386 15.8931C18.8798 15.8687 18.9249 15.8472 18.9731 15.8286V23.8345C18.9249 23.8159 18.8798 23.7944 18.8386 23.77L12.2244 19.8472L12.2093 19.8384L12.1989 19.8315L12.2045 19.8276L12.2244 19.8154L18.8386 15.8931ZM20.0269 23.8345V15.8286C20.0519 15.8384 20.076 15.8486 20.0992 15.8599C20.1208 15.8701 20.1417 15.8813 20.1615 15.8931L26.7756 19.8154L26.7907 19.8247L26.8011 19.8315L26.7955 19.835L26.7756 19.8472L20.1615 23.77C20.1363 23.7852 20.1096 23.7988 20.0815 23.8115L20.0269 23.8345ZM20.8925 15.0283L26.8387 11.5308V18.5254L20.8925 15.0283ZM18.0699 15.0283L12.1237 18.5254V11.5308L18.0699 15.0283ZM18.8443 6.33252C19.1886 6.12891 19.8114 6.12891 20.1557 6.33252L26.7756 10.251L26.7907 10.2603L26.8011 10.2671L26.7955 10.2705L26.7756 10.2827L20.1557 14.2012C19.8114 14.4048 19.1886 14.4048 18.8443 14.2012L12.2244 10.2827L12.2093 10.2734L12.1989 10.2671L12.2045 10.2632L12.2244 10.251L18.8443 6.33252ZM28.2413 7.01172L27.8245 6.72754L27.2903 7.7251L27.6628 7.979L27.7841 8.06299C27.8869 8.13477 27.9714 8.1958 28.0481 8.25439L28.0681 8.26953C28.4175 8.53857 28.6089 8.75928 28.7365 9.04883C28.8904 9.39746 28.968 9.89258 28.968 10.646H30L29.9999 10.5938C29.9926 8.87305 29.6211 8.04639 28.625 7.2876C28.5319 7.2168 28.4319 7.14453 28.3114 7.06055L28.2413 7.01172Z" fill="#FFFFFF"/>
</svg>
