<svg width="40" height="40" viewBox="0 0 40 40" fill="none" xmlns="http://www.w3.org/2000/svg">
<g clip-path="url(#clip0_604_203)">
<path fill-rule="evenodd" clip-rule="evenodd" d="M10.444 0H29.556C32.3259 0 34.9824 1.10035 36.941 3.05898C38.8997 5.01761 40 7.67408 40 10.444V29.556C40.0001 30.9276 39.7301 32.2857 39.2053 33.5529C38.6805 34.8201 37.9112 35.9715 36.9413 36.9413C35.9715 37.9112 34.8201 38.6805 33.5529 39.2053C32.2857 39.7301 30.9276 40.0001 29.556 40H10.444C9.07244 40.0001 7.71428 39.7301 6.4471 39.2053C5.17991 38.6805 4.02852 37.9112 3.05868 36.9413C2.08884 35.9715 1.31955 34.8201 0.794735 33.5529C0.269921 32.2857 -0.000131249 30.9276 4.78531e-08 29.556V10.444C4.78531e-08 7.67408 1.10035 5.01761 3.05898 3.05898C5.01761 1.10035 7.67408 0 10.444 0ZM11.1959 25.274C10.9495 25.274 10.7171 25.3773 10.5482 25.5544L6.13377 30.1809C5.84511 30.4835 6.04928 31 6.45763 31H28.8041C29.0505 31 29.2829 30.8967 29.4518 30.7196L33.8662 26.093C34.1549 25.7905 33.9507 25.274 33.5424 25.274H11.1959ZM10.5481 8.2804C10.7241 8.1033 10.9564 8 11.1958 8H33.5423C33.9506 8 34.1548 8.51652 33.8661 8.81906L29.4518 13.4456C29.2828 13.6227 29.0504 13.726 28.804 13.726H6.45753C6.04919 13.726 5.84501 13.2095 6.13367 12.907L10.5481 8.2804ZM28.8041 16.5816C29.0505 16.5816 29.2829 16.685 29.4518 16.862L33.8662 21.4886C34.1549 21.7911 33.9507 22.3077 33.5424 22.3077H11.1959C10.9495 22.3077 10.7171 22.2044 10.5482 22.0273L6.13377 17.4007C5.84511 17.0982 6.04928 16.5816 6.45763 16.5816H28.8041Z" fill="#FFFFFF"/>
</g>
</svg>
