<svg width="40" height="40" viewBox="0 0 40 40" fill="none" xmlns="http://www.w3.org/2000/svg">
<g clip-path="url(#clip0_605_2)">
<path fill-rule="evenodd" clip-rule="evenodd" d="M10.444 0H29.556C32.3259 0 34.9824 1.10035 36.941 3.05898C38.8997 5.01761 40 7.67408 40 10.444V29.556C40.0001 30.9276 39.7301 32.2857 39.2053 33.5529C38.6805 34.8201 37.9112 35.9715 36.9413 36.9413C35.9715 37.9112 34.8201 38.6805 33.5529 39.2053C32.2857 39.7301 30.9276 40.0001 29.556 40H10.444C9.07244 40.0001 7.71428 39.7301 6.4471 39.2053C5.17991 38.6805 4.02852 37.9112 3.05868 36.9413C2.08884 35.9715 1.31955 34.8201 0.794735 33.5529C0.269921 32.2857 -0.000131249 30.9276 4.78531e-08 29.556V10.444C4.78531e-08 7.67408 1.10035 5.01761 3.05898 3.05898C5.01761 1.10035 7.67408 0 10.444 0ZM7 11.9256L7.88041 16.1516L7.32109 16.5659L8.14972 17.1977L7.51789 17.6949L8.34652 18.451L7.82863 18.8239L9.01977 20.2222L7.21751 25.8362L8.89548 31.564L14.7684 29.9482L15.9077 30.8804L18.2175 32.4859H22.1846L24.5047 30.8804L25.6441 29.9482L31.5169 31.564L33.2053 25.8362L31.3823 20.2222L32.5838 18.8239L32.0659 18.451L32.8945 17.6949L32.2524 17.1977L33.081 16.5659L32.532 16.1516L33.4124 11.9256L32.097 8L23.6968 11.1384H16.7156L8.30509 8L7 11.9256Z" fill="#F6851B"/>
</g>
<defs>
<clipPath id="clip0_605_2">
<rect width="40" height="40" fill="white"/>
</clipPath>
</defs>
</svg>
