<svg width="28" height="26" viewBox="0 0 28 26" fill="none" xmlns="http://www.w3.org/2000/svg">
<path d="M26.097 1L15.791 8.65443L17.6968 4.13842L26.097 1Z" fill="#F6851B"/>
<path d="M2.30509 1L12.5282 8.72693L10.7156 4.13842L2.30509 1Z" fill="#F6851B"/>
<path d="M22.3889 18.7429L19.6441 22.9482L25.5169 24.564L27.2053 18.8362L22.3889 18.7429Z" fill="#F6851B"/>
<path d="M1.21751 18.8362L2.89548 24.564L8.76836 22.9482L6.02354 18.7429L1.21751 18.8362Z" fill="#F6851B"/>
<path d="M8.43691 11.6375L6.80038 14.113L12.6318 14.3719L12.4247 8.10546L8.43691 11.6375Z" fill="#F6851B"/>
<path d="M19.9652 11.6375L15.9256 8.03296L15.791 14.3719L21.6121 14.113L19.9652 11.6375Z" fill="#F6851B"/>
<path d="M8.76836 22.9482L12.2693 21.2392L9.24482 18.8776L8.76836 22.9482Z" fill="#F6851B"/>
<path d="M16.1328 21.2392L19.6441 22.9482L19.1573 18.8776L16.1328 21.2392Z" fill="#F6851B"/>
<path d="M19.6441 22.9482L16.1328 21.2392L16.4124 23.5282L16.3814 24.4915L19.6441 22.9482Z" fill="#F6851B"/>
<path d="M8.76836 22.9482L12.0311 24.4915L12.0104 23.5282L12.2693 21.2392L8.76836 22.9482Z" fill="#F6851B"/>
<path d="M12.0829 17.3653L11.2062 15.323L9.16196 16.5057L12.0829 17.3653Z" fill="#F6851B"/>
<path d="M16.3192 17.3653L17.1789 15.5631L19.2505 16.5057L16.3192 17.3653Z" fill="#F6851B"/>
<path d="M8.76836 22.9482L9.26554 18.7429L6.02354 18.8362L8.76836 22.9482Z" fill="#F6851B"/>
<path d="M18.7062 18.323L19.6441 22.9482L22.3889 18.8362L18.7062 18.323Z" fill="#F6851B"/>
<path d="M21.6121 14.113L15.791 14.3719L16.3296 17.3653L19.2608 16.5056L21.6121 14.113Z" fill="#F6851B"/>
<path d="M9.16196 16.5057L11.2335 15.5631L12.0829 17.3653L12.6318 14.3719L6.80038 14.113L9.16196 16.5057Z" fill="#F6851B"/>
<path d="M6.80038 14.113L9.24482 18.8776L9.16196 16.5057L6.80038 14.113Z" fill="#F6851B"/>
<path d="M19.2608 16.5056L19.1573 18.8776L21.6121 14.113L19.2608 16.5056Z" fill="#F6851B"/>
<path d="M12.6318 14.3719L12.0829 17.3653L12.7665 20.8974L12.9218 16.2467L12.6318 14.3719Z" fill="#F6851B"/>
<path d="M15.791 14.3719L15.5113 16.2363L15.6356 20.8974L16.3296 17.3653L15.791 14.3719Z" fill="#F6851B"/>
<path d="M16.3296 17.3653L15.6356 20.8974L16.1328 21.2392L19.1573 18.8776L19.2608 16.5056L16.3296 17.3653Z" fill="#F6851B"/>
<path d="M9.16196 16.5057L9.24482 18.8776L12.2693 21.2392L12.7665 20.8974L12.0829 17.3653L11.2062 15.323L9.16196 16.5057Z" fill="#F6851B"/>
<path d="M16.3814 24.4915L16.4124 23.5282L16.1535 23.3004H12.2486L12.0104 23.5282L12.0311 24.4915L8.76836 22.9482L9.90772 23.8804L12.2175 25.4859H16.1846L18.5047 23.8804L19.6441 22.9482L16.3814 24.4915Z" fill="#F6851B"/>
<path d="M16.1328 21.2392L15.6356 20.8974H12.7665L12.2693 21.2392L12.0104 23.5282L12.2486 23.3004H16.1535L16.4124 23.5282L16.1328 21.2392Z" fill="#F6851B"/>
<path d="M26.532 9.1516L27.4124 4.92561L26.097 1L16.1328 8.39548L19.9652 11.6375L25.3823 13.2222L26.5838 11.8239L26.0659 11.451L26.8945 10.6949L26.2524 10.1977L27.081 9.56591L26.532 9.1516Z" fill="#F6851B"/>
<path d="M1 4.92561L1.88041 9.1516L1.32109 9.56591L2.14972 10.1977L1.51789 10.6949L2.34652 11.451L1.82863 11.8239L3.01977 13.2222L8.43691 11.6375L12.2693 8.39548L2.30509 1L1 4.92561Z" fill="#F6851B"/>
<path d="M25.3823 13.2222L19.9652 11.6375L21.6121 14.113L19.1573 18.8776L22.3889 18.8362H27.2053L25.3823 13.2222Z" fill="#F6851B"/>
<path d="M8.43691 11.6375L3.01977 13.2222L1.21751 18.8362H6.02354L9.24482 18.8776L6.80038 14.113L8.43691 11.6375Z" fill="#F6851B"/>
<path d="M15.791 14.3719L16.1328 8.39548L17.7072 4.13842L10.7156 4.13842L12.2693 8.39548L12.6318 14.3719L12.7561 16.2571L12.7665 20.8974H15.6356L15.6563 16.2571L15.791 14.3719Z" fill="#F6851B"/>
<path d="M26.097 1L15.791 8.65443L17.6968 4.13842L26.097 1ZM26.097 1L27.4124 4.92561L26.532 9.1516L27.081 9.56591L26.2524 10.1977L26.8945 10.6949L26.0659 11.451L26.5838 11.8239L25.3823 13.2222M26.097 1L16.1328 8.39548M2.30509 1L12.5282 8.72693L10.7156 4.13842M2.30509 1L10.7156 4.13842M2.30509 1L12.2693 8.39548M2.30509 1L1 4.92561L1.88041 9.1516L1.32109 9.56591L2.14972 10.1977L1.51789 10.6949L2.34652 11.451L1.82863 11.8239L3.01977 13.2222M10.7156 4.13842L17.7072 4.13842L16.1328 8.39548M10.7156 4.13842L12.2693 8.39548M19.6441 22.9482L22.3889 18.7429L27.2053 18.8362M19.6441 22.9482L25.5169 24.564L27.2053 18.8362M19.6441 22.9482L16.1328 21.2392M19.6441 22.9482L19.1573 18.8776M19.6441 22.9482L16.3814 24.4915L16.4124 23.5282M19.6441 22.9482L18.7062 18.323L22.3889 18.8362M19.6441 22.9482L22.3889 18.8362M19.6441 22.9482L18.5047 23.8804L16.1846 25.4859H12.2175L9.90772 23.8804L8.76836 22.9482M27.2053 18.8362H22.3889M27.2053 18.8362L25.3823 13.2222M1.21751 18.8362L2.89548 24.564L8.76836 22.9482M1.21751 18.8362L6.02354 18.7429L8.76836 22.9482M1.21751 18.8362L3.01977 13.2222M1.21751 18.8362H6.02354M8.76836 22.9482L12.2693 21.2392M8.76836 22.9482L9.24482 18.8776M8.76836 22.9482L12.0311 24.4915L12.0104 23.5282M8.76836 22.9482L9.26554 18.7429L6.02354 18.8362M8.76836 22.9482L6.02354 18.8362M8.43691 11.6375L6.80038 14.113M8.43691 11.6375L12.4247 8.10546L12.6318 14.3719M8.43691 11.6375L3.01977 13.2222M8.43691 11.6375L12.2693 8.39548M6.80038 14.113L12.6318 14.3719M6.80038 14.113L9.16196 16.5057M6.80038 14.113L9.24482 18.8776M12.6318 14.3719L12.0829 17.3653M12.6318 14.3719L12.9218 16.2467L12.7665 20.8974M12.6318 14.3719L12.2693 8.39548M12.6318 14.3719L12.7561 16.2571L12.7665 20.8974M19.9652 11.6375L15.9256 8.03296L15.791 14.3719M19.9652 11.6375L21.6121 14.113M19.9652 11.6375L16.1328 8.39548M19.9652 11.6375L25.3823 13.2222M15.791 14.3719L21.6121 14.113M15.791 14.3719L16.3296 17.3653M15.791 14.3719L15.5113 16.2363L15.6356 20.8974M15.791 14.3719L16.1328 8.39548M15.791 14.3719L15.6563 16.2571L15.6356 20.8974M21.6121 14.113L19.2608 16.5056M21.6121 14.113L19.1573 18.8776M12.2693 21.2392L9.24482 18.8776M12.2693 21.2392L12.0104 23.5282M12.2693 21.2392L12.7665 20.8974M9.24482 18.8776L9.16196 16.5057M9.24482 18.8776L6.02354 18.8362M16.1328 21.2392L19.1573 18.8776M16.1328 21.2392L16.4124 23.5282M16.1328 21.2392L15.6356 20.8974M19.1573 18.8776L19.2608 16.5056M19.1573 18.8776L22.3889 18.8362M16.4124 23.5282L16.1535 23.3004H12.2486L12.0104 23.5282M12.0829 17.3653L11.2335 15.5631L9.16196 16.5057M12.0829 17.3653L12.7665 20.8974M12.0829 17.3653L11.2062 15.323L9.16196 16.5057M12.0829 17.3653L9.16196 16.5057M16.3296 17.3653L15.6356 20.8974M16.3296 17.3653L19.2608 16.5056M12.7665 20.8974H15.6356M16.3192 17.3653L17.1789 15.5631L19.2505 16.5057L16.3192 17.3653Z" stroke="#F6851B" stroke-linecap="round" stroke-linejoin="round"/>
</svg>
