<svg width="256" height="256" viewBox="0 0 256 256" fill="none" xmlns="http://www.w3.org/2000/svg">
<path fill-rule="evenodd" clip-rule="evenodd" d="M18.8719 194.93C20.9769 198.355 23.2387 201.674 25.6471 204.875L41.3708 195.797C38.897 192.641 36.592 189.345 34.4693 185.925L18.8719 194.93ZM224.936 75.9595C226.831 79.4833 228.54 83.1222 230.05 86.8632L245.775 77.7846C244.194 74.0815 242.443 70.4682 240.533 66.9543L224.936 75.9595ZM234.312 56.6897L218.68 65.7149C216.387 62.3832 213.915 59.1841 211.279 56.1316L227.109 46.9917C229.657 50.1055 232.062 53.3415 234.312 56.6897ZM28.7063 175.396L13.074 184.421C11.3029 180.821 9.69602 177.124 8.26315 173.343L24.096 164.202C25.4311 168.034 26.9723 171.77 28.7063 175.396ZM1.56467 107.928C2.41911 102.503 3.61437 97.1906 5.12784 92.0143L30.2446 77.5132C27.2607 83.2791 24.7719 89.3427 22.8346 95.6477L1.56467 107.928ZM46.2176 54.4348C61.5136 37.4412 82.0303 25.2401 105.242 20.3571L139.603 0.518788C135.781 0.175408 131.911 0 128 0C76.4741 0 32.0591 30.445 11.7626 74.3274L46.2176 54.4348ZM152.558 20.7517C146.268 19.3172 139.772 18.4219 133.122 18.1171L158.267 3.59946C163.6 4.89255 168.803 6.51972 173.852 8.45756L152.558 20.7517ZM107.832 254.42C114.402 255.46 121.138 256 128 256C182.58 256 229.181 221.839 247.589 173.732L218.522 190.513C200.253 216.918 170.729 234.941 136.885 237.646L107.832 254.42ZM229.585 170.269L252.721 156.912C253.877 151.905 254.739 146.786 255.289 141.574L235.092 153.234C233.713 159.108 231.864 164.8 229.585 170.269ZM113.837 237.097L90.6715 250.471C85.6737 248.95 80.8055 247.131 76.0876 245.035L96.3025 233.364C101.969 235.067 107.827 236.324 113.837 237.097ZM4.47535 161.673C3.38097 157.649 2.47797 153.546 1.77673 149.375L18.6102 139.656C19.0627 143.952 19.7625 148.174 20.695 152.309L4.47535 161.673ZM202.683 47.2378C199.548 44.3376 196.245 41.6176 192.788 39.0944L209.607 29.3838C212.841 32.0629 215.941 34.898 218.895 37.8776L202.683 47.2378ZM181.404 31.8105L199.137 21.5721C195.335 19.0256 191.389 16.6774 187.313 14.5424L168.2 25.5772C172.758 27.3674 177.167 29.453 181.404 31.8105ZM0.270447 136.388L18.0154 126.143C18.0971 121.207 18.5038 116.351 19.2152 111.594L0.110865 122.624C0.0371971 124.407 0 126.199 0 128C0 130.818 0.0910766 133.615 0.270447 136.388ZM52.1704 231.131C55.7681 233.781 59.5095 236.247 63.3807 238.515L81.8232 227.868C77.5471 225.887 73.4197 223.64 69.4622 221.148L52.1704 231.131ZM237.924 123.886C237.975 125.251 238 126.623 238 128C238 131.356 237.85 134.676 237.556 137.955L255.998 127.308C255.974 122.777 255.715 118.302 255.232 113.894L237.924 123.886ZM253.193 101.214L236.657 110.761C235.998 106.574 235.103 102.464 233.985 98.4477L250.012 89.1945C251.26 93.1223 252.324 97.1323 253.193 101.214ZM58.7539 213.474L42.2295 223.014C39.1527 220.235 36.2115 217.308 33.4171 214.246L49.4394 204.995C52.3791 207.994 55.4891 210.826 58.7539 213.474Z" fill="#B3BDC7"/>
<circle cx="128" cy="128" r="100" fill="white"/>
<path d="M128 228C183.23 228 228 183.23 228 128C228 72.77 183.23 28 128 28C72.77 28 28 72.77 28 128C28 183.23 72.77 228 128 228Z" fill="#272C33"/>
<path d="M148.275 120.611L161.46 98.24L196.996 153.59L197.013 164.211L196.897 91.1176C196.813 89.3309 195.864 87.6963 194.35 86.7325L130.371 49.9307C128.875 49.1953 126.977 49.2031 125.483 49.9535C125.281 50.0549 125.091 50.1647 124.91 50.2845L124.687 50.4249L62.5852 86.4127L62.344 86.5219C62.0342 86.6645 61.7211 86.8456 61.427 87.0562C60.2498 87.9008 59.4676 89.1493 59.2146 90.5499C59.1767 90.7622 59.1489 90.9783 59.1355 91.1962L59.233 150.761L92.3337 99.4562C96.5011 92.6531 105.581 90.4619 114.01 90.5811L123.903 90.8424L65.6138 184.322L72.4849 188.278L131.473 90.9371L157.545 90.8424L98.7095 190.639L123.228 204.741L126.157 206.426C127.396 206.93 128.857 206.955 130.107 206.504L194.985 168.906L182.581 176.094L148.275 120.611ZM153.305 193.06L128.542 154.193L143.658 128.542L176.181 179.803L153.305 193.06Z" fill="#2D374B"/>
<path d="M128.542 154.193L153.305 193.06L176.181 179.803L143.659 128.542L128.542 154.193Z" fill="#28A0F0"/>
<path d="M197.013 164.211L196.996 153.59L161.46 98.24L148.275 120.611L182.581 176.094L194.985 168.906C196.202 167.919 196.938 166.468 197.015 164.903L197.013 164.211Z" fill="#28A0F0"/>
<path d="M48.0971 174.229L65.6133 184.322L123.902 90.8424L114.009 90.5811C105.581 90.4619 96.5011 92.6531 92.3332 99.4562L59.2325 150.761L48.0966 167.871V174.229H48.0971Z" fill="white"/>
<path d="M157.545 90.8424L131.473 90.9371L72.4849 188.278L93.1026 200.149L98.7096 190.639L157.545 90.8424Z" fill="white"/>
<path d="M208 90.7081C207.782 85.2555 204.83 80.2636 200.205 77.3576L135.388 40.0829C130.813 37.7791 125.098 37.7764 120.516 40.0812C119.975 40.3542 57.482 76.5977 57.482 76.5977C56.6173 77.0122 55.7844 77.5064 55.0005 78.0669C50.8722 81.0258 48.3556 85.6232 48.0971 90.6747V167.871L59.233 150.761L59.1355 91.1967C59.1489 90.9789 59.1762 90.765 59.2146 90.5532C59.4659 89.1515 60.2487 87.9013 61.427 87.0567C61.7212 86.8461 125.281 50.0555 125.483 49.9541C126.977 49.2036 128.875 49.1958 130.371 49.9313L194.35 86.733C195.864 87.6968 196.813 89.3315 196.897 91.1182V164.904C196.82 166.469 196.201 167.919 194.984 168.907L182.58 176.094L176.181 179.803L153.305 193.06L130.106 206.505C128.856 206.956 127.396 206.931 126.157 206.427L98.709 190.64L93.102 200.149L117.768 214.351C118.584 214.814 119.311 215.226 119.907 215.561C120.831 216.079 121.46 216.425 121.682 216.533C123.436 217.384 125.958 217.88 128.231 217.88C130.315 217.88 132.347 217.497 134.27 216.744L201.652 177.721C205.52 174.724 207.795 170.206 208 165.31V90.7081Z" fill="#96BEDC"/>
</svg>
