<svg width="257" height="256" viewBox="0 0 257 256" fill="none" xmlns="http://www.w3.org/2000/svg">
<path fill-rule="evenodd" clip-rule="evenodd" d="M19.8699 194.93C21.975 198.355 24.2367 201.674 26.6452 204.875L42.3689 195.797C39.8951 192.641 37.59 189.345 35.4674 185.925L19.8699 194.93ZM225.934 75.9595C227.829 79.4833 229.538 83.1222 231.048 86.8632L246.773 77.7846C245.192 74.0815 243.441 70.4682 241.531 66.9543L225.934 75.9595ZM235.31 56.6897L219.678 65.7149C217.385 62.3832 214.913 59.1841 212.277 56.1316L228.107 46.9917C230.655 50.1055 233.06 53.3415 235.31 56.6897ZM29.7044 175.396L14.0721 184.421C12.301 180.821 10.6941 177.124 9.2612 173.343L25.094 164.202C26.4292 168.034 27.9704 171.77 29.7044 175.396ZM2.56271 107.928C3.41716 102.503 4.61242 97.1906 6.12589 92.0143L31.2426 77.5132C28.2587 83.2791 25.77 89.3427 23.8326 95.6477L2.56271 107.928ZM47.2156 54.4348C62.5117 37.4412 83.0283 25.2401 106.24 20.3571L140.601 0.518788C136.779 0.175408 132.909 0 128.998 0C77.4722 0 33.0572 30.445 12.7606 74.3274L47.2156 54.4348ZM153.556 20.7517C147.266 19.3172 140.77 18.4219 134.12 18.1171L159.265 3.59946C164.598 4.89255 169.801 6.51972 174.85 8.45756L153.556 20.7517ZM108.83 254.42C115.4 255.46 122.136 256 128.998 256C183.578 256 230.179 221.839 248.587 173.732L219.52 190.513C201.251 216.918 171.727 234.941 137.883 237.646L108.83 254.42ZM230.584 170.269L253.719 156.912C254.875 151.905 255.737 146.786 256.287 141.574L236.09 153.234C234.711 159.108 232.862 164.8 230.584 170.269ZM114.835 237.097L91.6696 250.471C86.6717 248.95 81.8035 247.131 77.0856 245.035L97.3005 233.364C102.967 235.067 108.825 236.324 114.835 237.097ZM5.4734 161.673C4.37901 157.649 3.47601 153.546 2.77478 149.375L19.6083 139.656C20.0607 143.952 20.7605 148.174 21.6931 152.309L5.4734 161.673ZM203.681 47.2378C200.546 44.3376 197.243 41.6176 193.786 39.0944L210.605 29.3838C213.839 32.0629 216.939 34.898 219.893 37.8776L203.681 47.2378ZM182.402 31.8105L200.135 21.5721C196.333 19.0256 192.387 16.6774 188.311 14.5424L169.198 25.5772C173.756 27.3674 178.165 29.453 182.402 31.8105ZM1.26849 136.388L19.0134 126.143C19.0951 121.207 19.5019 116.351 20.2132 111.594L1.10891 122.624C1.03524 124.407 0.998047 126.199 0.998047 128C0.998047 130.818 1.08912 133.615 1.26849 136.388ZM53.1685 231.131C56.7662 233.781 60.5076 236.247 64.3788 238.515L82.8213 227.868C78.5452 225.887 74.4177 223.64 70.4603 221.148L53.1685 231.131ZM238.923 123.886C238.973 125.251 238.998 126.623 238.998 128C238.998 131.356 238.848 134.676 238.554 137.955L256.996 127.308C256.972 122.777 256.713 118.302 256.23 113.894L238.923 123.886ZM254.191 101.214L237.655 110.761C236.996 106.574 236.101 102.464 234.983 98.4477L251.01 89.1945C252.258 93.1223 253.322 97.1323 254.191 101.214ZM59.7519 213.474L43.2276 223.014C40.1507 220.235 37.2096 217.308 34.4152 214.246L50.4375 204.995C53.3771 207.994 56.4872 210.826 59.7519 213.474Z" fill="#B3BDC7"/>
<path d="M128.998 228C184.415 228 228.998 183.417 228.998 128C228.998 72.583 184.415 28 128.998 28C73.5811 28 28.998 72.583 28.998 128C28.998 183.417 73.5811 228 128.998 228Z" fill="#2775CA"/>
<path d="M156.498 143.833C156.498 129.25 147.748 124.25 130.248 122.167C117.748 120.5 115.248 117.167 115.248 111.333C115.248 105.499 119.415 101.75 127.748 101.75C135.248 101.75 139.415 104.25 141.498 110.5C141.915 111.75 143.165 112.583 144.415 112.583H151.081C152.748 112.583 153.998 111.333 153.998 109.667V109.25C152.331 100.083 144.831 93 135.248 92.167V82.167C135.248 80.5 133.998 79.25 131.915 78.833H125.665C123.998 78.833 122.748 80.083 122.331 82.167V91.75C109.831 93.417 101.915 101.75 101.915 112.167C101.915 125.917 110.248 131.333 127.748 133.417C139.415 135.5 143.165 138 143.165 144.667C143.165 151.334 137.331 155.917 129.415 155.917C118.581 155.917 114.831 151.333 113.581 145.083C113.165 143.417 111.915 142.583 110.665 142.583H103.581C101.915 142.583 100.665 143.833 100.665 145.5V145.917C102.331 156.333 108.998 163.833 122.748 165.917V175.917C122.748 177.583 123.998 178.833 126.081 179.25H132.331C133.998 179.25 135.248 178 135.665 175.917V165.917C148.165 163.833 156.498 155.083 156.498 143.833Z" fill="white"/>
<path d="M107.748 187.583C75.2481 175.917 58.5811 139.667 70.6651 107.583C76.9151 90.083 90.6651 76.75 107.748 70.5C109.415 69.667 110.248 68.417 110.248 66.333V60.5C110.248 58.833 109.415 57.583 107.748 57.167C107.331 57.167 106.498 57.167 106.081 57.583C66.4981 70.083 44.8311 112.167 57.3311 151.75C64.8311 175.083 82.7481 193 106.081 200.5C107.748 201.333 109.415 200.5 109.831 198.833C110.248 198.417 110.248 198 110.248 197.167V191.333C110.248 190.083 108.998 188.417 107.748 187.583ZM151.915 57.583C150.248 56.75 148.581 57.583 148.165 59.25C147.748 59.667 147.748 60.083 147.748 60.917V66.75C147.748 68.417 148.998 70.083 150.248 70.917C182.748 82.583 199.415 118.833 187.331 150.917C181.081 168.417 167.331 181.75 150.248 188C148.581 188.833 147.748 190.083 147.748 192.167V198C147.748 199.667 148.581 200.917 150.248 201.333C150.665 201.333 151.498 201.333 151.915 200.917C191.498 188.417 213.165 146.333 200.665 106.75C193.165 83 174.831 65.083 151.915 57.583Z" fill="white"/>
<path d="M128.998 227.68C184.227 227.68 228.998 182.908 228.998 127.68C228.998 72.4515 184.227 27.6799 128.998 27.6799C73.7696 27.6799 28.998 72.4515 28.998 127.68C28.998 182.908 73.7696 227.68 128.998 227.68Z" fill="#2D598A"/>
<path d="M121.122 150.799H162.297V168.011H99.0723V89.2612H160.835V106.474H121.122V119.749H156.11V136.399H121.122V150.799Z" fill="white"/>
</svg>
