<svg width="256" height="256" viewBox="0 0 256 256" fill="none" xmlns="http://www.w3.org/2000/svg">
<g>
<path fill-rule="evenodd" clip-rule="evenodd" d="M18.8719 194.93C20.9769 198.355 23.2387 201.674 25.6471 204.875L41.3708 195.797C38.897 192.641 36.592 189.345 34.4693 185.925L18.8719 194.93ZM224.936 75.9595C226.831 79.4833 228.54 83.1222 230.05 86.8632L245.775 77.7846C244.194 74.0815 242.443 70.4682 240.533 66.9543L224.936 75.9595ZM234.312 56.6897L218.68 65.7149C216.387 62.3832 213.915 59.1841 211.279 56.1316L227.109 46.9917C229.657 50.1055 232.062 53.3415 234.312 56.6897ZM28.7063 175.396L13.074 184.421C11.3029 180.821 9.69602 177.124 8.26315 173.343L24.096 164.202C25.4311 168.034 26.9723 171.77 28.7063 175.396ZM1.56467 107.928C2.41911 102.503 3.61437 97.1906 5.12784 92.0143L30.2446 77.5132C27.2607 83.2791 24.7719 89.3427 22.8346 95.6477L1.56467 107.928ZM46.2176 54.4348C61.5136 37.4412 82.0303 25.2401 105.242 20.3571L139.603 0.518788C135.781 0.175408 131.911 0 128 0C76.4741 0 32.0591 30.445 11.7626 74.3274L46.2176 54.4348ZM152.558 20.7517C146.268 19.3172 139.772 18.4219 133.122 18.1171L158.267 3.59946C163.6 4.89255 168.803 6.51972 173.852 8.45756L152.558 20.7517ZM107.832 254.42C114.402 255.46 121.138 256 128 256C182.58 256 229.181 221.839 247.589 173.732L218.522 190.513C200.253 216.918 170.729 234.941 136.885 237.646L107.832 254.42ZM229.585 170.269L252.721 156.912C253.877 151.905 254.739 146.786 255.289 141.574L235.092 153.234C233.713 159.108 231.864 164.8 229.585 170.269ZM113.837 237.097L90.6715 250.471C85.6737 248.95 80.8055 247.131 76.0876 245.035L96.3025 233.364C101.969 235.067 107.827 236.324 113.837 237.097ZM4.47535 161.673C3.38097 157.649 2.47797 153.546 1.77673 149.375L18.6102 139.656C19.0627 143.952 19.7625 148.174 20.695 152.309L4.47535 161.673ZM202.683 47.2378C199.548 44.3376 196.245 41.6176 192.788 39.0944L209.607 29.3838C212.841 32.0629 215.941 34.898 218.895 37.8776L202.683 47.2378ZM181.404 31.8105L199.137 21.5721C195.335 19.0256 191.389 16.6774 187.313 14.5424L168.2 25.5772C172.758 27.3674 177.167 29.453 181.404 31.8105ZM0.270447 136.388L18.0154 126.143C18.0971 121.207 18.5038 116.351 19.2152 111.594L0.110865 122.624C0.0371971 124.407 0 126.199 0 128C0 130.818 0.0910766 133.615 0.270447 136.388ZM52.1704 231.131C55.7681 233.781 59.5095 236.247 63.3807 238.515L81.8232 227.868C77.5471 225.887 73.4197 223.64 69.4622 221.148L52.1704 231.131ZM237.924 123.886C237.975 125.251 238 126.623 238 128C238 131.356 237.85 134.676 237.556 137.955L255.998 127.308C255.974 122.777 255.715 118.302 255.232 113.894L237.924 123.886ZM253.193 101.214L236.657 110.761C235.998 106.574 235.103 102.464 233.985 98.4477L250.012 89.1945C251.26 93.1223 252.324 97.1323 253.193 101.214ZM58.7539 213.474L42.2295 223.014C39.1527 220.235 36.2115 217.308 33.4171 214.246L49.4394 204.995C52.3791 207.994 55.4891 210.826 58.7539 213.474Z" fill="#B3BDC7"/>
<path d="M128 228C183.417 228 228 183.417 228 128C228 72.583 183.417 28 128 28C72.583 28 28 72.583 28 128C28 183.417 72.583 228 128 228Z" fill="#2775CA"/>
<path d="M155.5 143.833C155.5 129.25 146.75 124.25 129.25 122.167C116.75 120.5 114.25 117.167 114.25 111.333C114.25 105.499 118.417 101.75 126.75 101.75C134.25 101.75 138.417 104.25 140.5 110.5C140.917 111.75 142.167 112.583 143.417 112.583H150.083C151.75 112.583 153 111.333 153 109.667V109.25C151.333 100.083 143.833 93 134.25 92.167V82.167C134.25 80.5 133 79.25 130.917 78.833H124.667C123 78.833 121.75 80.083 121.333 82.167V91.75C108.833 93.417 100.917 101.75 100.917 112.167C100.917 125.917 109.25 131.333 126.75 133.417C138.417 135.5 142.167 138 142.167 144.667C142.167 151.334 136.333 155.917 128.417 155.917C117.583 155.917 113.833 151.333 112.583 145.083C112.167 143.417 110.917 142.583 109.667 142.583H102.583C100.917 142.583 99.667 143.833 99.667 145.5V145.917C101.333 156.333 108 163.833 121.75 165.917V175.917C121.75 177.583 123 178.833 125.083 179.25H131.333C133 179.25 134.25 178 134.667 175.917V165.917C147.167 163.833 155.5 155.083 155.5 143.833Z" fill="white"/>
<path d="M106.75 187.583C74.2501 175.917 57.5831 139.667 69.6671 107.583C75.9171 90.083 89.6671 76.75 106.75 70.5C108.417 69.667 109.25 68.417 109.25 66.333V60.5C109.25 58.833 108.417 57.583 106.75 57.167C106.333 57.167 105.5 57.167 105.083 57.583C65.5001 70.083 43.8331 112.167 56.3331 151.75C63.8331 175.083 81.7501 193 105.083 200.5C106.75 201.333 108.417 200.5 108.833 198.833C109.25 198.417 109.25 198 109.25 197.167V191.333C109.25 190.083 108 188.417 106.75 187.583ZM150.917 57.583C149.25 56.75 147.583 57.583 147.167 59.25C146.75 59.667 146.75 60.083 146.75 60.917V66.75C146.75 68.417 148 70.083 149.25 70.917C181.75 82.583 198.417 118.833 186.333 150.917C180.083 168.417 166.333 181.75 149.25 188C147.583 188.833 146.75 190.083 146.75 192.167V198C146.75 199.667 147.583 200.917 149.25 201.333C149.667 201.333 150.5 201.333 150.917 200.917C190.5 188.417 212.167 146.333 199.667 106.75C192.167 83 173.833 65.083 150.917 57.583Z" fill="white"/>
<path d="M228 128C228 183.229 183.229 228 128 228C72.7714 228 28 183.229 28 128C28 72.7714 72.7714 28 128 28C183.229 28 228 72.7714 228 128Z" fill="#FEA200"/>
<path d="M77.8818 92.5129H95.7977V100.501H77.8818V92.5129ZM77.8818 108.49H95.7977V164.408H77.8818V108.49Z" fill="black"/>
<path d="M72.6587 92.5129H86.7563V100.501H72.6587V92.5129ZM72.6587 108.49H86.7563V164.408H72.6587V108.49Z" fill="white"/>
<path d="M168.231 97.8787V89.4622H159.896H158.723H153.16V74.9253H143.507V89.4622H141.972H133.637H133.636V74.9253H123.982V89.4604H107.865V98.2063H116.886V106.213V114.63V122.965V131.299V139.716V148.051V156.386V164.388H107.865V173.134H116.886V173.137H123.983V185.376H133.636V173.137H133.637H141.972H150.389H158.723H159.896H176.511V164.802H184.039V156.386V148.051V139.716V131.299H168.231V122.965H176.566V114.63V106.213V97.8787H168.231ZM133.637 114.63V106.213H141.972H150.389H153.526H154.698V114.63V122.965H153.526H150.389H141.972H133.637V114.63ZM159.896 148.051V156.386H158.723H150.389H141.972H133.637V148.051V139.716H141.972H150.389H158.723H159.896V148.051Z" fill="black"/>
<path d="M143.507 173.137V185.376H153.16V173.137H150.389H143.507Z" fill="black"/>
<path d="M159.896 97.8787V89.4622H151.561H150.389H144.826V74.9253H135.172V89.4622H133.637H125.302H125.301V74.9253H115.648V89.4604H99.5298V98.2063H108.551V106.213V114.63V122.965V131.299V139.716V148.051V156.386V164.388H99.5298V173.134H108.551V173.137H115.648V185.376H125.302V173.137H125.303H133.637H142.054H150.389H151.561H168.177V164.802H175.704V156.386V148.051V139.716V131.299H159.896V122.965H168.231V114.63V106.213V97.8787H159.896ZM125.303 114.63V106.213H133.637H142.054H145.191H146.363V114.63V122.965H145.191H142.054H133.637H125.303V114.63ZM151.561 148.051V156.386H150.389H142.054H133.637H125.303V148.051V139.716H133.637H142.054H150.389H151.561V148.051Z" fill="white"/>
<path d="M135.172 173.137V185.376H144.826V173.137H142.054H135.172Z" fill="white"/>
</g>
</svg>
