<svg width="256" height="256" viewBox="0 0 256 256" fill="none" xmlns="http://www.w3.org/2000/svg">
<path fill-rule="evenodd" clip-rule="evenodd" d="M18.8719 194.93C20.9769 198.355 23.2387 201.674 25.6471 204.875L41.3708 195.797C38.897 192.641 36.592 189.345 34.4693 185.925L18.8719 194.93ZM224.936 75.9595C226.831 79.4833 228.54 83.1222 230.05 86.8632L245.775 77.7846C244.194 74.0815 242.443 70.4682 240.533 66.9543L224.936 75.9595ZM234.312 56.6897L218.68 65.7149C216.387 62.3832 213.915 59.1841 211.279 56.1316L227.109 46.9917C229.657 50.1055 232.062 53.3415 234.312 56.6897ZM28.7063 175.396L13.074 184.421C11.3029 180.821 9.69602 177.124 8.26315 173.343L24.096 164.202C25.4311 168.034 26.9723 171.77 28.7063 175.396ZM1.56467 107.928C2.41911 102.503 3.61437 97.1906 5.12784 92.0143L30.2446 77.5132C27.2607 83.2791 24.7719 89.3427 22.8346 95.6477L1.56467 107.928ZM46.2176 54.4348C61.5136 37.4412 82.0303 25.2401 105.242 20.3571L139.603 0.518788C135.781 0.175408 131.911 0 128 0C76.4741 0 32.0591 30.445 11.7626 74.3274L46.2176 54.4348ZM152.558 20.7517C146.268 19.3172 139.772 18.4219 133.122 18.1171L158.267 3.59946C163.6 4.89255 168.803 6.51972 173.852 8.45756L152.558 20.7517ZM107.832 254.42C114.402 255.46 121.138 256 128 256C182.58 256 229.181 221.839 247.589 173.732L218.522 190.513C200.253 216.918 170.729 234.941 136.885 237.646L107.832 254.42ZM229.585 170.269L252.721 156.912C253.877 151.905 254.739 146.786 255.289 141.574L235.092 153.234C233.713 159.108 231.864 164.8 229.585 170.269ZM113.837 237.097L90.6715 250.471C85.6737 248.95 80.8055 247.131 76.0876 245.035L96.3025 233.364C101.969 235.067 107.827 236.324 113.837 237.097ZM4.47535 161.673C3.38097 157.649 2.47797 153.546 1.77673 149.375L18.6102 139.656C19.0627 143.952 19.7625 148.174 20.695 152.309L4.47535 161.673ZM202.683 47.2378C199.548 44.3376 196.245 41.6176 192.788 39.0944L209.607 29.3838C212.841 32.0629 215.941 34.898 218.895 37.8776L202.683 47.2378ZM181.404 31.8105L199.137 21.5721C195.335 19.0256 191.389 16.6774 187.313 14.5424L168.2 25.5772C172.758 27.3674 177.167 29.453 181.404 31.8105ZM0.270447 136.388L18.0154 126.143C18.0971 121.207 18.5038 116.351 19.2152 111.594L0.110865 122.624C0.0371971 124.407 0 126.199 0 128C0 130.818 0.0910766 133.615 0.270447 136.388ZM52.1704 231.131C55.7681 233.781 59.5095 236.247 63.3807 238.515L81.8232 227.868C77.5471 225.887 73.4197 223.64 69.4622 221.148L52.1704 231.131ZM237.924 123.886C237.975 125.251 238 126.623 238 128C238 131.356 237.85 134.676 237.556 137.955L255.998 127.308C255.974 122.777 255.715 118.302 255.232 113.894L237.924 123.886ZM253.193 101.214L236.657 110.761C235.998 106.574 235.103 102.464 233.985 98.4477L250.012 89.1945C251.26 93.1223 252.324 97.1323 253.193 101.214ZM58.7539 213.474L42.2295 223.014C39.1527 220.235 36.2115 217.308 33.4171 214.246L49.4394 204.995C52.3791 207.994 55.4891 210.826 58.7539 213.474Z" fill="#B3BDC7"/>
<path d="M128 228C183.23 228 228 183.23 228 128C228 72.77 183.23 28 128 28C72.77 28 28 72.77 28 128C28 183.23 72.77 228 128 228Z" fill="#FF0420"/>
<path d="M98.8532 155.578C92.8988 155.578 88.0204 154.177 84.2176 151.375C80.4648 148.523 78.5884 144.47 78.5884 139.216C78.5884 138.116 78.7136 136.764 78.9636 135.163C79.6144 131.561 80.54 127.232 81.7408 122.179C85.1432 108.419 93.9248 101.539 108.085 101.539C111.938 101.539 115.39 102.189 118.443 103.49C121.495 104.741 123.897 106.642 125.648 109.194C127.399 111.696 128.275 114.698 128.275 118.201C128.275 119.252 128.15 120.578 127.9 122.179C127.149 126.632 126.248 130.96 125.198 135.163C123.446 142.018 120.419 147.147 116.116 150.55C111.813 153.902 106.059 155.578 98.8532 155.578ZM99.904 144.77C102.706 144.77 105.083 143.945 107.034 142.294C109.036 140.642 110.462 138.116 111.312 134.713C112.463 130.01 113.339 125.906 113.94 122.404C114.14 121.353 114.24 120.278 114.24 119.176C114.24 114.623 111.863 112.346 107.11 112.346C104.307 112.346 101.906 113.172 99.904 114.823C97.9528 116.475 96.5516 119.002 95.7012 122.404C94.8004 125.756 93.8996 129.86 92.9992 134.713C92.7988 135.714 92.6988 136.764 92.6988 137.865C92.6988 142.469 95.1008 144.77 99.904 144.77Z" fill="white"/>
<path d="M131.721 154.828C131.171 154.828 130.745 154.653 130.445 154.302C130.195 153.902 130.12 153.452 130.22 152.952L140.578 104.166C140.678 103.615 140.953 103.165 141.403 102.814C141.854 102.464 142.329 102.289 142.829 102.289H162.794C168.348 102.289 172.801 103.44 176.154 105.742C179.556 108.044 181.258 111.371 181.258 115.724C181.258 116.975 181.108 118.276 180.807 119.627C179.556 125.381 177.03 129.634 173.227 132.386C169.474 135.138 164.32 136.514 157.765 136.514H147.633L144.18 152.952C144.08 153.502 143.805 153.952 143.355 154.302C142.904 154.653 142.429 154.828 141.929 154.828H131.721ZM158.291 126.157C160.392 126.157 162.218 125.581 163.77 124.43C165.371 123.28 166.422 121.628 166.922 119.477C167.072 118.626 167.147 117.876 167.147 117.225C167.147 115.774 166.722 114.673 165.871 113.923C165.02 113.122 163.57 112.722 161.518 112.722H152.511L149.659 126.157H158.291Z" fill="white"/>
</svg>
