<svg width="256" height="256" viewBox="0 0 256 256" fill="none" xmlns="http://www.w3.org/2000/svg">
<path fill-rule="evenodd" clip-rule="evenodd" d="M18.8719 194.93C20.9769 198.355 23.2387 201.674 25.6471 204.875L41.3708 195.797C38.897 192.641 36.592 189.345 34.4693 185.925L18.8719 194.93ZM224.936 75.9595C226.831 79.4833 228.54 83.1222 230.05 86.8632L245.775 77.7846C244.194 74.0815 242.443 70.4682 240.533 66.9543L224.936 75.9595ZM234.312 56.6897L218.68 65.7149C216.387 62.3832 213.915 59.1841 211.279 56.1316L227.109 46.9917C229.657 50.1055 232.062 53.3415 234.312 56.6897ZM28.7063 175.396L13.074 184.421C11.3029 180.821 9.69602 177.124 8.26315 173.343L24.096 164.202C25.4311 168.034 26.9723 171.77 28.7063 175.396ZM1.56467 107.928C2.41911 102.503 3.61437 97.1906 5.12784 92.0143L30.2446 77.5132C27.2607 83.2791 24.7719 89.3427 22.8346 95.6477L1.56467 107.928ZM46.2176 54.4348C61.5136 37.4412 82.0303 25.2401 105.242 20.3571L139.603 0.518788C135.781 0.175408 131.911 0 128 0C76.4741 0 32.0591 30.445 11.7626 74.3274L46.2176 54.4348ZM152.558 20.7517C146.268 19.3172 139.772 18.4219 133.122 18.1171L158.267 3.59946C163.6 4.89255 168.803 6.51972 173.852 8.45756L152.558 20.7517ZM107.832 254.42C114.402 255.46 121.138 256 128 256C182.58 256 229.181 221.839 247.589 173.732L218.522 190.513C200.253 216.918 170.729 234.941 136.885 237.646L107.832 254.42ZM229.585 170.269L252.721 156.912C253.877 151.905 254.739 146.786 255.289 141.574L235.092 153.234C233.713 159.108 231.864 164.8 229.585 170.269ZM113.837 237.097L90.6715 250.471C85.6737 248.95 80.8055 247.131 76.0876 245.035L96.3025 233.364C101.969 235.067 107.827 236.324 113.837 237.097ZM4.47535 161.673C3.38097 157.649 2.47797 153.546 1.77673 149.375L18.6102 139.656C19.0627 143.952 19.7625 148.174 20.695 152.309L4.47535 161.673ZM202.683 47.2378C199.548 44.3376 196.245 41.6176 192.788 39.0944L209.607 29.3838C212.841 32.0629 215.941 34.898 218.895 37.8776L202.683 47.2378ZM181.404 31.8105L199.137 21.5721C195.335 19.0256 191.389 16.6774 187.313 14.5424L168.2 25.5772C172.758 27.3674 177.167 29.453 181.404 31.8105ZM0.270447 136.388L18.0154 126.143C18.0971 121.207 18.5038 116.351 19.2152 111.594L0.110865 122.624C0.0371971 124.407 0 126.199 0 128C0 130.818 0.0910766 133.615 0.270447 136.388ZM52.1704 231.131C55.7681 233.781 59.5095 236.247 63.3807 238.515L81.8232 227.868C77.5471 225.887 73.4197 223.64 69.4622 221.148L52.1704 231.131ZM237.924 123.886C237.975 125.251 238 126.623 238 128C238 131.356 237.85 134.676 237.556 137.955L255.998 127.308C255.974 122.777 255.715 118.302 255.232 113.894L237.924 123.886ZM253.193 101.214L236.657 110.761C235.998 106.574 235.103 102.464 233.985 98.4477L250.012 89.1945C251.26 93.1223 252.324 97.1323 253.193 101.214ZM58.7539 213.474L42.2295 223.014C39.1527 220.235 36.2115 217.308 33.4171 214.246L49.4394 204.995C52.3791 207.994 55.4891 210.826 58.7539 213.474Z" fill="#B3BDC7"/>
<circle cx="128" cy="128" r="100" fill="white"/>
<path d="M128 228C183.23 228 228 183.23 228 128C228 72.77 183.23 28 128 28C72.77 28 28 72.77 28 128C28 183.23 72.77 228 128 228Z" fill="#272C33"/>
<g clip-path="url(#clip0_502_42)">
<path d="M79.672 82.327L91.327 75.635L92.895 78.33L135.868 53.55L132.725 51.744L129.568 49.903L128 49L58 89.439V91.245L78.097 79.618L79.672 82.327Z" fill="white"/>
<path d="M79.672 107.786L113.349 88.326L114.924 91.063L157.89 66.269L154.747 64.435L151.597 62.629L150.022 61.74L58 114.87V116.676L78.097 105.049L79.672 107.786Z" fill="white"/>
<path d="M79.672 120.512L124.36 94.7101L125.942 97.4191L168.894 72.597L165.758 70.819L162.615 68.978L161.033 68.075L58 127.561V129.395L78.097 117.789L79.672 120.512Z" fill="white"/>
<path d="M79.672 133.217L135.686 100.884L137.275 103.593L179.912 78.981L176.776 77.14L173.619 75.334L172.051 74.431L58 140.301V142.107L78.097 130.48L79.672 133.217Z" fill="white"/>
<path d="M79.672 145.915L146.704 107.226L148.279 109.963L190.923 85.3161L187.78 83.5241L184.637 81.69L183.055 80.787L58 152.992V154.798L78.097 143.199L79.672 145.915Z" fill="white"/>
<path d="M195.648 88.06L194.073 87.143L58 165.732V167.538L78.097 155.939L79.672 158.648L146.704 119.966L148.279 122.675L198 93.982V90.342V89.439L195.648 88.06Z" fill="white"/>
<path d="M66.617 175.252L77.894 168.749L79.462 171.465L146.382 132.832L147.95 135.576L198 106.673V103.033V99.3861V97.58L65.077 174.349L66.617 175.252Z" fill="white"/>
<path d="M146.382 145.572L147.95 148.316L198 119.413V115.773V112.126V110.32L76.088 180.705L77.67 181.608L89.108 174.986L90.69 177.73" fill="white"/>
<path d="M88.674 187.978L100.126 181.342L101.694 184.079L146.382 158.263L147.95 161.007L198 132.111V128.464V124.852V123.025L87.078 187.047L88.674 187.978Z" fill="white"/>
<path d="M99.678 194.334L111.13 187.726L112.712 190.435L146.382 171.003L147.95 173.712L198 144.816V141.204V137.557V135.751L98.11 193.431L99.678 194.334Z" fill="white"/>
<path d="M109.128 199.78L110.703 200.683L122.176 194.068L123.723 196.805L146.382 183.701L147.95 186.438L198 157.542V153.895V150.255V148.442L109.128 199.78Z" fill="white"/>
<path d="M121.707 207.067L133.152 200.417L134.727 203.161L146.382 196.406L147.95 199.143L198 170.275V166.635V162.988V161.182L120.132 206.164L121.707 207.067Z" fill="white"/>
<path d="M146.886 59.899L143.729 58.093L140.593 56.287L139.018 55.356L58 102.13V103.936L78.097 92.3511L79.672 95.0461L102.331 81.97L103.948 84.7141L146.886 59.899Z" fill="white"/>
</g>
<defs>
<clipPath id="clip0_502_42">
<rect width="140" height="158.067" fill="white" transform="translate(58 49)"/>
</clipPath>
</defs>
</svg>
