<svg width="257" height="257" viewBox="0 0 257 257" fill="none" xmlns="http://www.w3.org/2000/svg">
<path fill-rule="evenodd" clip-rule="evenodd" d="M19.6922 195.088C21.7972 198.513 24.059 201.831 26.4674 205.032L42.1911 195.954C39.7173 192.798 37.4123 189.503 35.2896 186.082L19.6922 195.088ZM225.756 76.1168C227.652 79.6405 229.361 83.2794 230.87 87.0204L246.595 77.9418C245.014 74.2388 243.264 70.6254 241.353 67.1116L225.756 76.1168ZM235.132 56.8469L219.5 65.8721C217.207 62.5404 214.736 59.3414 212.099 56.2888L227.93 47.149C230.478 50.2627 232.882 53.4987 235.132 56.8469ZM29.5266 175.553L13.8944 184.579C12.1232 180.978 10.5163 177.282 9.08346 173.5L24.9163 164.359C26.2514 168.191 27.7927 171.927 29.5266 175.553ZM2.38498 108.085C3.23943 102.66 4.43469 97.3478 5.94815 92.1716L31.0649 77.6704C28.081 83.4363 25.5922 89.4999 23.6549 95.805L2.38498 108.085ZM47.0379 54.592C62.334 37.5984 82.8506 25.3973 106.062 20.5143L140.423 0.676014C136.601 0.332635 132.731 0.157227 128.82 0.157227C77.2945 0.157227 32.8794 30.6022 12.5829 74.4846L47.0379 54.592ZM153.379 20.9089C147.088 19.4744 140.592 18.5791 133.942 18.2743L159.087 3.75668C164.421 5.04978 169.624 6.67695 174.673 8.61479L153.379 20.9089ZM108.652 254.577C115.222 255.617 121.958 256.157 128.82 256.157C183.4 256.157 230.001 221.996 248.409 173.889L219.343 190.67C201.074 217.075 171.549 235.098 137.706 237.804L108.652 254.577ZM230.406 170.427L253.541 157.069C254.697 152.062 255.56 146.943 256.109 141.731L235.912 153.391C234.534 159.265 232.684 164.958 230.406 170.427ZM114.658 237.254L91.4918 250.629C86.494 249.107 81.6258 247.288 76.9079 245.193L97.1228 233.522C102.789 235.224 108.647 236.481 114.658 237.254ZM5.29567 161.83C4.20128 157.806 3.29828 153.703 2.59704 149.532L19.4305 139.813C19.883 144.109 20.5828 148.332 21.5153 152.466L5.29567 161.83ZM203.503 47.395C200.369 44.4948 197.065 41.7749 193.608 39.2516L210.427 29.541C213.661 32.2201 216.761 35.0553 219.716 38.0349L203.503 47.395ZM182.224 31.9677L199.958 21.7293C196.155 19.1828 192.209 16.8346 188.133 14.6996L169.021 25.7345C173.578 27.5247 177.987 29.6103 182.224 31.9677ZM1.09076 136.545L18.8357 126.3C18.9174 121.365 19.3241 116.508 20.0355 111.751L0.931177 122.781C0.85751 124.564 0.820312 126.356 0.820312 128.157C0.820312 130.975 0.911389 133.772 1.09076 136.545ZM52.9907 231.288C56.5885 233.938 60.3298 236.404 64.201 238.673L82.6435 228.025C78.3674 226.044 74.24 223.797 70.2825 221.305L52.9907 231.288ZM238.745 124.043C238.795 125.408 238.82 126.78 238.82 128.157C238.82 131.513 238.67 134.833 238.376 138.113L256.818 127.465C256.794 122.934 256.535 118.459 256.052 114.051L238.745 124.043ZM254.013 101.372L237.477 110.919C236.818 106.731 235.923 102.622 234.805 98.6049L250.832 89.3517C252.08 93.2795 253.144 97.2895 254.013 101.372ZM59.5742 213.631L43.0498 223.171C39.973 220.392 37.0318 217.466 34.2374 214.403L50.2597 205.152C53.1994 208.151 56.3094 210.983 59.5742 213.631Z" fill="#B3BDC7"/>
<path d="M114.423 181.89C119.909 202.157 139.552 217.629 149.472 216.972C149.801 216.972 187.083 210.008 207.482 175.912C223.381 149.37 217.961 123.749 196.346 123.354C188.594 123.781 103.977 143.49 114.423 181.89Z" fill="#0E3CA5"/>
<path d="M194.374 51.811C180.772 40.2307 164.174 32.7321 146.493 30.1806C128.812 27.6291 110.771 30.1286 94.4498 37.3906C92.3896 38.2568 90.3823 39.244 88.4386 40.347C87.1246 41.0368 85.7778 41.7594 84.4968 42.5149H84.7924C81.037 45.1384 77.7124 48.33 74.9379 51.9752C47.7396 88.1083 138.926 114.058 187.673 114.124C209.977 130.351 216.251 68.8592 194.374 51.811Z" fill="#0E3CA5"/>
<path d="M99.9366 52.5338C87.4214 71.3559 45.7042 84.6266 38.8389 82.5571L39.7258 80.849C42.0906 76.2684 44.803 71.8757 47.8393 67.7097C50.8205 63.5759 54.115 59.6774 57.6938 56.0486C61.3195 52.4793 65.2064 49.1854 69.322 46.1941C71.8842 44.3218 74.5778 42.548 77.3042 40.9384C81.5333 38.6033 86.2702 37.3401 91.1004 37.2594C109.693 37.6207 99.9695 52.5338 99.8709 52.6652" fill="#5493F7"/>
<path d="M89.6895 185.602C90.5764 191.515 89.6895 214.903 88.4413 216.874C87.3901 216.874 85.1565 217.071 78.9482 213.589C75.698 211.693 72.5612 209.609 69.5536 207.348C61.2846 201.279 53.9951 193.979 47.9394 185.701C44.9032 181.535 42.1907 177.142 39.8259 172.561C37.3653 167.974 35.2782 163.195 33.5847 158.272C31.9178 153.257 30.6546 148.116 29.8072 142.899C28.0695 132.217 28.0695 121.325 29.8072 110.642C30.6546 105.426 31.9178 100.285 33.5847 95.2695C33.9132 94.2512 34.2745 93.2657 34.6359 92.2803C41.8296 101.872 50.1731 110.544 57.2683 120.201C64.3635 129.859 73.2983 144.443 75.1706 147.662C86.8974 167.568 88.7698 179.854 89.6895 185.766" fill="#5493F7"/>
<path d="M228.311 126.705C228.327 139.265 225.964 151.715 221.347 163.396C209.588 176.043 130.259 144.903 129.372 144.574C118.631 139.811 85.5855 125.358 82.6949 102.627C78.4246 69.779 144.745 47.1465 173.914 46.2596C177.396 46.2596 188.039 46.2596 194.248 51.4825C204.988 60.8505 213.594 72.4124 219.487 85.3885C225.38 98.3646 228.423 112.453 228.41 126.705" fill="#5493F7"/>
<path d="M174.667 215.33C166.028 219.37 156.502 216.414 158.965 208.005C163.728 191.81 205.183 175.156 214.347 174.335C215.464 174.335 215.957 174.992 215.464 175.879C205.915 192.658 191.757 206.349 174.667 215.33Z" fill="#5493F7"/>
<mask id="mask0_170_2415" style="mask-type:alpha" maskUnits="userSpaceOnUse" x="30" y="29" width="200" height="200">
<circle cx="130" cy="129" r="100" fill="#C4C4C4"/>
</mask>
<g mask="url(#mask0_170_2415)">
<g opacity="0.3">
<path opacity="0.06" d="M79.1108 124.176C78.3208 124.099 77.5233 124.179 76.7645 124.412C76.0057 124.645 75.3005 125.026 74.6898 125.533C74.079 126.04 73.5746 126.663 73.2059 127.366C72.8371 128.069 72.6112 128.838 72.5411 129.628V231.162C72.4833 232.082 72.6076 233.003 72.9067 233.874C73.2059 234.745 73.6741 235.549 74.2844 236.238C74.8948 236.928 75.6353 237.491 76.4636 237.893C77.2918 238.296 78.1914 238.532 79.1108 238.586C172.827 239.145 263.751 265.39 263.685 252.185C263.685 218.746 263.685 172.725 263.685 139.253C263.751 125.785 172.827 124.241 79.1108 124.176Z" fill="url(#paint0_linear_170_2415)"/>
<path opacity="0.13" d="M79.0773 124.176C77.534 124.102 76.022 124.629 74.8585 125.646C73.695 126.662 72.9702 128.09 72.8361 129.629V231.163C72.7282 233.017 73.3586 234.839 74.5896 236.23C75.8205 237.621 77.552 238.468 79.4058 238.587C172.465 239.112 262.732 264.077 262.699 251.332C262.699 218.483 262.699 172.791 262.699 139.648C262.436 126.738 172.169 124.307 79.0773 124.176Z" fill="url(#paint1_linear_170_2415)"/>
<path opacity="0.19" d="M79.0773 124.176C77.536 124.11 76.0285 124.64 74.8668 125.655C73.7051 126.67 72.978 128.092 72.8361 129.628V231.162C72.7282 233.017 73.3586 234.838 74.5896 236.229C75.8205 237.62 77.552 238.468 79.4058 238.586C171.808 239.079 261.451 262.762 261.385 250.444C261.385 217.924 261.385 172.824 261.385 140.337C261.155 127.723 171.381 124.34 79.0773 124.176Z" fill="url(#paint2_linear_170_2415)"/>
<path opacity="0.25" d="M79.0773 124.176C77.536 124.11 76.0285 124.64 74.8668 125.655C73.7051 126.67 72.978 128.092 72.8361 129.628V231.162C72.7282 233.017 73.3586 234.838 74.5896 236.229C75.8205 237.62 77.552 238.468 79.4058 238.586C171.151 239.079 260.071 261.58 260.071 249.557C260.071 217.497 260.071 172.89 260.071 140.863C259.841 128.676 170.855 124.406 79.0773 124.176Z" fill="url(#paint3_linear_170_2415)"/>
<path opacity="0.31" d="M79.0791 124.176C77.5379 124.11 76.0304 124.64 74.8687 125.655C73.7069 126.67 72.9799 128.092 72.838 129.628V231.162C72.7802 232.08 72.9047 233 73.2043 233.869C73.5038 234.738 73.9725 235.539 74.5832 236.226C75.194 236.913 75.9347 237.473 76.7628 237.872C77.5908 238.271 78.4897 238.503 79.4076 238.553C170.496 239.046 258.858 260.134 258.792 248.67C258.792 217.103 258.792 173.119 258.792 141.388C258.562 129.628 170.233 124.438 79.0791 124.176Z" fill="url(#paint4_linear_170_2415)"/>
<path opacity="0.38" d="M79.0791 124.176C77.5399 124.119 76.0368 124.651 74.8768 125.664C73.7168 126.678 72.9876 128.096 72.838 129.629V231.163C72.7802 232.08 72.9047 233 73.2043 233.869C73.5038 234.738 73.9725 235.54 74.5832 236.227C75.194 236.914 75.9347 237.473 76.7628 237.873C77.5908 238.272 78.4897 238.503 79.4076 238.554C169.839 239.014 257.544 258.821 257.511 247.784C257.511 216.677 257.511 173.021 257.511 141.914C257.248 130.614 169.576 124.472 79.0791 124.176Z" fill="url(#paint5_linear_170_2415)"/>
<path opacity="0.44" d="M79.0791 124.176C77.5379 124.11 76.0304 124.64 74.8687 125.655C73.7069 126.67 72.9799 128.092 72.838 129.628V231.162C72.7802 232.08 72.9047 233 73.2043 233.869C73.5038 234.738 73.9725 235.539 74.5832 236.226C75.194 236.913 75.9347 237.473 76.7628 237.872C77.5908 238.271 78.4897 238.503 79.4076 238.553C169.182 238.98 256.23 257.507 256.197 246.897C256.197 216.282 256.197 173.087 256.197 142.439C255.934 131.566 168.919 124.34 79.0791 124.176Z" fill="url(#paint6_linear_170_2415)"/>
<path opacity="0.5" d="M79.0791 124.208C77.541 124.134 76.0336 124.656 74.8709 125.666C73.7082 126.676 72.98 128.095 72.838 129.628V231.162C72.7802 232.08 72.9047 233 73.2043 233.869C73.5038 234.738 73.9725 235.539 74.5832 236.226C75.194 236.913 75.9347 237.473 76.7628 237.872C77.5908 238.271 78.4897 238.503 79.4076 238.553C168.525 238.947 254.949 256.193 254.916 246.01C254.916 215.855 254.916 173.152 254.916 142.965C254.653 132.552 168.262 124.34 79.0791 124.208Z" fill="url(#paint7_linear_170_2415)"/>
<path opacity="0.56" d="M79.0791 124.208C77.541 124.134 76.0336 124.656 74.8709 125.666C73.7082 126.676 72.98 128.095 72.838 129.628V231.162C72.7802 232.08 72.9047 233 73.2043 233.869C73.5038 234.738 73.9725 235.539 74.5832 236.226C75.194 236.913 75.9347 237.473 76.7628 237.872C77.5908 238.271 78.4897 238.503 79.4076 238.553C167.868 238.915 253.503 254.977 253.503 245.123C253.503 215.559 253.503 173.152 253.503 143.49C253.503 133.636 167.605 124.373 79.0791 124.208Z" fill="url(#paint8_linear_170_2415)"/>
<path opacity="0.63" d="M79.0791 124.208C77.541 124.134 76.0336 124.656 74.8709 125.666C73.7082 126.676 72.98 128.095 72.838 129.628V231.162C72.7802 232.08 72.9047 233 73.2043 233.869C73.5038 234.738 73.9725 235.539 74.5832 236.226C75.194 236.913 75.9347 237.473 76.7628 237.872C77.5908 238.271 78.4897 238.503 79.4076 238.553C167.211 238.882 252.354 253.598 252.321 244.269C252.321 215.034 252.321 173.251 252.321 144.049C252.058 134.457 166.948 124.373 79.0791 124.208Z" fill="url(#paint9_linear_170_2415)"/>
<path opacity="0.69" d="M79.0791 124.209C77.539 124.127 76.0271 124.646 74.8626 125.657C73.6981 126.669 72.9721 128.093 72.838 129.629V231.163C72.7802 232.081 72.9047 233.001 73.2043 233.87C73.5038 234.739 73.9725 235.54 74.5832 236.227C75.194 236.914 75.9347 237.474 76.7628 237.873C77.5908 238.272 78.4897 238.504 79.4076 238.554C166.554 238.85 251.04 252.285 251.007 243.383C251.007 214.641 251.007 173.318 251.007 144.575C250.744 135.443 166.291 124.406 79.0791 124.209Z" fill="url(#paint10_linear_170_2415)"/>
<path opacity="0.75" d="M79.0791 124.209C77.539 124.127 76.0271 124.646 74.8626 125.657C73.6981 126.669 72.9721 128.093 72.838 129.629V231.163C72.7802 232.081 72.9047 233.001 73.2043 233.87C73.5038 234.739 73.9725 235.54 74.5832 236.227C75.194 236.914 75.9347 237.474 76.7628 237.873C77.5908 238.272 78.4897 238.504 79.4076 238.554C165.897 238.85 249.759 250.971 249.693 242.496C249.693 214.214 249.693 173.515 249.693 145.101C249.463 136.396 165.634 124.439 79.0791 124.209Z" fill="url(#paint11_linear_170_2415)"/>
<path opacity="0.81" d="M79.0791 124.208C77.541 124.134 76.0336 124.656 74.8709 125.666C73.7082 126.676 72.98 128.095 72.838 129.628V231.162C72.7802 232.08 72.9047 233 73.2043 233.869C73.5038 234.738 73.9725 235.539 74.5832 236.226C75.194 236.913 75.9347 237.473 76.7628 237.872C77.5908 238.271 78.4897 238.503 79.4076 238.553C165.24 238.816 248.445 249.656 248.412 241.608C248.412 213.818 248.412 173.448 248.412 145.625C248.149 137.348 165.01 124.438 79.0791 124.208Z" fill="url(#paint12_linear_170_2415)"/>
<path opacity="0.88" d="M79.0791 124.208C77.541 124.134 76.0336 124.656 74.8709 125.666C73.7082 126.676 72.98 128.095 72.838 129.628V231.162C72.7802 232.08 72.9047 233 73.2043 233.869C73.5038 234.738 73.9725 235.539 74.5832 236.226C75.194 236.913 75.9347 237.473 76.7628 237.872C77.5908 238.271 78.4897 238.503 79.4076 238.553C164.287 238.75 246.934 248.342 246.934 240.721C246.934 213.391 246.934 173.514 246.934 146.184C246.934 138.333 164.353 124.471 79.0791 124.208Z" fill="url(#paint13_linear_170_2415)"/>
<path opacity="0.94" d="M79.0791 124.208C77.541 124.134 76.0336 124.656 74.8709 125.666C73.7082 126.676 72.98 128.095 72.838 129.628V231.162C72.7802 232.08 72.9047 233 73.2043 233.869C73.5038 234.738 73.9725 235.539 74.5832 236.226C75.194 236.913 75.9347 237.473 76.7628 237.872C77.5908 238.271 78.4897 238.503 79.4076 238.553C163.926 238.75 245.85 247.028 245.817 239.834C245.817 212.997 245.817 173.579 245.817 146.709C245.554 139.286 163.696 124.471 79.0791 124.208Z" fill="url(#paint14_linear_170_2415)"/>
<path opacity="0.3" d="M79.0791 124.208C77.541 124.134 76.0336 124.656 74.8709 125.666C73.7082 126.676 72.98 128.095 72.838 129.628V231.162C72.7802 232.08 72.9047 233 73.2043 233.869C73.5038 234.738 73.9725 235.539 74.5832 236.226C75.194 236.913 75.9347 237.473 76.7628 237.872C77.5908 238.271 78.4897 238.503 79.4076 238.553C163.269 238.882 244.569 245.714 244.503 238.98V147.235C244.273 140.206 163.039 124.964 79.0791 124.208Z" fill="url(#paint15_linear_170_2415)"/>
</g>
<path d="M72.8392 231.163C72.6734 232.989 73.2311 234.807 74.3921 236.226C75.5532 237.645 77.2249 238.552 79.0475 238.751C163.073 239.342 244.209 235.466 244.209 222.885C244.209 184.584 72.8392 231.163 72.8392 231.163Z" fill="url(#paint16_linear_170_2415)"/>
<path d="M72.8389 231.163C72.6736 232.994 73.2357 234.817 74.4036 236.237C75.5715 237.657 77.2515 238.56 79.0801 238.751C163.106 239.408 244.11 236.747 244.208 222.885C244.208 184.584 72.8389 231.163 72.8389 231.163ZM79.0801 238.094H78.4231C77.1115 237.939 75.8771 237.392 74.8809 236.525C73.8848 235.657 73.1732 234.51 72.8389 233.232C73.2094 234.583 74.002 235.781 75.1012 236.65C76.2004 237.518 77.5485 238.013 78.9487 238.061C162.909 237.535 242.763 211.782 242.763 223.082C242.763 234.382 163.04 238.751 79.0801 238.094Z" fill="url(#paint17_linear_170_2415)"/>
<path d="M79.0753 123.223C77.3616 123.266 75.7324 123.977 74.5357 125.205C73.339 126.432 72.6694 128.079 72.6699 129.793V231.163C72.6692 232.871 73.3342 234.513 74.5239 235.74C75.7137 236.966 77.3345 237.681 79.0425 237.732C163.068 236.944 244.302 209.187 244.203 222.721V108.376C244.302 94.7768 163.101 122.599 79.0753 123.223Z" fill="url(#paint18_linear_170_2415)"/>
<path d="M91.492 193.289C94.4812 193.289 97.4047 193.059 100.295 192.894L108.77 192.336C111.529 192.139 114.256 191.909 116.917 191.646L124.866 190.891L132.585 190.07C135.147 189.807 137.644 189.511 140.173 189.183L147.63 188.23L154.955 187.212L162.346 186.193L169.769 185.044L177.193 183.828L184.715 182.547L192.435 181.201L200.318 179.821L208.432 178.408L216.874 177.062C219.732 176.635 222.327 176.24 225.907 175.813C229.777 175.243 233.692 175.034 237.601 175.189C241.28 175.419 244.171 176.372 244.171 178.934V170.032C244.171 167.503 241.378 166.747 237.962 166.32C234.299 166.129 230.626 166.283 226.991 166.78C223.706 167.174 221.111 167.536 218.549 167.93C215.987 168.324 213.458 168.685 210.994 169.112L203.669 170.328L196.442 171.609L189.15 173.054L181.562 174.368L173.613 175.682L165.072 177.029L155.809 178.441V169.507L165.072 168.061L173.613 166.714L181.562 165.4L189.15 164.087L196.475 162.805L203.702 161.557L211.027 160.309L218.582 159.126C221.144 158.732 223.608 158.371 227.024 157.977C230.658 157.479 234.332 157.326 237.995 157.517C241.28 157.813 244.203 158.699 244.203 161.229V152.458C244.203 149.929 241.411 149.173 237.995 148.714C234.332 148.539 230.66 148.693 227.024 149.173C223.739 149.568 221.144 149.929 218.582 150.323L211.027 151.506L203.702 152.754L196.475 154.035L189.15 155.283L181.562 156.63L173.613 157.944L165.072 159.324L155.809 160.736V151.9L165.072 150.487L173.613 149.141L181.562 147.794L189.15 146.48L196.475 145.232L203.702 143.951L211.027 142.702L218.582 141.52C221.144 141.158 223.608 140.764 227.024 140.37C230.661 139.906 234.332 139.752 237.995 139.91C241.28 140.206 244.203 141.126 244.203 143.655V134.852C244.203 132.322 241.411 131.567 237.995 131.14C234.332 130.948 230.658 131.102 227.024 131.6C223.739 131.994 221.144 132.355 218.582 132.749C216.02 133.144 213.49 133.505 211.027 133.932L203.702 135.147L196.475 136.428L189.15 137.709L181.562 138.991L173.613 140.206L165.072 141.553L155.809 142.965V134.293L165.072 132.881L173.645 131.534C176.372 131.107 179 130.647 181.562 130.187L189.15 128.906L196.475 127.625L203.702 126.344L211.027 125.129C213.49 124.702 216.02 124.307 218.582 123.946C221.144 123.585 223.608 123.191 227.024 122.796C230.658 122.299 234.332 122.145 237.995 122.336C241.28 122.599 244.203 123.519 244.203 126.048V117.212C244.203 114.683 241.411 113.927 237.995 113.5C234.332 113.309 230.658 113.463 227.024 113.96C223.739 114.354 221.144 114.716 218.582 115.11C216.02 115.504 213.49 115.898 211.027 116.292L203.702 117.541L196.475 118.789L189.15 120.07L181.562 121.384L173.645 122.698L165.072 124.045L155.809 125.49V116.588C130.412 120.539 104.774 122.734 79.0753 123.158C77.3616 123.201 75.7324 123.912 74.5357 125.139C73.339 126.366 72.6694 128.013 72.6699 129.727V193.781C75.9547 193.781 79.2396 193.781 82.2945 193.781C85.3493 193.781 88.4699 193.42 91.492 193.289Z" fill="url(#paint19_linear_170_2415)"/>
<path d="M91.4609 210.895L100.297 210.501L108.772 209.942L116.918 209.187L124.868 208.431L132.587 207.61L140.175 206.723L147.631 205.902L154.957 204.785L162.282 203.668L169.738 202.617L177.195 201.435L184.717 200.121L192.436 198.807L200.32 197.427L208.434 196.048L216.876 194.701C219.733 194.274 222.328 193.88 225.909 193.42C229.781 192.871 233.693 192.651 237.603 192.763C241.282 193.026 244.172 193.945 244.172 196.54V187.638C244.172 185.076 241.249 184.124 237.603 183.861C233.694 183.738 229.782 183.947 225.909 184.485C222.328 184.945 219.733 185.339 216.876 185.766L208.434 187.113L200.32 188.525L192.436 189.905L184.717 191.219L177.195 192.533C174.698 192.96 172.235 193.354 169.738 193.715L162.347 194.898L154.957 196.048L147.566 197.066L140.109 198.018C137.58 198.314 135.083 198.643 132.521 198.905L124.802 199.727L116.853 200.482C114.192 200.745 111.465 200.975 108.706 201.172L100.231 201.73C97.3407 201.895 94.4172 202.026 91.3952 202.125C88.3732 202.223 85.3511 202.322 82.2305 202.42C79.11 202.519 76.1208 202.617 72.8359 202.617V211.421C76.1208 211.421 79.4056 211.421 82.4605 211.421L91.4609 210.895Z" fill="url(#paint20_linear_170_2415)"/>
<path d="M237.601 201.468C233.692 201.345 229.78 201.554 225.907 202.092C222.327 202.519 219.732 202.946 216.874 203.373L208.465 204.72L200.318 206.132L192.435 207.512L184.715 208.826L177.193 210.107L169.736 211.322L162.346 212.472L154.955 213.589L147.564 214.64L140.173 215.757L132.585 216.644L124.866 217.465L116.916 218.22L108.77 218.91L100.295 219.436L91.4591 219.863L82.2945 220.126C79.0096 220.126 75.9547 220.126 72.6699 220.126V228.896C75.9547 228.896 79.2396 228.896 82.2945 228.896C85.3493 228.896 88.4699 228.896 91.4591 228.601C94.4483 228.305 97.4046 228.371 100.295 228.206C103.186 228.042 105.978 227.878 108.77 227.648L116.916 226.991L124.866 226.235L132.585 225.414L140.173 224.494L147.63 223.542L154.955 222.326L162.28 221.21L169.671 220.06L177.193 219.042L184.715 217.761L192.435 216.447L200.318 215.067L208.465 213.655L216.874 212.308C219.732 211.848 222.327 211.454 225.907 211.027C229.78 210.489 233.692 210.28 237.601 210.403C241.28 210.633 244.171 211.585 244.171 214.147V205.213C244.203 202.618 241.28 201.731 237.601 201.468Z" fill="url(#paint21_linear_170_2415)"/>
<path d="M90.9007 184.519L99.1128 184.157L106.832 183.697L114.354 183.106L121.877 182.416L129.596 181.628C132.224 181.365 134.917 181.037 137.677 180.708L146.316 179.624C149.338 179.23 152.491 178.77 155.809 178.277V116.588C130.412 120.54 104.774 122.735 79.0753 123.158C77.3616 123.201 75.7324 123.912 74.5357 125.139C73.339 126.367 72.6694 128.013 72.6699 129.728V184.88C75.9547 184.88 79.2396 184.88 82.1959 184.88L90.9007 184.519Z" fill="url(#paint22_linear_170_2415)"/>
<path d="M92.5462 125.819C92.2177 126.805 92.0535 127.297 91.7578 128.283H89.2285L91.2651 129.695C90.9695 130.681 90.8052 131.173 90.4768 132.159L92.5462 130.681L94.5828 132.093C94.2543 131.141 94.1229 130.681 93.7944 129.695L95.831 128.118H93.3017L92.5462 125.819Z" fill="url(#paint23_linear_170_2415)"/>
<path d="M99.7708 156.171C99.4752 157.156 99.3109 157.649 98.9824 158.634H96.4531L98.5226 160.047C98.1941 161.032 98.0298 161.525 97.7342 162.51L99.7708 160.901L101.84 162.28C101.512 161.328 101.348 160.868 101.052 159.915L103.088 158.273L100.559 158.437C100.264 157.616 100.099 157.123 99.7708 156.171Z" fill="url(#paint24_linear_170_2415)"/>
<path d="M100.559 170.821C100.264 169.868 100.099 169.408 99.7708 168.456C99.4752 169.441 99.3109 169.934 98.9824 170.919H96.4531L98.5226 172.332C98.1941 173.317 98.0298 173.81 97.7342 174.796L99.7708 173.186L101.84 174.566C101.512 173.613 101.348 173.153 101.052 172.201L103.088 170.558L100.559 170.821Z" fill="url(#paint25_linear_170_2415)"/>
<path d="M92.5462 150.356C92.2177 151.374 92.0535 151.834 91.7578 152.82H89.2285L91.2651 154.265C90.9695 155.251 90.8052 155.743 90.4768 156.729L92.5462 155.152L94.5828 156.565C94.2543 155.612 94.1229 155.119 93.7944 154.167C94.6156 153.51 95.0427 153.214 95.831 152.557H93.3017C92.9404 151.802 92.7761 151.342 92.5462 150.356Z" fill="url(#paint26_linear_170_2415)"/>
<path d="M92.5462 162.642C92.2177 163.627 92.0535 164.12 91.7578 165.105H89.2285L91.2651 166.551C90.9695 167.536 90.8052 168.029 90.4768 169.014L92.5462 167.405L94.5828 168.85C94.2543 167.864 94.1229 167.405 93.7944 166.452L95.831 164.842H93.3017L92.5462 162.642Z" fill="url(#paint27_linear_170_2415)"/>
<path d="M92.5462 138.104C92.2177 139.089 92.0535 139.582 91.7578 140.568H89.2285L91.2651 142.013C90.9695 142.998 90.8052 143.491 90.4768 144.477L92.5462 142.9L94.5828 144.312C94.2543 143.36 94.1229 142.867 93.7944 141.914C94.6156 141.29 95.0427 140.962 95.831 140.305H93.3017L92.5462 138.104Z" fill="url(#paint28_linear_170_2415)"/>
<path d="M114.425 167.404C114.097 168.423 113.932 168.915 113.637 169.901L111.107 170.131L113.144 171.445C112.848 172.463 112.684 172.956 112.356 173.941L114.425 172.266L116.462 173.613C116.133 172.66 116.002 172.2 115.673 171.248L117.743 169.539L115.181 169.769L114.425 167.404Z" fill="url(#paint29_linear_170_2415)"/>
<path d="M99.7708 143.885C99.4752 144.871 99.3109 145.363 98.9824 146.382H96.4531L98.5226 147.794C98.1941 148.78 98.0298 149.272 97.7342 150.291L99.7708 148.648L101.84 150.061C101.512 149.108 101.348 148.615 101.052 147.663L103.088 146.02L100.559 146.185C100.264 145.331 100.099 144.838 99.7708 143.885Z" fill="url(#paint30_linear_170_2415)"/>
<path d="M107.097 161.853C106.801 162.839 106.637 163.331 106.309 164.35H103.779L105.849 165.729C105.52 166.715 105.356 167.208 105.06 168.193L107.097 166.551L109.166 167.897C108.838 166.945 108.674 166.485 108.378 165.532L110.415 163.857L107.885 164.054C107.557 163.2 107.425 162.806 107.097 161.853Z" fill="url(#paint31_linear_170_2415)"/>
<path d="M107.885 176.503C107.557 175.551 107.425 175.091 107.097 174.138C106.801 175.124 106.637 175.617 106.309 176.602L103.779 176.799L105.849 178.146C105.52 179.131 105.356 179.657 105.06 180.642L107.097 179L109.166 180.347C108.838 179.394 108.674 178.934 108.378 177.982L110.415 176.306L107.885 176.503Z" fill="url(#paint32_linear_170_2415)"/>
<path d="M99.7708 131.599C99.4752 132.618 99.3109 133.11 98.9824 134.096H96.4531L98.5226 135.475C98.1941 136.494 98.0298 136.986 97.7342 137.972L99.7708 136.362L101.84 137.742C101.512 136.789 101.348 136.297 101.052 135.344L103.088 133.734H100.559C100.264 133.045 100.099 132.585 99.7708 131.599Z" fill="url(#paint33_linear_170_2415)"/>
<path d="M107.097 149.568C106.768 150.554 106.637 151.079 106.309 152.065H103.779L105.849 153.444C105.52 154.43 105.356 154.922 105.06 155.908L107.097 154.265L109.166 155.645C108.838 154.692 108.674 154.2 108.378 153.247L110.415 151.605L107.885 151.802C107.557 151.013 107.425 150.521 107.097 149.568Z" fill="url(#paint34_linear_170_2415)"/>
<path d="M93.236 177.325L92.5462 174.927C92.2177 175.912 92.0535 176.405 91.7578 177.39H89.2285L91.2651 178.803C90.9695 179.788 90.8052 180.281 90.4768 181.266L92.5462 179.69L94.5828 181.135L93.7944 178.704L95.831 177.128L93.236 177.325Z" fill="url(#paint35_linear_170_2415)"/>
<path d="M77.8274 150.783C77.499 151.736 77.3676 152.228 77.0391 153.214H74.5098L76.5464 154.692C76.2507 155.677 76.0865 156.137 75.7908 157.123L77.8274 155.612L79.864 157.09C79.5684 156.104 79.4042 155.645 79.1085 154.659L81.1451 153.115H78.6158C78.2873 152.228 78.1559 151.736 77.8274 150.783Z" fill="url(#paint36_linear_170_2415)"/>
<path d="M77.8274 138.498L77.0391 140.929H74.5098L76.5464 142.407C76.2507 143.392 76.0865 143.885 75.7908 144.838L77.8274 143.326L79.864 144.805C79.5684 143.819 79.4042 143.359 79.1085 142.374L81.1451 140.83H78.6158C78.2873 139.943 78.1559 139.45 77.8274 138.498Z" fill="url(#paint37_linear_170_2415)"/>
<path d="M78.6158 177.751L77.8274 175.321C77.499 176.306 77.3676 176.799 77.0391 177.751H74.5098L76.5464 179.23L75.7908 181.693L77.8274 180.149L79.864 181.627C79.5684 180.675 79.4042 180.182 79.1085 179.197L81.1451 177.686L78.6158 177.751Z" fill="url(#paint38_linear_170_2415)"/>
<path d="M105.06 143.82L107.097 142.177L109.166 143.524C108.838 142.572 108.674 142.079 108.378 141.126L110.415 139.484L107.885 139.681C107.557 138.728 107.425 138.236 107.097 137.283C106.801 138.301 106.637 138.794 106.309 139.779L103.779 139.944L105.849 141.323C105.684 142.309 105.356 142.801 105.06 143.82Z" fill="url(#paint39_linear_170_2415)"/>
<path d="M105.06 131.534L107.097 129.891L109.166 131.238C108.838 130.286 108.674 129.826 108.378 128.873L110.415 127.198L107.885 127.395L107.097 125.03C106.801 126.015 106.637 126.508 106.309 127.493C105.29 127.493 104.798 127.493 103.779 127.493L105.849 128.873C105.684 130.023 105.356 130.548 105.06 131.534Z" fill="url(#paint40_linear_170_2415)"/>
<path d="M77.8274 163.2C77.499 164.185 77.3676 164.678 77.0391 165.663H74.5098L76.5464 167.174C76.2507 168.16 76.0865 168.62 75.7908 169.605L77.8274 168.094L79.864 169.539L79.1085 167.141L81.1451 165.598H78.6158C78.2873 164.514 78.1559 164.021 77.8274 163.2Z" fill="url(#paint41_linear_170_2415)"/>
<path d="M85.1556 132.191C84.8599 133.177 84.6957 133.669 84.3672 134.655H81.8379L83.8745 136.1L83.119 138.564L85.1556 137.02L87.225 138.465C86.8965 137.48 86.7323 136.987 86.4366 136.034L88.4732 134.458H85.9439L85.1556 132.191Z" fill="url(#paint42_linear_170_2415)"/>
<path d="M85.1556 144.477C84.8599 145.462 84.6957 145.955 84.3672 146.94H81.8379L83.8745 148.386L83.119 150.849L85.1556 149.272L87.225 150.718C86.8965 149.765 86.7323 149.272 86.4366 148.32L88.4732 146.743L85.9768 146.776L85.1556 144.477Z" fill="url(#paint43_linear_170_2415)"/>
<path d="M85.9771 171.445C85.6486 170.492 85.4844 169.999 85.1888 169.047C84.8603 170.032 84.7289 170.525 84.4004 171.478H81.8711L83.9077 172.956C83.6121 173.908 83.4478 174.401 83.1193 175.387L85.1888 173.843L87.2254 175.288C86.9297 174.303 86.7655 173.843 86.4698 172.857L88.5064 171.313L85.9771 171.445Z" fill="url(#paint44_linear_170_2415)"/>
<path d="M85.1556 156.63C84.8271 157.616 84.6957 158.108 84.3672 159.094H81.8379L83.8745 160.572L83.119 163.036L85.1556 161.459L87.1922 162.904L86.4366 160.506L88.4732 158.93H85.9439C85.6154 158.207 85.484 157.714 85.1556 156.63Z" fill="url(#paint45_linear_170_2415)"/>
<path d="M77.8274 126.212C77.499 127.198 77.3676 127.691 77.0391 128.643H74.5098L76.5464 130.121L75.7908 132.585L77.8274 131.041L79.8969 132.519C79.5684 131.567 79.4042 131.074 79.1085 130.088L81.1451 128.545H78.6158L77.8274 126.212Z" fill="url(#paint46_linear_170_2415)"/>
<path d="M114.425 155.152C114.097 156.138 113.932 156.63 113.637 157.649L111.107 157.846L113.144 159.192C112.848 160.178 112.684 160.671 112.356 161.689L114.425 160.014L116.462 161.328C116.133 160.375 116.002 159.915 115.673 158.962L117.743 157.254L115.181 157.484L114.425 155.152Z" fill="url(#paint47_linear_170_2415)"/>
<path d="M143.661 151.999C143.366 153.017 143.202 153.51 142.873 154.528L140.344 154.857L142.413 156.105C142.085 157.123 141.92 157.616 141.625 158.634L143.661 156.86L145.731 158.109C145.402 157.189 145.238 156.696 144.943 155.776L146.979 154.003L144.45 154.331C144.121 153.346 143.99 152.919 143.661 151.999Z" fill="url(#paint48_linear_170_2415)"/>
<path d="M143.661 139.714C143.366 140.732 143.202 141.257 142.873 142.243L140.344 142.571L142.413 143.82C142.085 144.838 141.92 145.331 141.625 146.349L143.661 144.575L145.731 145.823C145.402 144.904 145.238 144.444 144.943 143.491L146.979 141.717L144.45 142.046C144.154 141.126 143.99 140.666 143.661 139.714Z" fill="url(#paint49_linear_170_2415)"/>
<path d="M144.45 166.485C144.121 165.532 143.99 165.072 143.661 164.153C143.366 165.171 143.202 165.664 142.873 166.682L140.344 167.01L142.413 168.259C142.085 169.244 141.92 169.77 141.625 170.788L143.661 169.014L145.731 170.262C145.402 169.31 145.238 168.85 144.943 167.93L146.979 166.156L144.45 166.485Z" fill="url(#paint50_linear_170_2415)"/>
<path d="M136.332 134.49L135.576 136.921L133.047 137.217L135.083 138.465C134.788 139.483 134.624 139.976 134.295 140.994L136.332 139.253L138.401 140.502C138.073 139.582 137.908 139.122 137.613 138.169L139.649 136.429L137.12 136.724C136.824 135.903 136.66 135.41 136.332 134.49Z" fill="url(#paint51_linear_170_2415)"/>
<path d="M143.661 127.428C143.366 128.447 143.202 128.972 142.873 129.991L140.344 130.286L142.413 131.534C142.085 132.553 141.92 133.078 141.625 134.064L143.661 132.323L145.731 133.571C145.402 132.618 145.238 132.159 144.943 131.206L146.979 129.432C145.994 129.432 145.468 129.662 144.45 129.761C144.154 128.841 143.99 128.381 143.661 127.428Z" fill="url(#paint52_linear_170_2415)"/>
<path d="M136.332 122.205L135.576 124.734L133.047 125.03L135.083 126.278C134.788 127.297 134.624 127.822 134.295 128.808L136.332 127.067L138.401 128.348C138.073 127.395 137.908 126.935 137.613 125.983L139.649 124.242L137.12 124.537C136.824 123.782 136.66 123.158 136.332 122.205Z" fill="url(#paint53_linear_170_2415)"/>
<path d="M150.98 144.903C150.684 145.921 150.52 146.414 150.191 147.432L147.662 147.761L149.732 149.009C149.403 150.027 149.239 150.52 148.943 151.538L150.98 149.764L153.016 150.98L152.261 148.648L154.297 146.775L151.768 147.137C151.473 146.282 151.308 145.823 150.98 144.903Z" fill="url(#paint54_linear_170_2415)"/>
<path d="M150.98 132.618C150.684 133.636 150.52 134.129 150.191 135.147L147.662 135.509L149.732 136.724C149.403 137.742 149.239 138.235 148.943 139.253L150.98 137.479L153.049 138.695C152.721 137.775 152.557 137.315 152.261 136.363L154.297 134.589L151.67 134.95C151.473 133.998 151.308 133.636 150.98 132.618Z" fill="url(#paint55_linear_170_2415)"/>
<path d="M151.67 171.773C151.342 170.853 151.211 170.393 150.882 169.44C150.554 170.459 150.422 170.984 150.094 172.003L147.564 172.331L149.601 173.546L148.846 176.109L150.882 174.302L152.919 175.55C152.623 174.598 152.459 174.138 152.13 173.218L154.2 171.411L151.67 171.773Z" fill="url(#paint56_linear_170_2415)"/>
<path d="M150.98 120.497L150.224 123.026L147.662 123.388L149.732 124.603C149.403 125.621 149.239 126.114 148.943 127.132C149.764 126.443 150.191 126.081 150.98 125.359L153.049 126.574C152.721 125.654 152.557 125.194 152.261 124.242L154.297 122.468L151.768 122.829C151.473 121.712 151.308 121.253 150.98 120.497Z" fill="url(#paint57_linear_170_2415)"/>
<path d="M150.98 157.155C150.684 158.174 150.52 158.699 150.191 159.717L147.662 160.046L149.699 161.294L148.943 163.823L150.98 162.05L153.016 163.265C152.721 162.312 152.557 161.853 152.261 160.933L154.297 159.126L151.768 159.487C151.44 158.568 151.308 158.108 150.98 157.155Z" fill="url(#paint58_linear_170_2415)"/>
<path d="M136.332 146.776L135.576 149.305L133.047 149.568L135.083 150.849C134.788 151.867 134.624 152.36 134.295 153.378L136.332 151.637L138.401 152.885C138.073 151.966 137.908 151.473 137.613 150.553L139.649 148.812L137.12 149.108C136.824 148.155 136.66 147.695 136.332 146.776Z" fill="url(#paint59_linear_170_2415)"/>
<path d="M114.425 130.582C114.097 131.567 113.932 132.06 113.637 133.078L111.107 133.275L113.144 134.622C112.848 135.608 112.684 136.133 112.356 137.119L114.425 135.443L116.462 136.757C116.133 135.838 116.002 135.345 115.673 134.392L117.743 132.717L115.181 132.947L114.425 130.582Z" fill="url(#paint60_linear_170_2415)"/>
<path d="M121.71 160.604L120.955 163.101L118.393 163.331L120.462 164.645C120.134 165.663 119.969 166.156 119.674 167.174L121.71 165.466L123.78 166.78C123.451 165.827 123.32 165.367 122.991 164.415L125.028 162.707L122.499 162.97C122.104 162.017 122.104 161.557 121.71 160.604Z" fill="url(#paint61_linear_170_2415)"/>
<path d="M136.332 159.028L135.576 161.557L133.047 161.853L135.248 163.2C134.952 164.218 134.788 164.711 134.459 165.729L136.496 163.988L138.565 165.236C138.237 164.284 138.073 163.824 137.777 162.904L139.814 161.13L137.284 161.459C136.824 160.441 136.66 159.915 136.332 159.028Z" fill="url(#paint62_linear_170_2415)"/>
<path d="M121.71 136.034L120.955 138.564L118.393 138.794L120.462 140.108C120.134 141.093 119.969 141.619 119.674 142.604L121.71 140.929L123.78 142.21C123.451 141.29 123.32 140.797 122.991 139.845L125.028 138.17L122.499 138.4C122.104 137.447 122.104 136.921 121.71 136.034Z" fill="url(#paint63_linear_170_2415)"/>
<path d="M121.71 173.054L120.955 175.551L118.393 175.781L120.462 177.095C120.134 178.113 119.969 178.606 119.674 179.624L121.71 177.916L123.78 179.23C123.451 178.277 123.32 177.817 122.991 176.865L125.028 175.156L122.499 175.386C122.104 174.302 122.104 173.81 121.71 173.054Z" fill="url(#paint64_linear_170_2415)"/>
<path d="M114.425 142.867C114.097 143.852 113.932 144.345 113.637 145.363L111.107 145.56L113.144 146.907C112.848 147.892 112.684 148.418 112.356 149.403L114.425 147.728L116.462 149.042C116.133 148.09 116.002 147.63 115.673 146.677L117.743 145.002L115.181 145.232L114.425 142.867Z" fill="url(#paint65_linear_170_2415)"/>
<path d="M121.71 123.782C121.415 124.767 121.25 125.26 120.955 126.278L118.393 126.508L120.462 127.822C120.134 128.841 119.969 129.333 119.674 130.319L121.71 128.644L123.78 129.925C123.451 129.005 123.32 128.512 122.991 127.592L125.061 125.884L122.499 126.114C122.104 125.194 122.104 124.702 121.71 123.782Z" fill="url(#paint66_linear_170_2415)"/>
<path d="M121.71 148.319C121.415 149.338 121.25 149.83 120.955 150.816L118.393 151.079L120.462 152.393C120.134 153.378 120.002 153.904 119.674 154.889L121.71 153.181L123.78 154.495C123.451 153.542 123.32 153.082 122.991 152.13L125.028 150.422L122.499 150.684C122.104 149.732 122.104 149.272 121.71 148.319Z" fill="url(#paint67_linear_170_2415)"/>
<path d="M137.12 173.678C136.824 172.726 136.66 172.266 136.332 171.313L135.576 173.843L133.047 174.138L135.083 175.419C134.788 176.405 134.624 176.93 134.295 177.949C135.116 177.226 135.543 176.897 136.332 176.175L138.401 177.456C138.073 176.503 137.908 176.043 137.613 175.124L139.649 173.35L137.12 173.678Z" fill="url(#paint68_linear_170_2415)"/>
<path d="M129.827 168.357C129.498 167.405 129.367 166.945 129.038 165.992C128.743 167.01 128.579 167.503 128.25 168.522L125.721 168.784L127.79 170.065C127.462 171.084 127.297 171.576 127.002 172.595L129.038 170.854L131.108 172.168C130.779 171.215 130.615 170.755 130.319 169.803L132.356 168.062L129.827 168.357Z" fill="url(#paint69_linear_170_2415)"/>
<path d="M129.038 129.169C128.743 130.187 128.579 130.68 128.25 131.698L125.721 131.928L127.79 133.242C127.462 134.26 127.297 134.753 127.002 135.771L129.038 134.03L131.108 135.311C130.779 134.392 130.615 133.899 130.319 132.979L132.356 131.238L129.827 131.501C129.531 130.581 129.367 130.121 129.038 129.169Z" fill="url(#paint70_linear_170_2415)"/>
<path d="M129.038 153.74C128.743 154.725 128.579 155.251 128.25 156.236L125.721 156.63L127.79 157.911C127.462 158.93 127.297 159.422 127.002 160.441L129.038 158.733L131.108 160.014C130.779 159.061 130.615 158.601 130.319 157.649L132.356 155.941L129.827 156.203C129.531 155.119 129.367 154.659 129.038 153.74Z" fill="url(#paint71_linear_170_2415)"/>
<path d="M129.038 141.454C128.743 142.439 128.579 142.965 128.25 143.95L125.721 144.213L127.79 145.527C127.462 146.512 127.297 147.038 127.002 148.024L129.038 146.315L131.108 147.596C130.779 146.644 130.615 146.184 130.319 145.264L132.356 143.523L129.827 143.786C129.531 142.866 129.367 142.374 129.038 141.454Z" fill="url(#paint72_linear_170_2415)"/>
</g>
<defs>
<linearGradient id="paint0_linear_170_2415" x1="72.6725" y1="190.036" x2="263.685" y2="190.036" gradientUnits="userSpaceOnUse">
<stop offset="0.38" stop-opacity="0.06"/>
<stop offset="1" stop-opacity="0"/>
</linearGradient>
<linearGradient id="paint1_linear_170_2415" x1="72.6719" y1="189.577" x2="262.403" y2="189.577" gradientUnits="userSpaceOnUse">
<stop offset="0.38" stop-opacity="0.13"/>
<stop offset="1" stop-opacity="0"/>
</linearGradient>
<linearGradient id="paint2_linear_170_2415" x1="72.6719" y1="189.084" x2="261.089" y2="189.084" gradientUnits="userSpaceOnUse">
<stop offset="0.38" stop-opacity="0.19"/>
<stop offset="1" stop-opacity="0"/>
</linearGradient>
<linearGradient id="paint3_linear_170_2415" x1="72.6719" y1="188.624" x2="259.808" y2="188.624" gradientUnits="userSpaceOnUse">
<stop offset="0.38" stop-opacity="0.25"/>
<stop offset="1" stop-opacity="0"/>
</linearGradient>
<linearGradient id="paint4_linear_170_2415" x1="72.6737" y1="188.131" x2="258.496" y2="188.131" gradientUnits="userSpaceOnUse">
<stop offset="0.38" stop-opacity="0.31"/>
<stop offset="1" stop-opacity="0"/>
</linearGradient>
<linearGradient id="paint5_linear_170_2415" x1="72.6737" y1="187.672" x2="257.215" y2="187.672" gradientUnits="userSpaceOnUse">
<stop offset="0.38" stop-opacity="0.38"/>
<stop offset="1" stop-opacity="0"/>
</linearGradient>
<linearGradient id="paint6_linear_170_2415" x1="72.6737" y1="187.179" x2="255.901" y2="187.179" gradientUnits="userSpaceOnUse">
<stop offset="0.38" stop-opacity="0.44"/>
<stop offset="1" stop-opacity="0"/>
</linearGradient>
<linearGradient id="paint7_linear_170_2415" x1="72.6737" y1="186.719" x2="254.62" y2="186.719" gradientUnits="userSpaceOnUse">
<stop offset="0.38" stop-opacity="0.5"/>
<stop offset="1" stop-opacity="0"/>
</linearGradient>
<linearGradient id="paint8_linear_170_2415" x1="72.6737" y1="186.259" x2="253.306" y2="186.259" gradientUnits="userSpaceOnUse">
<stop offset="0.38" stop-opacity="0.56"/>
<stop offset="1" stop-opacity="0"/>
</linearGradient>
<linearGradient id="paint9_linear_170_2415" x1="72.6737" y1="185.766" x2="252.025" y2="185.766" gradientUnits="userSpaceOnUse">
<stop offset="0.38" stop-opacity="0.63"/>
<stop offset="1" stop-opacity="0"/>
</linearGradient>
<linearGradient id="paint10_linear_170_2415" x1="72.6737" y1="185.307" x2="250.711" y2="185.307" gradientUnits="userSpaceOnUse">
<stop offset="0.38" stop-opacity="0.69"/>
<stop offset="1" stop-opacity="0"/>
</linearGradient>
<linearGradient id="paint11_linear_170_2415" x1="72.6737" y1="184.847" x2="249.397" y2="184.847" gradientUnits="userSpaceOnUse">
<stop offset="0.38" stop-opacity="0.75"/>
<stop offset="1" stop-opacity="0"/>
</linearGradient>
<linearGradient id="paint12_linear_170_2415" x1="72.6737" y1="184.386" x2="248.116" y2="184.386" gradientUnits="userSpaceOnUse">
<stop offset="0.38" stop-opacity="0.81"/>
<stop offset="1" stop-opacity="0"/>
</linearGradient>
<linearGradient id="paint13_linear_170_2415" x1="72.6737" y1="183.927" x2="246.802" y2="183.927" gradientUnits="userSpaceOnUse">
<stop offset="0.38" stop-opacity="0.88"/>
<stop offset="1" stop-opacity="0"/>
</linearGradient>
<linearGradient id="paint14_linear_170_2415" x1="72.6737" y1="183.5" x2="245.521" y2="183.5" gradientUnits="userSpaceOnUse">
<stop offset="0.38" stop-opacity="0.94"/>
<stop offset="1" stop-opacity="0"/>
</linearGradient>
<linearGradient id="paint15_linear_170_2415" x1="72.6737" y1="183.072" x2="244.207" y2="183.072" gradientUnits="userSpaceOnUse">
<stop offset="0.38"/>
<stop offset="1" stop-opacity="0"/>
</linearGradient>
<linearGradient id="paint16_linear_170_2415" x1="72.675" y1="223.181" x2="244.209" y2="223.181" gradientUnits="userSpaceOnUse">
<stop stop-color="#600000"/>
<stop offset="0.33" stop-color="#630000"/>
<stop offset="0.59" stop-color="#6D0000"/>
<stop offset="0.83" stop-color="#7E0000"/>
<stop offset="1" stop-color="#8F0000"/>
</linearGradient>
<linearGradient id="paint17_linear_170_2415" x1="158.441" y1="207.709" x2="158.441" y2="238.685" gradientUnits="userSpaceOnUse">
<stop offset="0.35" stop-color="#BF1010"/>
<stop offset="0.65" stop-color="#BD1010"/>
<stop offset="0.75" stop-color="#B60F0F"/>
<stop offset="0.83" stop-color="#AB0D0D"/>
<stop offset="0.89" stop-color="#9A0A0A"/>
<stop offset="0.94" stop-color="#840606"/>
<stop offset="0.99" stop-color="#690202"/>
<stop offset="1" stop-color="#600000"/>
</linearGradient>
<linearGradient id="paint18_linear_170_2415" x1="72.6699" y1="171.116" x2="244.203" y2="171.116" gradientUnits="userSpaceOnUse">
<stop stop-color="#BF1010"/>
<stop offset="0.02" stop-color="#C11212"/>
<stop offset="0.24" stop-color="#D22323"/>
<stop offset="0.49" stop-color="#DC2D2D"/>
<stop offset="0.79" stop-color="#DF3030"/>
<stop offset="0.84" stop-color="#DC2E2E"/>
<stop offset="0.88" stop-color="#D22626"/>
<stop offset="0.92" stop-color="#C11919"/>
<stop offset="0.95" stop-color="#A90808"/>
<stop offset="0.97" stop-color="#9F0000"/>
<stop offset="1" stop-color="#DF3030"/>
</linearGradient>
<linearGradient id="paint19_linear_170_2415" x1="72.6699" y1="153.575" x2="244.203" y2="153.575" gradientUnits="userSpaceOnUse">
<stop stop-color="#DFDFDF"/>
<stop offset="0.02" stop-color="#E1E1E1"/>
<stop offset="0.24" stop-color="#F2F2F2"/>
<stop offset="0.49" stop-color="#FCFCFC"/>
<stop offset="0.79" stop-color="white"/>
<stop offset="0.84" stop-color="#FCFCFC"/>
<stop offset="0.88" stop-color="#F2F2F2"/>
<stop offset="0.92" stop-color="#E1E1E1"/>
<stop offset="0.95" stop-color="#C9C9C9"/>
<stop offset="0.97" stop-color="#BFBFBF"/>
<stop offset="1" stop-color="white"/>
</linearGradient>
<linearGradient id="paint20_linear_170_2415" x1="3662.34" y1="1852.14" x2="12609.5" y2="1852.14" gradientUnits="userSpaceOnUse">
<stop stop-color="#DFDFDF"/>
<stop offset="0.02" stop-color="#E1E1E1"/>
<stop offset="0.24" stop-color="#F2F2F2"/>
<stop offset="0.49" stop-color="#FCFCFC"/>
<stop offset="0.79" stop-color="white"/>
<stop offset="0.84" stop-color="#FCFCFC"/>
<stop offset="0.88" stop-color="#F2F2F2"/>
<stop offset="0.92" stop-color="#E1E1E1"/>
<stop offset="0.95" stop-color="#C9C9C9"/>
<stop offset="0.97" stop-color="#BFBFBF"/>
<stop offset="1" stop-color="white"/>
</linearGradient>
<linearGradient id="paint21_linear_170_2415" x1="3665.62" y1="2008.73" x2="12621.4" y2="2008.73" gradientUnits="userSpaceOnUse">
<stop stop-color="#DFDFDF"/>
<stop offset="0.02" stop-color="#E1E1E1"/>
<stop offset="0.24" stop-color="#F2F2F2"/>
<stop offset="0.49" stop-color="#FCFCFC"/>
<stop offset="0.79" stop-color="white"/>
<stop offset="0.84" stop-color="#FCFCFC"/>
<stop offset="0.88" stop-color="#F2F2F2"/>
<stop offset="0.92" stop-color="#E1E1E1"/>
<stop offset="0.95" stop-color="#C9C9C9"/>
<stop offset="0.97" stop-color="#BFBFBF"/>
<stop offset="1" stop-color="white"/>
</linearGradient>
<linearGradient id="paint22_linear_170_2415" x1="72.6699" y1="150.751" x2="244.203" y2="150.751" gradientUnits="userSpaceOnUse">
<stop stop-color="#00209F"/>
<stop offset="0.02" stop-color="#0222A1"/>
<stop offset="0.24" stop-color="#1333B2"/>
<stop offset="0.49" stop-color="#1D3DBC"/>
<stop offset="0.79" stop-color="#2040BF"/>
<stop offset="0.84" stop-color="#1E3DBC"/>
<stop offset="0.88" stop-color="#1933B2"/>
<stop offset="0.92" stop-color="#1122A1"/>
<stop offset="0.95" stop-color="#050A89"/>
<stop offset="0.97" stop-color="#00007F"/>
<stop offset="1" stop-color="#2040BF"/>
</linearGradient>
<linearGradient id="paint23_linear_170_2415" x1="227.551" y1="376.872" x2="572.333" y2="376.872" gradientUnits="userSpaceOnUse">
<stop stop-color="#DFDFDF"/>
<stop offset="0.02" stop-color="#E1E1E1"/>
<stop offset="0.24" stop-color="#F2F2F2"/>
<stop offset="0.49" stop-color="#FCFCFC"/>
<stop offset="0.79" stop-color="white"/>
<stop offset="0.84" stop-color="#FCFCFC"/>
<stop offset="0.88" stop-color="#F2F2F2"/>
<stop offset="0.92" stop-color="#E1E1E1"/>
<stop offset="0.95" stop-color="#C9C9C9"/>
<stop offset="0.97" stop-color="#BFBFBF"/>
<stop offset="1" stop-color="white"/>
</linearGradient>
<linearGradient id="paint24_linear_170_2415" x1="235.464" y1="465.866" x2="581.961" y2="465.866" gradientUnits="userSpaceOnUse">
<stop stop-color="#DFDFDF"/>
<stop offset="0.02" stop-color="#E1E1E1"/>
<stop offset="0.24" stop-color="#F2F2F2"/>
<stop offset="0.49" stop-color="#FCFCFC"/>
<stop offset="0.79" stop-color="white"/>
<stop offset="0.84" stop-color="#FCFCFC"/>
<stop offset="0.88" stop-color="#F2F2F2"/>
<stop offset="0.92" stop-color="#E1E1E1"/>
<stop offset="0.95" stop-color="#C9C9C9"/>
<stop offset="0.97" stop-color="#BFBFBF"/>
<stop offset="1" stop-color="white"/>
</linearGradient>
<linearGradient id="paint25_linear_170_2415" x1="235.464" y1="501.798" x2="581.961" y2="501.798" gradientUnits="userSpaceOnUse">
<stop stop-color="#DFDFDF"/>
<stop offset="0.02" stop-color="#E1E1E1"/>
<stop offset="0.24" stop-color="#F2F2F2"/>
<stop offset="0.49" stop-color="#FCFCFC"/>
<stop offset="0.79" stop-color="white"/>
<stop offset="0.84" stop-color="#FCFCFC"/>
<stop offset="0.88" stop-color="#F2F2F2"/>
<stop offset="0.92" stop-color="#E1E1E1"/>
<stop offset="0.95" stop-color="#C9C9C9"/>
<stop offset="0.97" stop-color="#BFBFBF"/>
<stop offset="1" stop-color="white"/>
</linearGradient>
<linearGradient id="paint26_linear_170_2415" x1="227.551" y1="450.376" x2="572.333" y2="450.376" gradientUnits="userSpaceOnUse">
<stop stop-color="#DFDFDF"/>
<stop offset="0.02" stop-color="#E1E1E1"/>
<stop offset="0.24" stop-color="#F2F2F2"/>
<stop offset="0.49" stop-color="#FCFCFC"/>
<stop offset="0.79" stop-color="white"/>
<stop offset="0.84" stop-color="#FCFCFC"/>
<stop offset="0.88" stop-color="#F2F2F2"/>
<stop offset="0.92" stop-color="#E1E1E1"/>
<stop offset="0.95" stop-color="#C9C9C9"/>
<stop offset="0.97" stop-color="#BFBFBF"/>
<stop offset="1" stop-color="white"/>
</linearGradient>
<linearGradient id="paint27_linear_170_2415" x1="227.551" y1="486.431" x2="572.333" y2="486.431" gradientUnits="userSpaceOnUse">
<stop stop-color="#DFDFDF"/>
<stop offset="0.02" stop-color="#E1E1E1"/>
<stop offset="0.24" stop-color="#F2F2F2"/>
<stop offset="0.49" stop-color="#FCFCFC"/>
<stop offset="0.79" stop-color="white"/>
<stop offset="0.84" stop-color="#FCFCFC"/>
<stop offset="0.88" stop-color="#F2F2F2"/>
<stop offset="0.92" stop-color="#E1E1E1"/>
<stop offset="0.95" stop-color="#C9C9C9"/>
<stop offset="0.97" stop-color="#BFBFBF"/>
<stop offset="1" stop-color="white"/>
</linearGradient>
<linearGradient id="paint28_linear_170_2415" x1="227.551" y1="414.291" x2="572.333" y2="414.291" gradientUnits="userSpaceOnUse">
<stop stop-color="#DFDFDF"/>
<stop offset="0.02" stop-color="#E1E1E1"/>
<stop offset="0.24" stop-color="#F2F2F2"/>
<stop offset="0.49" stop-color="#FCFCFC"/>
<stop offset="0.79" stop-color="white"/>
<stop offset="0.84" stop-color="#FCFCFC"/>
<stop offset="0.88" stop-color="#F2F2F2"/>
<stop offset="0.92" stop-color="#E1E1E1"/>
<stop offset="0.95" stop-color="#C9C9C9"/>
<stop offset="0.97" stop-color="#BFBFBF"/>
<stop offset="1" stop-color="white"/>
</linearGradient>
<linearGradient id="paint29_linear_170_2415" x1="250.118" y1="509.149" x2="596.681" y2="509.149" gradientUnits="userSpaceOnUse">
<stop stop-color="#DFDFDF"/>
<stop offset="0.02" stop-color="#E1E1E1"/>
<stop offset="0.24" stop-color="#F2F2F2"/>
<stop offset="0.49" stop-color="#FCFCFC"/>
<stop offset="0.79" stop-color="white"/>
<stop offset="0.84" stop-color="#FCFCFC"/>
<stop offset="0.88" stop-color="#F2F2F2"/>
<stop offset="0.92" stop-color="#E1E1E1"/>
<stop offset="0.95" stop-color="#C9C9C9"/>
<stop offset="0.97" stop-color="#BFBFBF"/>
<stop offset="1" stop-color="white"/>
</linearGradient>
<linearGradient id="paint30_linear_170_2415" x1="235.464" y1="432.833" x2="581.961" y2="432.833" gradientUnits="userSpaceOnUse">
<stop stop-color="#DFDFDF"/>
<stop offset="0.02" stop-color="#E1E1E1"/>
<stop offset="0.24" stop-color="#F2F2F2"/>
<stop offset="0.49" stop-color="#FCFCFC"/>
<stop offset="0.79" stop-color="white"/>
<stop offset="0.84" stop-color="#FCFCFC"/>
<stop offset="0.88" stop-color="#F2F2F2"/>
<stop offset="0.92" stop-color="#E1E1E1"/>
<stop offset="0.95" stop-color="#C9C9C9"/>
<stop offset="0.97" stop-color="#BFBFBF"/>
<stop offset="1" stop-color="white"/>
</linearGradient>
<linearGradient id="paint31_linear_170_2415" x1="242.79" y1="482.516" x2="589.287" y2="482.516" gradientUnits="userSpaceOnUse">
<stop stop-color="#DFDFDF"/>
<stop offset="0.02" stop-color="#E1E1E1"/>
<stop offset="0.24" stop-color="#F2F2F2"/>
<stop offset="0.49" stop-color="#FCFCFC"/>
<stop offset="0.79" stop-color="white"/>
<stop offset="0.84" stop-color="#FCFCFC"/>
<stop offset="0.88" stop-color="#F2F2F2"/>
<stop offset="0.92" stop-color="#E1E1E1"/>
<stop offset="0.95" stop-color="#C9C9C9"/>
<stop offset="0.97" stop-color="#BFBFBF"/>
<stop offset="1" stop-color="white"/>
</linearGradient>
<linearGradient id="paint32_linear_170_2415" x1="242.79" y1="527.433" x2="589.287" y2="527.433" gradientUnits="userSpaceOnUse">
<stop stop-color="#DFDFDF"/>
<stop offset="0.02" stop-color="#E1E1E1"/>
<stop offset="0.24" stop-color="#F2F2F2"/>
<stop offset="0.49" stop-color="#FCFCFC"/>
<stop offset="0.79" stop-color="white"/>
<stop offset="0.84" stop-color="#FCFCFC"/>
<stop offset="0.88" stop-color="#F2F2F2"/>
<stop offset="0.92" stop-color="#E1E1E1"/>
<stop offset="0.95" stop-color="#C9C9C9"/>
<stop offset="0.97" stop-color="#BFBFBF"/>
<stop offset="1" stop-color="white"/>
</linearGradient>
<linearGradient id="paint33_linear_170_2415" x1="235.464" y1="395.232" x2="581.961" y2="395.232" gradientUnits="userSpaceOnUse">
<stop stop-color="#DFDFDF"/>
<stop offset="0.02" stop-color="#E1E1E1"/>
<stop offset="0.24" stop-color="#F2F2F2"/>
<stop offset="0.49" stop-color="#FCFCFC"/>
<stop offset="0.79" stop-color="white"/>
<stop offset="0.84" stop-color="#FCFCFC"/>
<stop offset="0.88" stop-color="#F2F2F2"/>
<stop offset="0.92" stop-color="#E1E1E1"/>
<stop offset="0.95" stop-color="#C9C9C9"/>
<stop offset="0.97" stop-color="#BFBFBF"/>
<stop offset="1" stop-color="white"/>
</linearGradient>
<linearGradient id="paint34_linear_170_2415" x1="242.79" y1="446.52" x2="589.287" y2="446.52" gradientUnits="userSpaceOnUse">
<stop stop-color="#DFDFDF"/>
<stop offset="0.02" stop-color="#E1E1E1"/>
<stop offset="0.24" stop-color="#F2F2F2"/>
<stop offset="0.49" stop-color="#FCFCFC"/>
<stop offset="0.79" stop-color="white"/>
<stop offset="0.84" stop-color="#FCFCFC"/>
<stop offset="0.88" stop-color="#F2F2F2"/>
<stop offset="0.92" stop-color="#E1E1E1"/>
<stop offset="0.95" stop-color="#C9C9C9"/>
<stop offset="0.97" stop-color="#BFBFBF"/>
<stop offset="1" stop-color="white"/>
</linearGradient>
<linearGradient id="paint35_linear_170_2415" x1="227.551" y1="520.758" x2="572.333" y2="520.758" gradientUnits="userSpaceOnUse">
<stop stop-color="#DFDFDF"/>
<stop offset="0.02" stop-color="#E1E1E1"/>
<stop offset="0.24" stop-color="#F2F2F2"/>
<stop offset="0.49" stop-color="#FCFCFC"/>
<stop offset="0.79" stop-color="white"/>
<stop offset="0.84" stop-color="#FCFCFC"/>
<stop offset="0.88" stop-color="#F2F2F2"/>
<stop offset="0.92" stop-color="#E1E1E1"/>
<stop offset="0.95" stop-color="#C9C9C9"/>
<stop offset="0.97" stop-color="#BFBFBF"/>
<stop offset="1" stop-color="white"/>
</linearGradient>
<linearGradient id="paint36_linear_170_2415" x1="213.52" y1="449.954" x2="560.084" y2="449.954" gradientUnits="userSpaceOnUse">
<stop stop-color="#DFDFDF"/>
<stop offset="0.02" stop-color="#E1E1E1"/>
<stop offset="0.24" stop-color="#F2F2F2"/>
<stop offset="0.49" stop-color="#FCFCFC"/>
<stop offset="0.79" stop-color="white"/>
<stop offset="0.84" stop-color="#FCFCFC"/>
<stop offset="0.88" stop-color="#F2F2F2"/>
<stop offset="0.92" stop-color="#E1E1E1"/>
<stop offset="0.95" stop-color="#C9C9C9"/>
<stop offset="0.97" stop-color="#BFBFBF"/>
<stop offset="1" stop-color="white"/>
</linearGradient>
<linearGradient id="paint37_linear_170_2415" x1="213.52" y1="413.958" x2="560.084" y2="413.958" gradientUnits="userSpaceOnUse">
<stop stop-color="#DFDFDF"/>
<stop offset="0.02" stop-color="#E1E1E1"/>
<stop offset="0.24" stop-color="#F2F2F2"/>
<stop offset="0.49" stop-color="#FCFCFC"/>
<stop offset="0.79" stop-color="white"/>
<stop offset="0.84" stop-color="#FCFCFC"/>
<stop offset="0.88" stop-color="#F2F2F2"/>
<stop offset="0.92" stop-color="#E1E1E1"/>
<stop offset="0.95" stop-color="#C9C9C9"/>
<stop offset="0.97" stop-color="#BFBFBF"/>
<stop offset="1" stop-color="white"/>
</linearGradient>
<linearGradient id="paint38_linear_170_2415" x1="213.52" y1="523.709" x2="559.952" y2="523.709" gradientUnits="userSpaceOnUse">
<stop stop-color="#DFDFDF"/>
<stop offset="0.02" stop-color="#E1E1E1"/>
<stop offset="0.24" stop-color="#F2F2F2"/>
<stop offset="0.49" stop-color="#FCFCFC"/>
<stop offset="0.79" stop-color="white"/>
<stop offset="0.84" stop-color="#FCFCFC"/>
<stop offset="0.88" stop-color="#F2F2F2"/>
<stop offset="0.92" stop-color="#E1E1E1"/>
<stop offset="0.95" stop-color="#C9C9C9"/>
<stop offset="0.97" stop-color="#BFBFBF"/>
<stop offset="1" stop-color="white"/>
</linearGradient>
<linearGradient id="paint39_linear_170_2415" x1="242.79" y1="419.084" x2="589.287" y2="419.084" gradientUnits="userSpaceOnUse">
<stop stop-color="#DFDFDF"/>
<stop offset="0.02" stop-color="#E1E1E1"/>
<stop offset="0.24" stop-color="#F2F2F2"/>
<stop offset="0.49" stop-color="#FCFCFC"/>
<stop offset="0.79" stop-color="white"/>
<stop offset="0.84" stop-color="#FCFCFC"/>
<stop offset="0.88" stop-color="#F2F2F2"/>
<stop offset="0.92" stop-color="#E1E1E1"/>
<stop offset="0.95" stop-color="#C9C9C9"/>
<stop offset="0.97" stop-color="#BFBFBF"/>
<stop offset="1" stop-color="white"/>
</linearGradient>
<linearGradient id="paint40_linear_170_2415" x1="242.79" y1="381.09" x2="589.287" y2="381.09" gradientUnits="userSpaceOnUse">
<stop stop-color="#DFDFDF"/>
<stop offset="0.02" stop-color="#E1E1E1"/>
<stop offset="0.24" stop-color="#F2F2F2"/>
<stop offset="0.49" stop-color="#FCFCFC"/>
<stop offset="0.79" stop-color="white"/>
<stop offset="0.84" stop-color="#FCFCFC"/>
<stop offset="0.88" stop-color="#F2F2F2"/>
<stop offset="0.92" stop-color="#E1E1E1"/>
<stop offset="0.95" stop-color="#C9C9C9"/>
<stop offset="0.97" stop-color="#BFBFBF"/>
<stop offset="1" stop-color="white"/>
</linearGradient>
<linearGradient id="paint41_linear_170_2415" x1="213.52" y1="489.427" x2="560.018" y2="489.427" gradientUnits="userSpaceOnUse">
<stop stop-color="#DFDFDF"/>
<stop offset="0.02" stop-color="#E1E1E1"/>
<stop offset="0.24" stop-color="#F2F2F2"/>
<stop offset="0.49" stop-color="#FCFCFC"/>
<stop offset="0.79" stop-color="white"/>
<stop offset="0.84" stop-color="#FCFCFC"/>
<stop offset="0.88" stop-color="#F2F2F2"/>
<stop offset="0.92" stop-color="#E1E1E1"/>
<stop offset="0.95" stop-color="#C9C9C9"/>
<stop offset="0.97" stop-color="#BFBFBF"/>
<stop offset="1" stop-color="white"/>
</linearGradient>
<linearGradient id="paint42_linear_170_2415" x1="220.848" y1="396.907" x2="567.346" y2="396.907" gradientUnits="userSpaceOnUse">
<stop stop-color="#DFDFDF"/>
<stop offset="0.02" stop-color="#E1E1E1"/>
<stop offset="0.24" stop-color="#F2F2F2"/>
<stop offset="0.49" stop-color="#FCFCFC"/>
<stop offset="0.79" stop-color="white"/>
<stop offset="0.84" stop-color="#FCFCFC"/>
<stop offset="0.88" stop-color="#F2F2F2"/>
<stop offset="0.92" stop-color="#E1E1E1"/>
<stop offset="0.95" stop-color="#C9C9C9"/>
<stop offset="0.97" stop-color="#BFBFBF"/>
<stop offset="1" stop-color="white"/>
</linearGradient>
<linearGradient id="paint43_linear_170_2415" x1="220.848" y1="433.026" x2="567.346" y2="433.026" gradientUnits="userSpaceOnUse">
<stop stop-color="#DFDFDF"/>
<stop offset="0.02" stop-color="#E1E1E1"/>
<stop offset="0.24" stop-color="#F2F2F2"/>
<stop offset="0.49" stop-color="#FCFCFC"/>
<stop offset="0.79" stop-color="white"/>
<stop offset="0.84" stop-color="#FCFCFC"/>
<stop offset="0.88" stop-color="#F2F2F2"/>
<stop offset="0.92" stop-color="#E1E1E1"/>
<stop offset="0.95" stop-color="#C9C9C9"/>
<stop offset="0.97" stop-color="#BFBFBF"/>
<stop offset="1" stop-color="white"/>
</linearGradient>
<linearGradient id="paint44_linear_170_2415" x1="220.882" y1="503.467" x2="567.379" y2="503.467" gradientUnits="userSpaceOnUse">
<stop stop-color="#DFDFDF"/>
<stop offset="0.02" stop-color="#E1E1E1"/>
<stop offset="0.24" stop-color="#F2F2F2"/>
<stop offset="0.49" stop-color="#FCFCFC"/>
<stop offset="0.79" stop-color="white"/>
<stop offset="0.84" stop-color="#FCFCFC"/>
<stop offset="0.88" stop-color="#F2F2F2"/>
<stop offset="0.92" stop-color="#E1E1E1"/>
<stop offset="0.95" stop-color="#C9C9C9"/>
<stop offset="0.97" stop-color="#BFBFBF"/>
<stop offset="1" stop-color="white"/>
</linearGradient>
<linearGradient id="paint45_linear_170_2415" x1="220.848" y1="470.623" x2="567.346" y2="470.623" gradientUnits="userSpaceOnUse">
<stop stop-color="#DFDFDF"/>
<stop offset="0.02" stop-color="#E1E1E1"/>
<stop offset="0.24" stop-color="#F2F2F2"/>
<stop offset="0.49" stop-color="#FCFCFC"/>
<stop offset="0.79" stop-color="white"/>
<stop offset="0.84" stop-color="#FCFCFC"/>
<stop offset="0.88" stop-color="#F2F2F2"/>
<stop offset="0.92" stop-color="#E1E1E1"/>
<stop offset="0.95" stop-color="#C9C9C9"/>
<stop offset="0.97" stop-color="#BFBFBF"/>
<stop offset="1" stop-color="white"/>
</linearGradient>
<linearGradient id="paint46_linear_170_2415" x1="213.52" y1="379.267" x2="560.084" y2="379.267" gradientUnits="userSpaceOnUse">
<stop stop-color="#DFDFDF"/>
<stop offset="0.02" stop-color="#E1E1E1"/>
<stop offset="0.24" stop-color="#F2F2F2"/>
<stop offset="0.49" stop-color="#FCFCFC"/>
<stop offset="0.79" stop-color="white"/>
<stop offset="0.84" stop-color="#FCFCFC"/>
<stop offset="0.88" stop-color="#F2F2F2"/>
<stop offset="0.92" stop-color="#E1E1E1"/>
<stop offset="0.95" stop-color="#C9C9C9"/>
<stop offset="0.97" stop-color="#BFBFBF"/>
<stop offset="1" stop-color="white"/>
</linearGradient>
<linearGradient id="paint47_linear_170_2415" x1="250.118" y1="472.449" x2="596.681" y2="472.449" gradientUnits="userSpaceOnUse">
<stop stop-color="#DFDFDF"/>
<stop offset="0.02" stop-color="#E1E1E1"/>
<stop offset="0.24" stop-color="#F2F2F2"/>
<stop offset="0.49" stop-color="#FCFCFC"/>
<stop offset="0.79" stop-color="white"/>
<stop offset="0.84" stop-color="#FCFCFC"/>
<stop offset="0.88" stop-color="#F2F2F2"/>
<stop offset="0.92" stop-color="#E1E1E1"/>
<stop offset="0.95" stop-color="#C9C9C9"/>
<stop offset="0.97" stop-color="#BFBFBF"/>
<stop offset="1" stop-color="white"/>
</linearGradient>
<linearGradient id="paint48_linear_170_2415" x1="279.421" y1="467.841" x2="625.852" y2="467.841" gradientUnits="userSpaceOnUse">
<stop stop-color="#DFDFDF"/>
<stop offset="0.02" stop-color="#E1E1E1"/>
<stop offset="0.24" stop-color="#F2F2F2"/>
<stop offset="0.49" stop-color="#FCFCFC"/>
<stop offset="0.79" stop-color="white"/>
<stop offset="0.84" stop-color="#FCFCFC"/>
<stop offset="0.88" stop-color="#F2F2F2"/>
<stop offset="0.92" stop-color="#E1E1E1"/>
<stop offset="0.95" stop-color="#C9C9C9"/>
<stop offset="0.97" stop-color="#BFBFBF"/>
<stop offset="1" stop-color="white"/>
</linearGradient>
<linearGradient id="paint49_linear_170_2415" x1="279.421" y1="430.74" x2="625.852" y2="430.74" gradientUnits="userSpaceOnUse">
<stop stop-color="#DFDFDF"/>
<stop offset="0.02" stop-color="#E1E1E1"/>
<stop offset="0.24" stop-color="#F2F2F2"/>
<stop offset="0.49" stop-color="#FCFCFC"/>
<stop offset="0.79" stop-color="white"/>
<stop offset="0.84" stop-color="#FCFCFC"/>
<stop offset="0.88" stop-color="#F2F2F2"/>
<stop offset="0.92" stop-color="#E1E1E1"/>
<stop offset="0.95" stop-color="#C9C9C9"/>
<stop offset="0.97" stop-color="#BFBFBF"/>
<stop offset="1" stop-color="white"/>
</linearGradient>
<linearGradient id="paint50_linear_170_2415" x1="279.421" y1="504.811" x2="625.852" y2="504.811" gradientUnits="userSpaceOnUse">
<stop stop-color="#DFDFDF"/>
<stop offset="0.02" stop-color="#E1E1E1"/>
<stop offset="0.24" stop-color="#F2F2F2"/>
<stop offset="0.49" stop-color="#FCFCFC"/>
<stop offset="0.79" stop-color="white"/>
<stop offset="0.84" stop-color="#FCFCFC"/>
<stop offset="0.88" stop-color="#F2F2F2"/>
<stop offset="0.92" stop-color="#E1E1E1"/>
<stop offset="0.95" stop-color="#C9C9C9"/>
<stop offset="0.97" stop-color="#BFBFBF"/>
<stop offset="1" stop-color="white"/>
</linearGradient>
<linearGradient id="paint51_linear_170_2415" x1="271.369" y1="409.348" x2="616.217" y2="409.348" gradientUnits="userSpaceOnUse">
<stop stop-color="#DFDFDF"/>
<stop offset="0.02" stop-color="#E1E1E1"/>
<stop offset="0.24" stop-color="#F2F2F2"/>
<stop offset="0.49" stop-color="#FCFCFC"/>
<stop offset="0.79" stop-color="white"/>
<stop offset="0.84" stop-color="#FCFCFC"/>
<stop offset="0.88" stop-color="#F2F2F2"/>
<stop offset="0.92" stop-color="#E1E1E1"/>
<stop offset="0.95" stop-color="#C9C9C9"/>
<stop offset="0.97" stop-color="#BFBFBF"/>
<stop offset="1" stop-color="white"/>
</linearGradient>
<linearGradient id="paint52_linear_170_2415" x1="279.421" y1="393.639" x2="625.852" y2="393.639" gradientUnits="userSpaceOnUse">
<stop stop-color="#DFDFDF"/>
<stop offset="0.02" stop-color="#E1E1E1"/>
<stop offset="0.24" stop-color="#F2F2F2"/>
<stop offset="0.49" stop-color="#FCFCFC"/>
<stop offset="0.79" stop-color="white"/>
<stop offset="0.84" stop-color="#FCFCFC"/>
<stop offset="0.88" stop-color="#F2F2F2"/>
<stop offset="0.92" stop-color="#E1E1E1"/>
<stop offset="0.95" stop-color="#C9C9C9"/>
<stop offset="0.97" stop-color="#BFBFBF"/>
<stop offset="1" stop-color="white"/>
</linearGradient>
<linearGradient id="paint53_linear_170_2415" x1="271.369" y1="376.599" x2="616.217" y2="376.599" gradientUnits="userSpaceOnUse">
<stop stop-color="#DFDFDF"/>
<stop offset="0.02" stop-color="#E1E1E1"/>
<stop offset="0.24" stop-color="#F2F2F2"/>
<stop offset="0.49" stop-color="#FCFCFC"/>
<stop offset="0.79" stop-color="white"/>
<stop offset="0.84" stop-color="#FCFCFC"/>
<stop offset="0.88" stop-color="#F2F2F2"/>
<stop offset="0.92" stop-color="#E1E1E1"/>
<stop offset="0.95" stop-color="#C9C9C9"/>
<stop offset="0.97" stop-color="#BFBFBF"/>
<stop offset="1" stop-color="white"/>
</linearGradient>
<linearGradient id="paint54_linear_170_2415" x1="286.673" y1="446.413" x2="633.17" y2="446.413" gradientUnits="userSpaceOnUse">
<stop stop-color="#DFDFDF"/>
<stop offset="0.02" stop-color="#E1E1E1"/>
<stop offset="0.24" stop-color="#F2F2F2"/>
<stop offset="0.49" stop-color="#FCFCFC"/>
<stop offset="0.79" stop-color="white"/>
<stop offset="0.84" stop-color="#FCFCFC"/>
<stop offset="0.88" stop-color="#F2F2F2"/>
<stop offset="0.92" stop-color="#E1E1E1"/>
<stop offset="0.95" stop-color="#C9C9C9"/>
<stop offset="0.97" stop-color="#BFBFBF"/>
<stop offset="1" stop-color="white"/>
</linearGradient>
<linearGradient id="paint55_linear_170_2415" x1="286.673" y1="409.312" x2="633.17" y2="409.312" gradientUnits="userSpaceOnUse">
<stop stop-color="#DFDFDF"/>
<stop offset="0.02" stop-color="#E1E1E1"/>
<stop offset="0.24" stop-color="#F2F2F2"/>
<stop offset="0.49" stop-color="#FCFCFC"/>
<stop offset="0.79" stop-color="white"/>
<stop offset="0.84" stop-color="#FCFCFC"/>
<stop offset="0.88" stop-color="#F2F2F2"/>
<stop offset="0.92" stop-color="#E1E1E1"/>
<stop offset="0.95" stop-color="#C9C9C9"/>
<stop offset="0.97" stop-color="#BFBFBF"/>
<stop offset="1" stop-color="white"/>
</linearGradient>
<linearGradient id="paint56_linear_170_2415" x1="286.575" y1="522.321" x2="633.073" y2="522.321" gradientUnits="userSpaceOnUse">
<stop stop-color="#DFDFDF"/>
<stop offset="0.02" stop-color="#E1E1E1"/>
<stop offset="0.24" stop-color="#F2F2F2"/>
<stop offset="0.49" stop-color="#FCFCFC"/>
<stop offset="0.79" stop-color="white"/>
<stop offset="0.84" stop-color="#FCFCFC"/>
<stop offset="0.88" stop-color="#F2F2F2"/>
<stop offset="0.92" stop-color="#E1E1E1"/>
<stop offset="0.95" stop-color="#C9C9C9"/>
<stop offset="0.97" stop-color="#BFBFBF"/>
<stop offset="1" stop-color="white"/>
</linearGradient>
<linearGradient id="paint57_linear_170_2415" x1="286.673" y1="372.375" x2="633.17" y2="372.375" gradientUnits="userSpaceOnUse">
<stop stop-color="#DFDFDF"/>
<stop offset="0.02" stop-color="#E1E1E1"/>
<stop offset="0.24" stop-color="#F2F2F2"/>
<stop offset="0.49" stop-color="#FCFCFC"/>
<stop offset="0.79" stop-color="white"/>
<stop offset="0.84" stop-color="#FCFCFC"/>
<stop offset="0.88" stop-color="#F2F2F2"/>
<stop offset="0.92" stop-color="#E1E1E1"/>
<stop offset="0.95" stop-color="#C9C9C9"/>
<stop offset="0.97" stop-color="#BFBFBF"/>
<stop offset="1" stop-color="white"/>
</linearGradient>
<linearGradient id="paint58_linear_170_2415" x1="286.673" y1="485.097" x2="633.17" y2="485.097" gradientUnits="userSpaceOnUse">
<stop stop-color="#DFDFDF"/>
<stop offset="0.02" stop-color="#E1E1E1"/>
<stop offset="0.24" stop-color="#F2F2F2"/>
<stop offset="0.49" stop-color="#FCFCFC"/>
<stop offset="0.79" stop-color="white"/>
<stop offset="0.84" stop-color="#FCFCFC"/>
<stop offset="0.88" stop-color="#F2F2F2"/>
<stop offset="0.92" stop-color="#E1E1E1"/>
<stop offset="0.95" stop-color="#C9C9C9"/>
<stop offset="0.97" stop-color="#BFBFBF"/>
<stop offset="1" stop-color="white"/>
</linearGradient>
<linearGradient id="paint59_linear_170_2415" x1="271.369" y1="450.49" x2="616.217" y2="450.49" gradientUnits="userSpaceOnUse">
<stop stop-color="#DFDFDF"/>
<stop offset="0.02" stop-color="#E1E1E1"/>
<stop offset="0.24" stop-color="#F2F2F2"/>
<stop offset="0.49" stop-color="#FCFCFC"/>
<stop offset="0.79" stop-color="white"/>
<stop offset="0.84" stop-color="#FCFCFC"/>
<stop offset="0.88" stop-color="#F2F2F2"/>
<stop offset="0.92" stop-color="#E1E1E1"/>
<stop offset="0.95" stop-color="#C9C9C9"/>
<stop offset="0.97" stop-color="#BFBFBF"/>
<stop offset="1" stop-color="white"/>
</linearGradient>
<linearGradient id="paint60_linear_170_2415" x1="250.118" y1="399.048" x2="596.681" y2="399.048" gradientUnits="userSpaceOnUse">
<stop stop-color="#DFDFDF"/>
<stop offset="0.02" stop-color="#E1E1E1"/>
<stop offset="0.24" stop-color="#F2F2F2"/>
<stop offset="0.49" stop-color="#FCFCFC"/>
<stop offset="0.79" stop-color="white"/>
<stop offset="0.84" stop-color="#FCFCFC"/>
<stop offset="0.88" stop-color="#F2F2F2"/>
<stop offset="0.92" stop-color="#E1E1E1"/>
<stop offset="0.95" stop-color="#C9C9C9"/>
<stop offset="0.97" stop-color="#BFBFBF"/>
<stop offset="1" stop-color="white"/>
</linearGradient>
<linearGradient id="paint61_linear_170_2415" x1="257.403" y1="490.467" x2="603.901" y2="490.467" gradientUnits="userSpaceOnUse">
<stop stop-color="#DFDFDF"/>
<stop offset="0.02" stop-color="#E1E1E1"/>
<stop offset="0.24" stop-color="#F2F2F2"/>
<stop offset="0.49" stop-color="#FCFCFC"/>
<stop offset="0.79" stop-color="white"/>
<stop offset="0.84" stop-color="#FCFCFC"/>
<stop offset="0.88" stop-color="#F2F2F2"/>
<stop offset="0.92" stop-color="#E1E1E1"/>
<stop offset="0.95" stop-color="#C9C9C9"/>
<stop offset="0.97" stop-color="#BFBFBF"/>
<stop offset="1" stop-color="white"/>
</linearGradient>
<linearGradient id="paint62_linear_170_2415" x1="274.81" y1="492.338" x2="628.236" y2="492.338" gradientUnits="userSpaceOnUse">
<stop stop-color="#DFDFDF"/>
<stop offset="0.02" stop-color="#E1E1E1"/>
<stop offset="0.24" stop-color="#F2F2F2"/>
<stop offset="0.49" stop-color="#FCFCFC"/>
<stop offset="0.79" stop-color="white"/>
<stop offset="0.84" stop-color="#FCFCFC"/>
<stop offset="0.88" stop-color="#F2F2F2"/>
<stop offset="0.92" stop-color="#E1E1E1"/>
<stop offset="0.95" stop-color="#C9C9C9"/>
<stop offset="0.97" stop-color="#BFBFBF"/>
<stop offset="1" stop-color="white"/>
</linearGradient>
<linearGradient id="paint63_linear_170_2415" x1="257.403" y1="416.756" x2="603.901" y2="416.756" gradientUnits="userSpaceOnUse">
<stop stop-color="#DFDFDF"/>
<stop offset="0.02" stop-color="#E1E1E1"/>
<stop offset="0.24" stop-color="#F2F2F2"/>
<stop offset="0.49" stop-color="#FCFCFC"/>
<stop offset="0.79" stop-color="white"/>
<stop offset="0.84" stop-color="#FCFCFC"/>
<stop offset="0.88" stop-color="#F2F2F2"/>
<stop offset="0.92" stop-color="#E1E1E1"/>
<stop offset="0.95" stop-color="#C9C9C9"/>
<stop offset="0.97" stop-color="#BFBFBF"/>
<stop offset="1" stop-color="white"/>
</linearGradient>
<linearGradient id="paint64_linear_170_2415" x1="257.403" y1="527.487" x2="603.901" y2="527.487" gradientUnits="userSpaceOnUse">
<stop stop-color="#DFDFDF"/>
<stop offset="0.02" stop-color="#E1E1E1"/>
<stop offset="0.24" stop-color="#F2F2F2"/>
<stop offset="0.49" stop-color="#FCFCFC"/>
<stop offset="0.79" stop-color="white"/>
<stop offset="0.84" stop-color="#FCFCFC"/>
<stop offset="0.88" stop-color="#F2F2F2"/>
<stop offset="0.92" stop-color="#E1E1E1"/>
<stop offset="0.95" stop-color="#C9C9C9"/>
<stop offset="0.97" stop-color="#BFBFBF"/>
<stop offset="1" stop-color="white"/>
</linearGradient>
<linearGradient id="paint65_linear_170_2415" x1="250.118" y1="435.715" x2="596.681" y2="435.715" gradientUnits="userSpaceOnUse">
<stop stop-color="#DFDFDF"/>
<stop offset="0.02" stop-color="#E1E1E1"/>
<stop offset="0.24" stop-color="#F2F2F2"/>
<stop offset="0.49" stop-color="#FCFCFC"/>
<stop offset="0.79" stop-color="white"/>
<stop offset="0.84" stop-color="#FCFCFC"/>
<stop offset="0.88" stop-color="#F2F2F2"/>
<stop offset="0.92" stop-color="#E1E1E1"/>
<stop offset="0.95" stop-color="#C9C9C9"/>
<stop offset="0.97" stop-color="#BFBFBF"/>
<stop offset="1" stop-color="white"/>
</linearGradient>
<linearGradient id="paint66_linear_170_2415" x1="258.091" y1="378.652" x2="606.372" y2="378.652" gradientUnits="userSpaceOnUse">
<stop stop-color="#DFDFDF"/>
<stop offset="0.02" stop-color="#E1E1E1"/>
<stop offset="0.24" stop-color="#F2F2F2"/>
<stop offset="0.49" stop-color="#FCFCFC"/>
<stop offset="0.79" stop-color="white"/>
<stop offset="0.84" stop-color="#FCFCFC"/>
<stop offset="0.88" stop-color="#F2F2F2"/>
<stop offset="0.92" stop-color="#E1E1E1"/>
<stop offset="0.95" stop-color="#C9C9C9"/>
<stop offset="0.97" stop-color="#BFBFBF"/>
<stop offset="1" stop-color="white"/>
</linearGradient>
<linearGradient id="paint67_linear_170_2415" x1="257.403" y1="453.611" x2="603.901" y2="453.611" gradientUnits="userSpaceOnUse">
<stop stop-color="#DFDFDF"/>
<stop offset="0.02" stop-color="#E1E1E1"/>
<stop offset="0.24" stop-color="#F2F2F2"/>
<stop offset="0.49" stop-color="#FCFCFC"/>
<stop offset="0.79" stop-color="white"/>
<stop offset="0.84" stop-color="#FCFCFC"/>
<stop offset="0.88" stop-color="#F2F2F2"/>
<stop offset="0.92" stop-color="#E1E1E1"/>
<stop offset="0.95" stop-color="#C9C9C9"/>
<stop offset="0.97" stop-color="#BFBFBF"/>
<stop offset="1" stop-color="white"/>
</linearGradient>
<linearGradient id="paint68_linear_170_2415" x1="271.369" y1="526.172" x2="616.217" y2="526.172" gradientUnits="userSpaceOnUse">
<stop stop-color="#DFDFDF"/>
<stop offset="0.02" stop-color="#E1E1E1"/>
<stop offset="0.24" stop-color="#F2F2F2"/>
<stop offset="0.49" stop-color="#FCFCFC"/>
<stop offset="0.79" stop-color="white"/>
<stop offset="0.84" stop-color="#FCFCFC"/>
<stop offset="0.88" stop-color="#F2F2F2"/>
<stop offset="0.92" stop-color="#E1E1E1"/>
<stop offset="0.95" stop-color="#C9C9C9"/>
<stop offset="0.97" stop-color="#BFBFBF"/>
<stop offset="1" stop-color="white"/>
</linearGradient>
<linearGradient id="paint69_linear_170_2415" x1="264.731" y1="508.398" x2="611.229" y2="508.398" gradientUnits="userSpaceOnUse">
<stop stop-color="#DFDFDF"/>
<stop offset="0.02" stop-color="#E1E1E1"/>
<stop offset="0.24" stop-color="#F2F2F2"/>
<stop offset="0.49" stop-color="#FCFCFC"/>
<stop offset="0.79" stop-color="white"/>
<stop offset="0.84" stop-color="#FCFCFC"/>
<stop offset="0.88" stop-color="#F2F2F2"/>
<stop offset="0.92" stop-color="#E1E1E1"/>
<stop offset="0.95" stop-color="#C9C9C9"/>
<stop offset="0.97" stop-color="#BFBFBF"/>
<stop offset="1" stop-color="white"/>
</linearGradient>
<linearGradient id="paint70_linear_170_2415" x1="264.731" y1="397.494" x2="611.229" y2="397.494" gradientUnits="userSpaceOnUse">
<stop stop-color="#DFDFDF"/>
<stop offset="0.02" stop-color="#E1E1E1"/>
<stop offset="0.24" stop-color="#F2F2F2"/>
<stop offset="0.49" stop-color="#FCFCFC"/>
<stop offset="0.79" stop-color="white"/>
<stop offset="0.84" stop-color="#FCFCFC"/>
<stop offset="0.88" stop-color="#F2F2F2"/>
<stop offset="0.92" stop-color="#E1E1E1"/>
<stop offset="0.95" stop-color="#C9C9C9"/>
<stop offset="0.97" stop-color="#BFBFBF"/>
<stop offset="1" stop-color="white"/>
</linearGradient>
<linearGradient id="paint71_linear_170_2415" x1="264.731" y1="476.194" x2="611.229" y2="476.194" gradientUnits="userSpaceOnUse">
<stop stop-color="#DFDFDF"/>
<stop offset="0.02" stop-color="#E1E1E1"/>
<stop offset="0.24" stop-color="#F2F2F2"/>
<stop offset="0.49" stop-color="#FCFCFC"/>
<stop offset="0.79" stop-color="white"/>
<stop offset="0.84" stop-color="#FCFCFC"/>
<stop offset="0.88" stop-color="#F2F2F2"/>
<stop offset="0.92" stop-color="#E1E1E1"/>
<stop offset="0.95" stop-color="#C9C9C9"/>
<stop offset="0.97" stop-color="#BFBFBF"/>
<stop offset="1" stop-color="white"/>
</linearGradient>
<linearGradient id="paint72_linear_170_2415" x1="264.731" y1="433.015" x2="611.229" y2="433.015" gradientUnits="userSpaceOnUse">
<stop stop-color="#DFDFDF"/>
<stop offset="0.02" stop-color="#E1E1E1"/>
<stop offset="0.24" stop-color="#F2F2F2"/>
<stop offset="0.49" stop-color="#FCFCFC"/>
<stop offset="0.79" stop-color="white"/>
<stop offset="0.84" stop-color="#FCFCFC"/>
<stop offset="0.88" stop-color="#F2F2F2"/>
<stop offset="0.92" stop-color="#E1E1E1"/>
<stop offset="0.95" stop-color="#C9C9C9"/>
<stop offset="0.97" stop-color="#BFBFBF"/>
<stop offset="1" stop-color="white"/>
</linearGradient>
</defs>
</svg>
