<svg width="40" height="40" viewBox="0 0 40 40" fill="none" xmlns="http://www.w3.org/2000/svg">
<g clip-path="url(#clip0_603_102)">
<path fill-rule="evenodd" clip-rule="evenodd" d="M10.444 0H29.556C32.3259 0 34.9824 1.10035 36.941 3.05898C38.8997 5.01761 40 7.67408 40 10.444V29.556C40.0001 30.9276 39.7301 32.2857 39.2053 33.5529C38.6805 34.8201 37.9112 35.9715 36.9413 36.9413C35.9715 37.9112 34.8201 38.6805 33.5529 39.2053C32.2857 39.7301 30.9276 40.0001 29.556 40H10.444C9.07244 40.0001 7.71428 39.7301 6.4471 39.2053C5.17991 38.6805 4.02852 37.9112 3.05868 36.9413C2.08884 35.9715 1.31955 34.8201 0.794735 33.5529C0.269921 32.2857 -0.000131249 30.9276 4.78531e-08 29.556V10.444C4.78531e-08 7.67408 1.10035 5.01761 3.05898 3.05898C5.01761 1.10035 7.67408 0 10.444 0ZM23.2779 29.4623L20 24.5783L22.2213 21L26.6225 27.5858L27.1291 27.3015L22 20.1608L24.1641 17L29.403 24.0241V15.3477C29.3909 15.0989 29.2544 14.8713 29.0367 14.7371L19.8341 9.61222C19.6189 9.50981 19.3459 9.5109 19.131 9.61541C19.1019 9.62953 9.95965 14.7528 9.91733 14.7822C9.74785 14.8998 9.63526 15.0739 9.59911 15.2691C9.59359 15.2986 9.58966 15.3283 9.58773 15.3587L9.60176 23.6534L8 26.036V15.286C8.03718 14.5825 8.39916 13.9423 8.99296 13.5303C9.10572 13.4522 9.22552 13.3834 9.34989 13.3257C9.34989 13.3257 18.3387 8.27856 18.4166 8.24055C19.0756 7.91958 19.8976 7.91997 20.5556 8.24078L29.8788 13.4315C30.544 13.8362 30.9687 14.5313 31 15.2906V25.6794C30.9705 26.3611 30.6432 26.9904 30.0869 27.4076L20.3949 32.8418C20.1182 32.9467 19.826 33 19.5262 33C19.1993 33 18.8365 32.931 18.5843 32.8124C18.5523 32.7974 18.4618 32.7493 18.329 32.6771C18.2432 32.6304 18.1386 32.5731 18.0213 32.5086L14.4734 30.5309L15.2799 29.2067L19.2279 31.4051C19.4061 31.4753 19.6162 31.4788 19.7959 31.416L23.1328 29.5437L23.2779 29.4623ZM10.5418 29L8.00008 27.6004H8V26.7187L9.6159 24.346L14.4191 17.2314C15.0239 16.288 16.3414 15.9841 17.5645 16.0006L19 16.0369L10.5418 29ZM23 16L19.3218 16.013L11 29.3709L13.9087 31L14.6997 29.695L23 16Z" fill="#FFFFFF"/>
</g>
<defs>
<clipPath id="clip0_603_102">
<rect width="40" height="40" fill="white"/>
</clipPath>
</defs>
</svg>
