<svg width="40" height="40" viewBox="0 0 40 40" fill="none" xmlns="http://www.w3.org/2000/svg">
<g clip-path="url(#clip0_608_137)">
<path fill-rule="evenodd" clip-rule="evenodd" d="M10.444 0H29.556C32.3259 0 34.9824 1.10035 36.941 3.05898C38.8997 5.01761 40 7.67408 40 10.444V29.556C40.0001 30.9276 39.7301 32.2857 39.2053 33.5529C38.6805 34.8201 37.9112 35.9715 36.9413 36.9413C35.9715 37.9112 34.8201 38.6805 33.5529 39.2053C32.2857 39.7301 30.9276 40.0001 29.556 40H10.444C9.07244 40.0001 7.71428 39.7301 6.4471 39.2053C5.17991 38.6805 4.02852 37.9112 3.05868 36.9413C2.08884 35.9715 1.31955 34.8201 0.794735 33.5529C0.269921 32.2857 -0.000131249 30.9276 4.78531e-08 29.556V10.444C4.78531e-08 7.67408 1.10035 5.01761 3.05898 3.05898C5.01761 1.10035 7.67408 0 10.444 0ZM17.8815 18.671C19.609 18.2608 23.3825 17.3646 22.7179 14.7574C22.0369 12.0879 18.448 13.1035 16.6977 13.5989C16.5015 13.6544 16.3284 13.7034 16.1851 13.7399L17.4675 18.7714C17.5855 18.7413 17.7251 18.7082 17.8815 18.671ZM20.0184 26.735C22.0899 26.2383 26.6155 25.153 25.8821 22.2837H25.9007C25.1534 19.3494 20.8545 20.5514 18.7523 21.1392C18.5147 21.2056 18.3051 21.2642 18.1319 21.3081L19.5258 26.8553C19.6666 26.8193 19.8326 26.7795 20.0184 26.735ZM19.944 9.72122C23.2708 9.1823 26.1005 9.52145 27.1459 12.4344H27.1273C27.9033 14.5622 27.3178 16.1047 26.0447 17.2197C28.5909 17.1872 30.4495 18.2325 30.9745 21.5125C31.6204 25.5823 28.9348 27.4035 24.753 28.7276L25.8124 32.9089L23.294 33.55L22.244 29.4245C21.5749 29.5964 20.9012 29.7636 20.2274 29.9169L21.2915 34.0332L18.7731 34.6743L17.7044 30.493L15.9016 30.9576L12.6213 31.7939L12.3564 28.6579C12.3564 28.6579 14.2289 28.1933 14.1871 28.1933C14.689 28.0993 15.021 27.618 14.9305 27.1155L13.2625 20.509L13.5273 20.4393C13.4365 20.4506 13.3465 20.4677 13.2578 20.4904L12.0451 15.7934C11.7643 15.1171 10.9933 14.7905 10.312 15.0594C10.3446 15.0129 8.486 15.5239 8.486 15.5239L7.79834 12.8293L11.2738 11.9466C11.7942 11.8119 12.3286 11.6679 12.8722 11.5145L11.8175 7.37969L14.3358 6.74785L15.3905 10.7944C16.0596 10.6086 16.7333 10.4228 17.3931 10.2555L16.3663 6.22286L18.8893 5.58173L19.944 9.72122Z" fill="#6CC64B"/>
</g>
<defs>
<clipPath id="clip0_608_137">
<rect width="40" height="40" fill="white"/>
</clipPath>
</defs>
</svg>
