<svg width="40" height="40" viewBox="0 0 40 40" fill="none" xmlns="http://www.w3.org/2000/svg">
<path fill-rule="evenodd" clip-rule="evenodd" d="M10.444 0H29.556C32.3259 0 34.9824 1.10059 36.941 3.05908C38.8997 5.01758 40 7.67432 40 10.4438V29.5562C40.0001 30.9277 39.7301 32.2856 39.2053 33.5527C38.6804 34.8203 37.9111 35.9717 36.9413 36.9414C35.9714 37.9111 34.8201 38.6807 33.5529 39.2051C32.2858 39.73 30.9276 40 29.556 40H10.444C9.07239 40 7.71423 39.73 6.44714 39.2051C5.17993 38.6807 4.02856 37.9111 3.05872 36.9414C2.08887 35.9717 1.31958 34.8203 0.794678 33.5527C0.269898 32.2856 -0.000122029 30.9277 4.13704e-08 29.5562V10.4438C4.13704e-08 7.67432 1.10034 5.01758 3.05896 3.05908C5.01758 1.10059 7.67407 0 10.444 0ZM18.5511 25.8125L28 13.0625V9.6875H21.8898V6H18.1102V9.6875H12V14.1875H21.4489L12 26.875V30.3125H18.1102V34H21.8898V30.3125H28V25.8125H18.5511Z" fill="#F3B63B"/>
</svg>
