<svg width="40" height="40" viewBox="0 0 40 40" fill="none" xmlns="http://www.w3.org/2000/svg">
<g clip-path="url(#clip0_602_65)">
<path fill-rule="evenodd" clip-rule="evenodd" d="M29.556 0H10.444C7.67408 0 5.01761 1.10035 3.05898 3.05898C1.10035 5.01761 4.78531e-08 7.67408 4.78531e-08 10.444V29.556C-0.000131249 30.9276 0.269921 32.2857 0.794735 33.5529C1.31955 34.8201 2.08884 35.9715 3.05868 36.9413C4.02852 37.9112 5.17991 38.6805 6.4471 39.2053C7.71428 39.7301 9.07244 40.0001 10.444 40H29.556C30.9276 40.0001 32.2857 39.7301 33.5529 39.2053C34.8201 38.6805 35.9715 37.9112 36.9413 36.9413C37.9112 35.9715 38.6805 34.8201 39.2053 33.5529C39.7301 32.2857 40.0001 30.9276 40 29.556V10.444C40 7.67408 38.8997 5.01761 36.941 3.05898C34.9824 1.10035 32.3259 0 29.556 0ZM10.7288 20.2966L10.7288 20.2966L10.7289 20.2966L19.9457 26.103L19.9457 15.8331L19.9457 15.833L19.9457 4L10.7288 20.2966ZM29.1645 20.2966L19.9459 4V15.833V15.8331V26.103L29.1644 20.2966L29.1645 20.2966V20.2966ZM10.7288 22.1599L19.9457 36V27.9627L10.7288 22.1599ZM19.9459 36V27.9627L29.1696 22.1599L19.9459 36Z" fill="#627EEA"/>
</g>
<defs>
<clipPath id="clip0_602_65">
<rect width="40" height="40" fill="white"/>
</clipPath>
</defs>
</svg>
