<svg width="40" height="40" viewBox="0 0 40 40" fill="none" xmlns="http://www.w3.org/2000/svg">
<path fill-rule="evenodd" clip-rule="evenodd" d="M10.444 0H29.556C32.3259 0 34.9824 1.10059 36.941 3.05908C38.8997 5.01758 40 7.67432 40 10.4438V29.5562C40.0001 30.9277 39.7301 32.2856 39.2053 33.5527C38.6804 34.8203 37.9111 35.9717 36.9413 36.9414C35.9714 37.9111 34.8201 38.6807 33.5529 39.2051C32.2858 39.73 30.9276 40 29.556 40H10.444C9.07239 40 7.71423 39.73 6.44714 39.2051C5.17993 38.6807 4.02856 37.9111 3.05872 36.9414C2.08887 35.9717 1.31958 34.8203 0.794678 33.5527C0.269898 32.2856 -0.000122029 30.9277 4.13706e-08 29.5562V10.4438C4.13706e-08 7.67432 1.10034 5.01758 3.05896 3.05908C5.01758 1.10059 7.67407 0 10.444 0ZM27.441 8.46875C27.8308 8.86426 28.318 8.96338 28.7076 8.6665C29 8.37012 29 7.87549 29 7.49023C28.9629 7.2959 28.8595 7.12061 28.7076 6.99609C28.1084 6.33447 27.2538 5.97314 26.3693 6.00684C24.3231 5.90771 22.959 6.89697 21.7898 8.47949C20.6206 10.062 20.1334 11.8423 19.6462 13.6226C19.5327 13.9106 19.4521 14.1987 19.3662 14.5063C19.3047 14.7271 19.2404 14.9575 19.1591 15.2051L13.4104 14.4033L13.2155 15.9858L18.7693 16.8735L18.0978 19.9341L12.7388 19.1323L12.5439 20.6157L17.708 21.418V21.832C17.3025 23.8081 16.8296 25.7153 16.3452 27.668L16.0516 28.855C15.7593 29.9507 15.2721 31.02 14.3953 31.8218C13.6157 32.4155 12.8363 32.3271 12.2517 31.5254C12.1248 31.2783 11.9751 31.0444 11.8049 30.8267C11.6984 30.6899 11.5837 30.5601 11.4617 30.4375C11.1693 30.3384 10.6821 30.2393 10.4873 30.3384C10.1748 30.6104 9.99646 31.0083 10 31.4263C10.0623 31.7935 10.2747 32.1172 10.5847 32.3164C11.4617 33.0088 12.6309 33.1079 13.7026 32.9102C15.554 32.6133 16.9075 31.4263 17.6975 29.7451C18.2821 28.459 18.7693 27.0742 19.2565 25.6895C19.553 24.9688 19.7412 24.1729 19.931 23.3701C20.053 22.854 20.1757 22.3354 20.3282 21.832L25.7847 22.6343L26.1743 21.1504L20.6206 20.3486L21.1973 17.1729L26.3666 17.9536L26.7563 16.4697L21.3975 15.668C21.7091 14.668 21.9808 13.6655 22.2502 12.6714C22.5636 11.5146 22.874 10.3687 23.2407 9.25195C23.5486 8.55615 23.9777 7.92188 24.5074 7.38086C25.1895 6.68848 26.0664 6.77686 26.651 7.57861C26.8322 7.75635 26.9747 7.93359 27.1227 8.11133C27.2219 8.23047 27.3236 8.34961 27.441 8.46875Z" fill="#0090FF"/>
</svg>
