<svg width="40" height="40" viewBox="0 0 40 40" fill="none" xmlns="http://www.w3.org/2000/svg">
<path d="M29.556 0H10.444C7.67408 0 5.01761 1.10035 3.05898 3.05898C1.10035 5.01761 4.7888e-08 7.67408 4.7888e-08 10.444V29.556C-0.000131296 30.9276 0.269921 32.2857 0.794735 33.5529C1.31955 34.8201 2.08884 35.9715 3.05868 36.9413C4.02853 37.9112 5.17991 38.6805 6.4471 39.2053C7.71428 39.7301 9.07244 40.0001 10.444 40H29.556C30.9276 40.0001 32.2857 39.7301 33.5529 39.2053C34.8201 38.6805 35.9715 37.9112 36.9413 36.9413C37.9112 35.9715 38.6805 34.8201 39.2053 33.5529C39.7301 32.2857 40.0001 30.9276 40 29.556V10.444C40 7.67408 38.8997 5.01761 36.941 3.05898C34.9824 1.10035 32.3259 0 29.556 0Z" fill="#F3B63B"/>
<path d="M28 13.0625L18.5512 25.8125H28V30.3125H21.8898V34H18.1102V30.3125H12V26.875L21.4488 14.1875H12V9.6875H18.1102V6H21.8898V9.6875H28V13.0625Z" fill="black"/>
</svg>
